<svg width="500" height="500" viewBox="0 0 500 500" fill="none" xmlns="http://www.w3.org/2000/svg">
<rect x="129" y="138" width="242" height="245" stroke="#ED1C24" stroke-width="16"/>
<rect x="167" y="178" width="169" height="62" stroke="#ED1C24" stroke-width="16"/>
<rect x="159" y="333" width="34" height="17" fill="#ED1C24"/>
<rect x="208" y="333" width="34" height="17" fill="#ED1C24"/>
<rect x="259" y="333" width="34" height="17" fill="#ED1C24"/>
<rect x="310" y="333" width="34" height="17" fill="#ED1C24"/>
<rect x="159" y="299" width="34" height="17" fill="#ED1C24"/>
<rect x="208" y="299" width="34" height="17" fill="#ED1C24"/>
<rect x="259" y="299" width="34" height="17" fill="#ED1C24"/>
<rect x="310" y="299" width="34" height="17" fill="#ED1C24"/>
<rect x="159" y="268" width="34" height="17" fill="#ED1C24"/>
<rect x="208" y="268" width="34" height="17" fill="#ED1C24"/>
<rect x="259" y="268" width="34" height="17" fill="#ED1C24"/>
<rect x="310" y="268" width="34" height="17" fill="#ED1C24"/>
<path d="M195.83 222.909L196.511 215.409L190.29 219.756L186.881 213.79L193.699 210.636L186.881 207.483L190.29 201.517L196.511 205.864L195.83 198.364H202.648L201.966 205.864L208.188 201.517L211.597 207.483L204.778 210.636L211.597 213.79L208.188 219.756L201.966 215.409L202.648 222.909H195.83ZM244.287 222.909L244.968 215.409L238.747 219.756L235.338 213.79L242.156 210.636L235.338 207.483L238.747 201.517L244.968 205.864L244.287 198.364H251.105L250.423 205.864L256.645 201.517L260.054 207.483L253.235 210.636L260.054 213.79L256.645 219.756L250.423 215.409L251.105 222.909H244.287ZM292.744 222.909L293.425 215.409L287.204 219.756L283.795 213.79L290.613 210.636L283.795 207.483L287.204 201.517L293.425 205.864L292.744 198.364H299.562L298.88 205.864L305.102 201.517L308.511 207.483L301.692 210.636L308.511 213.79L305.102 219.756L298.88 215.409L299.562 222.909H292.744Z" fill="#ED1C24"/>
</svg>
