<svg xmlns="http://www.w3.org/2000/svg" xmlns:xlink="http://www.w3.org/1999/xlink" width="500" zoomAndPan="magnify" viewBox="0 0 375 374.999991" height="500" preserveAspectRatio="xMidYMid meet" version="1.0"><defs><clipPath id="59ae487682"><path d="M 106 42.253906 L 269 42.253906 L 269 214 L 106 214 Z M 106 42.253906 " clip-rule="nonzero"/></clipPath><clipPath id="7dfc4433a3"><path d="M 42.253906 226 L 332.503906 226 L 332.503906 332.503906 L 42.253906 332.503906 Z M 42.253906 226 " clip-rule="nonzero"/></clipPath></defs><g clip-path="url(#59ae487682)"><path fill="#80cc28" d="M 106.808594 202.023438 L 106.808594 213.320312 L 268.1875 213.320312 L 268.1875 202.023438 C 268.183594 199.945312 268.101562 197.867188 267.941406 195.796875 C 267.777344 193.722656 267.535156 191.660156 267.210938 189.605469 C 266.890625 187.554688 266.488281 185.515625 266.011719 183.492188 C 265.53125 181.46875 264.972656 179.46875 264.339844 177.488281 C 263.707031 175.511719 262.996094 173.558594 262.214844 171.632812 C 261.429688 169.707031 260.570312 167.816406 259.640625 165.957031 C 258.710938 164.097656 257.710938 162.277344 256.640625 160.496094 C 255.566406 158.714844 254.429688 156.976562 253.226562 155.285156 C 252.019531 153.589844 250.753906 151.945312 249.421875 150.347656 C 248.089844 148.753906 246.699219 147.210938 245.246094 145.722656 C 243.796875 144.234375 242.289062 142.804688 240.730469 141.429688 C 239.167969 140.058594 237.554688 138.75 235.894531 137.5 C 234.230469 136.253906 232.523438 135.070312 230.769531 133.953125 C 229.015625 132.835938 227.222656 131.789062 225.386719 130.8125 C 223.554688 129.835938 221.683594 128.929688 219.78125 128.09375 C 217.875 127.261719 215.941406 126.503906 213.980469 125.820312 C 214.640625 125.351562 215.289062 124.871094 215.921875 124.371094 C 216.558594 123.875 217.179688 123.359375 217.789062 122.824219 C 218.394531 122.292969 218.988281 121.746094 219.566406 121.183594 C 220.144531 120.621094 220.710938 120.042969 221.257812 119.449219 C 221.808594 118.855469 222.339844 118.25 222.855469 117.628906 C 223.371094 117.007812 223.871094 116.375 224.355469 115.726562 C 224.839844 115.078125 225.304688 114.417969 225.753906 113.75 C 226.199219 113.078125 226.632812 112.394531 227.042969 111.699219 C 227.457031 111.003906 227.851562 110.300781 228.226562 109.585938 C 228.601562 108.871094 228.957031 108.144531 229.292969 107.410156 C 229.628906 106.675781 229.949219 105.933594 230.246094 105.183594 C 230.542969 104.433594 230.824219 103.675781 231.082031 102.910156 C 231.339844 102.144531 231.578125 101.375 231.792969 100.59375 C 232.011719 99.816406 232.207031 99.035156 232.382812 98.246094 C 232.558594 97.457031 232.714844 96.664062 232.851562 95.871094 C 232.984375 95.074219 233.097656 94.273438 233.191406 93.472656 C 233.28125 92.667969 233.351562 91.863281 233.402344 91.058594 C 233.453125 90.253906 233.480469 89.445312 233.488281 88.636719 C 233.496094 87.832031 233.484375 87.023438 233.449219 86.214844 C 233.414062 85.410156 233.355469 84.605469 233.277344 83.800781 C 233.203125 82.996094 233.101562 82.195312 232.984375 81.398438 C 232.863281 80.597656 232.722656 79.804688 232.5625 79.011719 C 232.398438 78.21875 232.21875 77.433594 232.015625 76.652344 C 231.8125 75.871094 231.585938 75.09375 231.34375 74.324219 C 231.101562 73.554688 230.835938 72.792969 230.550781 72.035156 C 230.269531 71.28125 229.964844 70.53125 229.640625 69.792969 C 229.316406 69.050781 228.972656 68.320312 228.613281 67.597656 C 228.25 66.875 227.871094 66.164062 227.46875 65.464844 C 227.070312 64.761719 226.652344 64.070312 226.21875 63.390625 C 225.78125 62.710938 225.328125 62.042969 224.855469 61.386719 C 224.386719 60.730469 223.898438 60.085938 223.390625 59.457031 C 222.886719 58.828125 222.367188 58.210938 221.828125 57.605469 C 221.292969 57.003906 220.738281 56.417969 220.167969 55.84375 C 219.601562 55.269531 219.019531 54.710938 218.421875 54.167969 C 217.824219 53.625 217.210938 53.097656 216.585938 52.585938 C 215.960938 52.074219 215.320312 51.582031 214.667969 51.105469 C 214.019531 50.628906 213.355469 50.167969 212.679688 49.726562 C 212.003906 49.285156 211.316406 48.859375 210.617188 48.453125 C 209.917969 48.046875 209.210938 47.660156 208.492188 47.292969 C 207.773438 46.921875 207.046875 46.574219 206.308594 46.242188 C 205.570312 45.914062 204.828125 45.601562 204.074219 45.3125 C 203.320312 45.019531 202.558594 44.75 201.792969 44.5 C 201.023438 44.246094 200.25 44.015625 199.46875 43.804688 C 198.691406 43.597656 197.90625 43.40625 197.117188 43.238281 C 196.324219 43.070312 195.53125 42.921875 194.734375 42.792969 C 193.9375 42.667969 193.136719 42.5625 192.332031 42.476562 C 191.53125 42.390625 190.726562 42.328125 189.917969 42.285156 C 189.113281 42.242188 188.304688 42.222656 187.496094 42.222656 C 186.691406 42.222656 185.882812 42.242188 185.078125 42.285156 C 184.269531 42.328125 183.464844 42.390625 182.664062 42.476562 C 181.859375 42.5625 181.058594 42.667969 180.261719 42.792969 C 179.464844 42.921875 178.671875 43.070312 177.878906 43.238281 C 177.089844 43.40625 176.304688 43.597656 175.527344 43.804688 C 174.746094 44.015625 173.972656 44.246094 173.203125 44.5 C 172.4375 44.75 171.675781 45.019531 170.921875 45.3125 C 170.167969 45.601562 169.425781 45.914062 168.6875 46.242188 C 167.949219 46.574219 167.222656 46.921875 166.503906 47.292969 C 165.785156 47.660156 165.078125 48.046875 164.378906 48.453125 C 163.679688 48.859375 162.992188 49.285156 162.316406 49.726562 C 161.640625 50.167969 160.976562 50.628906 160.328125 51.105469 C 159.675781 51.582031 159.035156 52.074219 158.410156 52.585938 C 157.785156 53.097656 157.171875 53.625 156.574219 54.167969 C 155.976562 54.710938 155.394531 55.269531 154.828125 55.84375 C 154.257812 56.417969 153.703125 57.003906 153.167969 57.605469 C 152.628906 58.210938 152.109375 58.828125 151.605469 59.457031 C 151.097656 60.085938 150.609375 60.730469 150.140625 61.386719 C 149.667969 62.042969 149.214844 62.710938 148.777344 63.390625 C 148.34375 64.070312 147.925781 64.761719 147.527344 65.464844 C 147.125 66.164062 146.746094 66.875 146.382812 67.597656 C 146.023438 68.320312 145.679688 69.050781 145.355469 69.792969 C 145.03125 70.53125 144.726562 71.28125 144.445312 72.035156 C 144.160156 72.792969 143.894531 73.554688 143.652344 74.324219 C 143.410156 75.09375 143.183594 75.871094 142.980469 76.652344 C 142.777344 77.433594 142.597656 78.21875 142.433594 79.011719 C 142.273438 79.804688 142.132812 80.597656 142.011719 81.398438 C 141.894531 82.195312 141.792969 82.996094 141.71875 83.800781 C 141.640625 84.605469 141.582031 85.410156 141.546875 86.214844 C 141.511719 87.023438 141.5 87.832031 141.507812 88.636719 C 141.515625 89.445312 141.542969 90.253906 141.59375 91.058594 C 141.644531 91.863281 141.714844 92.667969 141.804688 93.472656 C 141.898438 94.273438 142.011719 95.074219 142.144531 95.871094 C 142.28125 96.664062 142.4375 97.457031 142.613281 98.246094 C 142.789062 99.035156 142.984375 99.816406 143.203125 100.59375 C 143.417969 101.375 143.65625 102.144531 143.914062 102.910156 C 144.171875 103.675781 144.453125 104.433594 144.75 105.183594 C 145.046875 105.933594 145.363281 106.675781 145.703125 107.410156 C 146.039062 108.144531 146.394531 108.871094 146.769531 109.585938 C 147.144531 110.300781 147.539062 111.003906 147.953125 111.699219 C 148.363281 112.394531 148.796875 113.078125 149.242188 113.75 C 149.691406 114.417969 150.15625 115.078125 150.640625 115.726562 C 151.125 116.375 151.625 117.007812 152.140625 117.628906 C 152.65625 118.25 153.1875 118.855469 153.738281 119.449219 C 154.285156 120.042969 154.851562 120.621094 155.429688 121.183594 C 156.007812 121.746094 156.601562 122.292969 157.207031 122.824219 C 157.816406 123.359375 158.4375 123.875 159.074219 124.371094 C 159.707031 124.871094 160.355469 125.351562 161.015625 125.820312 C 159.054688 126.503906 157.121094 127.261719 155.214844 128.09375 C 153.3125 128.929688 151.441406 129.835938 149.609375 130.8125 C 147.773438 131.789062 145.980469 132.835938 144.226562 133.953125 C 142.472656 135.070312 140.765625 136.253906 139.101562 137.5 C 137.441406 138.75 135.828125 140.058594 134.265625 141.429688 C 132.707031 142.804688 131.199219 144.234375 129.75 145.722656 C 128.296875 147.210938 126.90625 148.753906 125.574219 150.347656 C 124.242188 151.945312 122.976562 153.589844 121.769531 155.285156 C 120.566406 156.976562 119.429688 158.714844 118.355469 160.496094 C 117.285156 162.277344 116.285156 164.097656 115.355469 165.957031 C 114.425781 167.816406 113.566406 169.707031 112.78125 171.632812 C 112 173.558594 111.289062 175.511719 110.65625 177.488281 C 110.023438 179.46875 109.464844 181.46875 108.984375 183.492188 C 108.507812 185.515625 108.105469 187.554688 107.785156 189.605469 C 107.460938 191.660156 107.21875 193.722656 107.054688 195.796875 C 106.894531 197.867188 106.8125 199.945312 106.808594 202.023438 Z M 154.414062 88.25 C 154.414062 87.164062 154.46875 86.085938 154.574219 85.007812 C 154.679688 83.929688 154.839844 82.859375 155.050781 81.796875 C 155.261719 80.730469 155.523438 79.683594 155.839844 78.644531 C 156.152344 77.609375 156.519531 76.589844 156.933594 75.589844 C 157.347656 74.585938 157.8125 73.609375 158.320312 72.652344 C 158.832031 71.699219 159.386719 70.769531 159.992188 69.871094 C 160.59375 68.96875 161.238281 68.097656 161.925781 67.261719 C 162.613281 66.425781 163.339844 65.621094 164.105469 64.855469 C 164.871094 64.089844 165.671875 63.363281 166.511719 62.675781 C 167.347656 61.988281 168.21875 61.34375 169.117188 60.742188 C 170.019531 60.140625 170.945312 59.582031 171.902344 59.074219 C 172.859375 58.5625 173.835938 58.097656 174.835938 57.683594 C 175.839844 57.269531 176.859375 56.90625 177.894531 56.589844 C 178.929688 56.277344 179.980469 56.011719 181.042969 55.800781 C 182.105469 55.589844 183.175781 55.433594 184.253906 55.324219 C 185.332031 55.21875 186.414062 55.167969 187.496094 55.167969 C 188.582031 55.167969 189.664062 55.21875 190.742188 55.324219 C 191.820312 55.433594 192.890625 55.589844 193.953125 55.800781 C 195.015625 56.011719 196.066406 56.277344 197.101562 56.589844 C 198.136719 56.90625 199.15625 57.269531 200.160156 57.683594 C 201.160156 58.097656 202.136719 58.5625 203.09375 59.074219 C 204.046875 59.582031 204.976562 60.140625 205.878906 60.742188 C 206.777344 61.34375 207.648438 61.988281 208.484375 62.675781 C 209.324219 63.363281 210.125 64.089844 210.890625 64.855469 C 211.65625 65.621094 212.382812 66.425781 213.070312 67.261719 C 213.757812 68.097656 214.402344 68.96875 215.003906 69.871094 C 215.605469 70.769531 216.164062 71.699219 216.675781 72.652344 C 217.183594 73.609375 217.648438 74.585938 218.0625 75.589844 C 218.476562 76.589844 218.84375 77.609375 219.15625 78.644531 C 219.472656 79.683594 219.734375 80.730469 219.945312 81.796875 C 220.15625 82.859375 220.316406 83.929688 220.421875 85.007812 C 220.527344 86.085938 220.582031 87.164062 220.582031 88.25 C 220.582031 89.332031 220.527344 90.414062 220.421875 91.492188 C 220.316406 92.570312 220.15625 93.640625 219.945312 94.703125 C 219.734375 95.765625 219.472656 96.816406 219.15625 97.851562 C 218.84375 98.890625 218.476562 99.910156 218.0625 100.910156 C 217.648438 101.910156 217.183594 102.890625 216.675781 103.84375 C 216.164062 104.800781 215.605469 105.726562 215.003906 106.628906 C 214.402344 107.53125 213.757812 108.398438 213.070312 109.238281 C 212.382812 110.074219 211.65625 110.875 210.890625 111.640625 C 210.125 112.410156 209.324219 113.136719 208.484375 113.824219 C 207.648438 114.511719 206.777344 115.15625 205.878906 115.757812 C 204.976562 116.359375 204.046875 116.914062 203.09375 117.425781 C 202.136719 117.9375 201.160156 118.398438 200.160156 118.8125 C 199.15625 119.226562 198.136719 119.59375 197.101562 119.90625 C 196.066406 120.222656 195.015625 120.484375 193.953125 120.695312 C 192.890625 120.90625 191.820312 121.066406 190.742188 121.171875 C 189.664062 121.277344 188.582031 121.332031 187.496094 121.332031 C 186.414062 121.332031 185.335938 121.277344 184.257812 121.167969 C 183.179688 121.0625 182.109375 120.902344 181.046875 120.6875 C 179.984375 120.476562 178.9375 120.210938 177.898438 119.898438 C 176.863281 119.582031 175.84375 119.214844 174.84375 118.800781 C 173.84375 118.386719 172.867188 117.921875 171.914062 117.410156 C 170.957031 116.902344 170.03125 116.34375 169.128906 115.742188 C 168.230469 115.140625 167.359375 114.496094 166.523438 113.808594 C 165.6875 113.121094 164.886719 112.394531 164.117188 111.628906 C 163.351562 110.863281 162.625 110.0625 161.9375 109.222656 C 161.253906 108.386719 160.609375 107.519531 160.003906 106.617188 C 159.402344 105.71875 158.847656 104.789062 158.335938 103.835938 C 157.824219 102.878906 157.363281 101.902344 156.945312 100.902344 C 156.53125 99.902344 156.164062 98.882812 155.851562 97.847656 C 155.535156 96.8125 155.269531 95.761719 155.058594 94.699219 C 154.847656 93.636719 154.6875 92.566406 154.578125 91.492188 C 154.472656 90.414062 154.417969 89.332031 154.414062 88.25 Z M 187.496094 134.242188 C 189.683594 134.242188 191.867188 134.347656 194.042969 134.558594 C 196.21875 134.769531 198.378906 135.082031 200.527344 135.503906 C 202.671875 135.921875 204.792969 136.445312 206.886719 137.070312 C 208.984375 137.695312 211.042969 138.417969 213.070312 139.242188 C 215.09375 140.066406 217.074219 140.988281 219.011719 142.003906 C 220.945312 143.019531 222.828125 144.125 224.660156 145.324219 C 226.488281 146.523438 228.253906 147.808594 229.960938 149.175781 C 231.664062 150.546875 233.300781 151.992188 234.863281 153.519531 C 236.429688 155.046875 237.914062 156.648438 239.324219 158.320312 C 240.734375 159.992188 242.0625 161.726562 243.304688 163.523438 C 244.546875 165.324219 245.695312 167.179688 246.757812 169.089844 C 247.820312 171.003906 248.789062 172.960938 249.664062 174.964844 C 250.535156 176.96875 251.308594 179.011719 251.984375 181.09375 C 252.660156 183.171875 253.234375 185.28125 253.703125 187.414062 C 254.175781 189.550781 254.542969 191.703125 254.804688 193.875 C 255.066406 196.042969 255.226562 198.222656 255.277344 200.410156 L 119.71875 200.410156 C 119.769531 198.222656 119.929688 196.042969 120.191406 193.875 C 120.453125 191.703125 120.820312 189.550781 121.292969 187.414062 C 121.761719 185.28125 122.335938 183.171875 123.011719 181.09375 C 123.6875 179.011719 124.460938 176.96875 125.332031 174.964844 C 126.207031 172.960938 127.175781 171.003906 128.238281 169.089844 C 129.296875 167.179688 130.449219 165.324219 131.691406 163.527344 C 132.933594 161.726562 134.261719 159.992188 135.671875 158.320312 C 137.082031 156.648438 138.566406 155.046875 140.132812 153.519531 C 141.695312 151.992188 143.332031 150.546875 145.035156 149.175781 C 146.742188 147.808594 148.507812 146.523438 150.335938 145.324219 C 152.167969 144.125 154.050781 143.019531 155.984375 142.003906 C 157.921875 140.988281 159.902344 140.066406 161.925781 139.242188 C 163.953125 138.417969 166.011719 137.695312 168.109375 137.070312 C 170.203125 136.445312 172.324219 135.921875 174.46875 135.503906 C 176.617188 135.082031 178.777344 134.769531 180.953125 134.558594 C 183.128906 134.347656 185.3125 134.242188 187.496094 134.242188 Z M 187.496094 134.242188 " fill-opacity="1" fill-rule="nonzero"/></g><g clip-path="url(#7dfc4433a3)"><path fill="#80cc28" d="M 42.253906 332.738281 L 332.738281 332.738281 L 332.738281 226.230469 L 42.253906 226.230469 Z M 55.167969 239.140625 L 319.828125 239.140625 L 319.828125 319.828125 L 55.167969 319.828125 Z M 55.167969 239.140625 " fill-opacity="1" fill-rule="nonzero"/></g><path fill="#80cc28" d="M 155.222656 273.03125 L 168.132812 273.03125 L 168.132812 285.941406 L 155.222656 285.941406 Z M 155.222656 273.03125 " fill-opacity="1" fill-rule="nonzero"/><path fill="#80cc28" d="M 129.402344 273.03125 L 142.3125 273.03125 L 142.3125 285.941406 L 129.402344 285.941406 Z M 129.402344 273.03125 " fill-opacity="1" fill-rule="nonzero"/><path fill="#80cc28" d="M 181.042969 273.03125 L 193.953125 273.03125 L 193.953125 285.941406 L 181.042969 285.941406 Z M 181.042969 273.03125 " fill-opacity="1" fill-rule="nonzero"/><path fill="#80cc28" d="M 206.863281 273.03125 L 219.773438 273.03125 L 219.773438 285.941406 L 206.863281 285.941406 Z M 206.863281 273.03125 " fill-opacity="1" fill-rule="nonzero"/><path fill="#80cc28" d="M 232.683594 273.03125 L 245.59375 273.03125 L 245.59375 285.941406 L 232.683594 285.941406 Z M 232.683594 273.03125 " fill-opacity="1" fill-rule="nonzero"/></svg>