<svg xmlns="http://www.w3.org/2000/svg" xmlns:xlink="http://www.w3.org/1999/xlink" width="1080" zoomAndPan="magnify" viewBox="0 0 810 809.999993" height="1080" preserveAspectRatio="xMidYMid meet" version="1.0"><defs><clipPath id="9f285eb65e"><path d="M 184 253.632812 L 195 253.632812 L 195 299 L 184 299 Z M 184 253.632812 " clip-rule="nonzero"/></clipPath><clipPath id="f1769ca915"><path d="M 123.394531 314 L 169 314 L 169 325 L 123.394531 325 Z M 123.394531 314 " clip-rule="nonzero"/></clipPath><clipPath id="2ddd2ff107"><path d="M 536 443 L 618.777344 443 L 618.777344 525.882812 L 536 525.882812 Z M 536 443 " clip-rule="nonzero"/></clipPath></defs><path fill="#1e1e1e" d="M 547.027344 306.769531 L 216.976562 306.769531 C 194.863281 306.769531 176.882812 323.589844 176.882812 344.265625 L 176.882812 456.71875 C 176.882812 477.394531 194.863281 494.214844 216.976562 494.214844 L 539.636719 494.214844 L 537 484.351562 L 216.976562 484.351562 C 200.300781 484.351562 186.734375 471.957031 186.734375 456.71875 L 186.734375 344.265625 C 186.734375 329.03125 200.300781 316.632812 216.976562 316.632812 L 547.027344 316.632812 C 563.703125 316.632812 577.265625 329.03125 577.265625 344.265625 L 577.265625 444.054688 L 587.121094 446.691406 L 587.121094 344.265625 C 587.121094 323.589844 569.140625 306.769531 547.027344 306.769531 " fill-opacity="1" fill-rule="nonzero"/><g clip-path="url(#9f285eb65e)"><path fill="#1e1e1e" d="M 189.316406 298.492188 C 186.644531 298.492188 184.46875 296.320312 184.46875 293.644531 L 184.46875 258.476562 C 184.46875 255.804688 186.644531 253.628906 189.316406 253.628906 L 189.460938 253.628906 C 192.132812 253.628906 194.304688 255.804688 194.304688 258.476562 L 194.304688 293.644531 C 194.304688 296.320312 192.132812 298.492188 189.460938 298.492188 L 189.316406 298.492188 " fill-opacity="1" fill-rule="nonzero"/></g><path fill="#1e1e1e" d="M 162.816406 297.652344 C 161.523438 297.652344 160.308594 297.148438 159.394531 296.234375 L 134.546875 271.363281 C 133.628906 270.449219 133.128906 269.234375 133.128906 267.9375 C 133.128906 266.644531 133.628906 265.425781 134.546875 264.507812 L 134.648438 264.40625 C 135.566406 263.492188 136.78125 262.988281 138.074219 262.988281 C 139.371094 262.988281 140.585938 263.492188 141.5 264.40625 L 166.347656 289.273438 C 167.261719 290.1875 167.765625 291.40625 167.765625 292.703125 C 167.765625 293.996094 167.261719 295.210938 166.347656 296.128906 L 166.238281 296.234375 C 165.328125 297.148438 164.113281 297.652344 162.816406 297.652344 " fill-opacity="1" fill-rule="nonzero"/><g clip-path="url(#f1769ca915)"><path fill="#1e1e1e" d="M 128.621094 324.210938 C 125.949219 324.210938 123.777344 322.035156 123.777344 319.363281 L 123.777344 319.214844 C 123.777344 316.542969 125.949219 314.367188 128.621094 314.367188 L 163.761719 314.367188 C 166.4375 314.367188 168.605469 316.542969 168.605469 319.214844 L 168.605469 319.363281 C 168.605469 322.035156 166.4375 324.210938 163.761719 324.210938 L 128.621094 324.210938 " fill-opacity="1" fill-rule="nonzero"/></g><g clip-path="url(#2ddd2ff107)"><path fill="#1e1e1e" d="M 590.472656 478.492188 L 613.628906 464.011719 L 536.191406 443.246094 L 556.941406 520.746094 L 571.40625 497.570312 L 599.707031 525.890625 L 618.773438 506.808594 L 590.472656 478.492188 " fill-opacity="1" fill-rule="nonzero"/></g><path fill="#1e1e1e" d="M 234.71875 406.285156 L 245.210938 406.285156 C 243.363281 397.855469 241 387.796875 240.039062 382.546875 C 239.003906 387.796875 236.640625 397.855469 234.71875 406.285156 Z M 234.125 373.15625 L 246.542969 373.15625 L 259.84375 421.816406 L 248.980469 421.816406 L 246.761719 413.386719 L 233.164062 413.386719 L 230.949219 421.816406 L 220.601562 421.816406 L 234.125 373.15625 " fill-opacity="1" fill-rule="nonzero"/><path fill="#1e1e1e" d="M 275.734375 395.636719 L 275.734375 414.570312 C 276.988281 415.160156 278.539062 415.53125 280.09375 415.53125 C 285.046875 415.53125 287.484375 412.054688 287.484375 403.105469 C 287.484375 394.304688 285.488281 391.421875 281.644531 391.421875 C 279.054688 391.421875 276.546875 394.230469 275.734375 395.636719 Z M 265.753906 383.804688 L 274.992188 383.804688 L 275.433594 388.832031 L 275.582031 388.832031 C 276.914062 386.835938 280.535156 382.988281 285.710938 382.988281 C 292.359375 382.988281 297.753906 388.980469 297.753906 402.292969 C 297.753906 416.269531 291.398438 422.703125 283.199219 422.703125 C 280.535156 422.703125 277.949219 422.1875 275.660156 421.222656 L 275.660156 438.753906 L 265.753906 438.753906 L 265.753906 383.804688 " fill-opacity="1" fill-rule="nonzero"/><path fill="#1e1e1e" d="M 314.902344 395.636719 L 314.902344 414.570312 C 316.15625 415.160156 317.707031 415.53125 319.261719 415.53125 C 324.210938 415.53125 326.652344 412.054688 326.652344 403.105469 C 326.652344 394.304688 324.65625 391.421875 320.8125 391.421875 C 318.222656 391.421875 315.710938 394.230469 314.902344 395.636719 Z M 304.921875 383.804688 L 314.160156 383.804688 L 314.605469 388.832031 L 314.75 388.832031 C 316.082031 386.835938 319.703125 382.988281 324.875 382.988281 C 331.527344 382.988281 336.921875 388.980469 336.921875 402.292969 C 336.921875 416.269531 330.566406 422.703125 322.363281 422.703125 C 319.703125 422.703125 317.117188 422.1875 314.828125 421.222656 L 314.828125 438.753906 L 304.921875 438.753906 L 304.921875 383.804688 " fill-opacity="1" fill-rule="nonzero"/><path fill="#1e1e1e" d="M 354.070312 421.816406 L 344.09375 421.816406 L 344.09375 368.640625 L 354.070312 367.164062 L 354.070312 421.816406 " fill-opacity="1" fill-rule="nonzero"/><path fill="#1e1e1e" d="M 392.496094 383.804688 L 380.003906 423.960938 C 376.902344 433.945312 371.066406 436.757812 367.960938 438.457031 C 366.929688 437.125 364.488281 433.722656 363.527344 432.390625 C 364.632812 431.433594 369.957031 428.695312 371.507812 422.628906 L 359.539062 383.804688 L 369.957031 383.804688 C 371.066406 388.316406 375.054688 404.957031 376.164062 411.167969 C 377.347656 404.808594 381.261719 388.316406 382.445312 383.804688 L 392.496094 383.804688 " fill-opacity="1" fill-rule="nonzero"/><path fill="#1e1e1e" d="M 449.546875 421.816406 L 440.382812 421.816406 L 424.863281 391.125 L 424.789062 391.125 C 424.789062 392.085938 425.015625 394.378906 425.015625 396.597656 L 425.015625 421.816406 L 415.996094 421.816406 L 415.996094 373.15625 L 425.230469 373.15625 C 430.40625 383.285156 435.503906 393.566406 440.605469 403.699219 L 440.753906 403.699219 C 440.753906 402.734375 440.53125 400.367188 440.53125 398.296875 L 440.53125 373.15625 L 449.546875 373.15625 L 449.546875 421.816406 " fill-opacity="1" fill-rule="nonzero"/><path fill="#1e1e1e" d="M 473.789062 390.3125 C 469.648438 390.3125 467.800781 393.9375 467.800781 402.8125 C 467.800781 411.683594 469.648438 415.382812 473.789062 415.382812 C 477.925781 415.382812 479.773438 411.683594 479.773438 402.8125 C 479.773438 393.9375 477.925781 390.3125 473.789062 390.3125 Z M 473.789062 422.703125 C 463.886719 422.703125 457.527344 417.15625 457.527344 402.8125 C 457.527344 388.535156 463.886719 382.988281 473.789062 382.988281 C 483.617188 382.988281 490.117188 388.535156 490.117188 402.8125 C 490.117188 417.15625 483.617188 422.703125 473.789062 422.703125 " fill-opacity="1" fill-rule="nonzero"/><path fill="#1e1e1e" d="M 543.402344 383.804688 L 533.347656 421.816406 L 523.894531 421.816406 L 518.125 397.117188 L 511.917969 421.816406 L 502.828125 421.816406 L 493.222656 383.804688 L 503.054688 383.804688 L 508.59375 409.539062 L 514.355469 383.804688 L 522.636719 383.804688 L 528.695312 409.539062 L 533.941406 383.804688 L 543.402344 383.804688 " fill-opacity="1" fill-rule="nonzero"/></svg>