<?xml version="1.0" encoding="UTF-8"?>
<svg id="Layer_1" data-name="Layer 1" xmlns="http://www.w3.org/2000/svg" xmlns:xlink="http://www.w3.org/1999/xlink" viewBox="0 0 500 500">
  <defs>
    <style>
      .cls-1 {
        fill: #f16622;
      }

      .cls-2 {
        fill: none;
      }

      .cls-3 {
        clip-path: url(#clippath-1);
      }
    </style>
    <clipPath id="clippath-1">
      <rect class="cls-2" x="51.6" y="51.6" width="397" height="397"/>
    </clipPath>
  </defs>
  <path class="cls-1" d="M274.4,180.84l-14.72-22.3h-6.5v32.47h6.5v-22.24l14.72,22.24h6.5v-32.47h-6.5v22.3Z"/>
  <path class="cls-1" d="M196.2,224.88h33.44v107.24h-33.44v-107.24Z"/>
  <path class="cls-1" d="M208.38,174.39c1.67-.53,3.01-1.42,4.02-2.7,1.01-1.27,1.51-2.84,1.51-4.73,0-1.61-.41-3.05-1.23-4.32s-2.03-2.26-3.62-2.97c-1.6-.71-3.49-1.07-5.69-1.07h-13.38v32.42h13.98c2.2,0,4.1-.38,5.71-1.11,1.61-.74,2.84-1.77,3.69-3.09.85-1.31,1.28-2.84,1.28-4.58,0-1.92-.58-3.62-1.76-5.11-1.18-1.48-2.68-2.4-4.51-2.74h.01ZM196.48,163.84h5.95c1.55,0,2.74.36,3.57,1.07.84.71,1.26,1.72,1.26,3.02s-.42,2.3-1.26,3c-.84.69-2.02,1.04-3.57,1.04h-5.95v-8.13ZM206.72,184.6c-.89.74-2.11,1.11-3.69,1.11h-6.55v-8.73h6.42c1.58,0,2.83.39,3.76,1.18.93.79,1.39,1.89,1.39,3.28s-.44,2.41-1.32,3.16h-.01Z"/>
  <path class="cls-1" d="M229.55,158.55l-11.66,32.46h6.82l2.14-6.17h12.91l2.14,6.17h6.88l-11.66-32.46h-7.57ZM228.62,179.64l4.69-13.56,4.69,13.56h-9.38Z"/>
  <path class="cls-1" d="M313.47,158.59h-7.85l-11.8,14.54v-14.54h-6.5v32.42h6.5v-14.45l11.8,14.45h8.22l-13.75-16.35,13.38-16.07Z"/>
  <path class="cls-1" d="M270.37,224.88h33.44v107.24h-33.44v-107.24Z"/>
  <g class="cls-3">
    <path class="cls-1" d="M250.01,51.6c-109.58,0-198.41,88.83-198.41,198.41s88.83,198.41,198.41,198.41,198.41-88.83,198.41-198.41S359.59,51.6,250.01,51.6ZM124.82,185.19l124.86-79.82,125.53,79.82v23.22H124.82v-23.22ZM364.29,332.13c.57,0,1.04.47,1.04,1.05v8.05c0,.58-.47,1.04-1.04,1.04h-228.55c-.58,0-1.04-.46-1.04-1.04v-8.05c0-.58.46-1.05,1.04-1.05h19.74v-107.24h-19.84c-.53,0-.94-.42-.94-.94v-7.26c0-.52.42-.95.94-.95h228.75c.53,0,.94.43.94.95v7.26c0,.53-.42.94-.94.94h-19.84v107.24h19.74ZM375.29,359.61c0,.64-.52,1.16-1.16,1.16H125.9c-.64,0-1.17-.52-1.17-1.16v-8.95c0-.64.53-1.16,1.17-1.16h248.23c.64,0,1.16.52,1.16,1.16v8.95Z"/>
  </g>
</svg>