<svg xmlns="http://www.w3.org/2000/svg" xmlns:xlink="http://www.w3.org/1999/xlink" width="500" zoomAndPan="magnify" viewBox="0 0 375 374.999991" height="500" preserveAspectRatio="xMidYMid meet" version="1.0"><defs><clipPath id="8498e7966a"><path d="M 121.59375 112.5 L 253.40625 112.5 L 253.40625 262.5 L 121.59375 262.5 Z M 121.59375 112.5 " clip-rule="nonzero"/></clipPath><clipPath id="f2411cb7d1"><path d="M 135.324219 124.933594 L 169.363281 124.933594 L 169.363281 194.632812 L 135.324219 194.632812 Z M 135.324219 124.933594 " clip-rule="nonzero"/></clipPath><clipPath id="5f6a0fce1d"><path d="M 135.324219 134.101562 L 169.824219 134.101562 L 169.824219 168.601562 L 135.324219 168.601562 Z M 135.324219 134.101562 " clip-rule="nonzero"/></clipPath><clipPath id="b323f171ff"><path d="M 133.5 182.359375 L 171.195312 182.359375 L 171.195312 190.316406 L 133.5 190.316406 Z M 133.5 182.359375 " clip-rule="nonzero"/></clipPath><clipPath id="4216334685"><path d="M 166.046875 182.359375 C 168.886719 182.359375 171.1875 184.140625 171.1875 186.335938 C 171.1875 188.535156 168.886719 190.316406 166.046875 190.316406 L 138.640625 190.316406 C 135.800781 190.316406 133.5 188.535156 133.5 186.335938 C 133.5 184.140625 135.800781 182.359375 138.640625 182.359375 Z M 166.046875 182.359375 " clip-rule="nonzero"/></clipPath></defs><g clip-path="url(#8498e7966a)"><path fill="#d9e7f4" d="M 194.816406 138.109375 L 207.988281 138.109375 L 187.5 117.621094 L 187.5 130.792969 C 187.5 134.816406 190.792969 138.109375 194.816406 138.109375 Z M 121.644531 119.816406 L 121.644531 236.890625 C 121.644531 240.914062 124.9375 244.207031 128.964844 244.207031 L 183.839844 244.207031 L 183.839844 236.890625 C 183.839844 230.855469 188.78125 225.914062 194.816406 225.914062 L 208.71875 225.914062 L 201.769531 184.207031 C 200.671875 178.171875 202.5 172.132812 206.339844 167.378906 C 208.171875 165.183594 210.546875 163.355469 212.925781 162.257812 L 212.925781 145.425781 L 194.632812 145.425781 C 186.585938 145.425781 180 138.839844 180 130.792969 L 180 112.5 L 128.78125 112.5 C 124.9375 112.5 121.644531 115.792969 121.644531 119.816406 Z M 147.257812 169.207031 C 147.257812 172.132812 149.632812 174.695312 152.742188 174.695312 C 155.855469 174.695312 158.230469 172.132812 158.230469 169.207031 C 158.230469 167.195312 159.878906 165.546875 161.890625 165.546875 C 163.902344 165.546875 165.546875 167.195312 165.546875 169.207031 C 165.546875 175.0625 161.707031 179.816406 156.402344 181.464844 L 156.402344 185.671875 C 156.402344 187.683594 154.757812 189.328125 152.742188 189.328125 C 150.730469 189.328125 149.085938 187.683594 149.085938 185.671875 L 149.085938 181.464844 C 143.78125 179.816406 139.9375 175.0625 139.9375 169.207031 C 139.9375 162.074219 145.609375 156.402344 152.742188 156.402344 C 155.855469 156.402344 158.230469 153.839844 158.230469 150.914062 C 158.230469 147.804688 155.855469 145.425781 152.742188 145.425781 C 149.632812 145.425781 147.257812 147.804688 147.257812 150.914062 C 147.257812 152.925781 145.609375 154.574219 143.597656 154.574219 C 141.585938 154.574219 139.9375 152.925781 139.9375 150.914062 C 139.9375 145.0625 143.78125 140.304688 149.085938 138.660156 L 149.085938 134.453125 C 149.085938 132.4375 150.730469 130.792969 152.742188 130.792969 C 154.757812 130.792969 156.402344 132.4375 156.402344 134.453125 L 156.402344 138.660156 C 161.707031 140.304688 165.546875 145.0625 165.546875 150.914062 C 165.546875 158.046875 159.878906 163.71875 152.742188 163.71875 C 149.632812 163.71875 147.257812 166.097656 147.257812 169.207031 Z M 132.621094 222.257812 C 132.621094 220.242188 134.269531 218.597656 136.28125 218.597656 L 169.207031 218.597656 C 171.21875 218.597656 172.867188 220.242188 172.867188 222.257812 C 172.867188 224.269531 171.21875 225.914062 169.207031 225.914062 L 136.28125 225.914062 C 134.269531 225.914062 132.621094 224.269531 132.621094 222.257812 Z M 132.621094 203.964844 C 132.621094 201.953125 134.269531 200.304688 136.28125 200.304688 L 169.207031 200.304688 C 171.21875 200.304688 172.867188 201.953125 172.867188 203.964844 C 172.867188 205.976562 171.21875 207.621094 169.207031 207.621094 L 136.28125 207.621094 C 134.269531 207.621094 132.621094 205.976562 132.621094 203.964844 Z M 194.816406 233.230469 L 249.695312 233.230469 C 251.707031 233.230469 253.355469 234.878906 253.355469 236.890625 L 253.355469 244.207031 L 191.160156 244.207031 L 191.160156 236.890625 C 191.160156 234.878906 192.804688 233.230469 194.816406 233.230469 Z M 246.035156 262.5 L 198.476562 262.5 L 198.476562 251.523438 L 246.035156 251.523438 Z M 228.292969 225.914062 L 216.21875 225.914062 L 209.085938 182.925781 C 208.355469 179.085938 209.453125 175.0625 212.011719 172.132812 C 214.574219 169.023438 218.230469 167.378906 222.257812 167.378906 C 226.28125 167.378906 229.9375 169.023438 232.5 172.132812 C 235.0625 175.0625 236.160156 179.085938 235.425781 182.925781 Z M 228.292969 225.914062 " fill-opacity="1" fill-rule="nonzero"/></g><g clip-path="url(#f2411cb7d1)"><path fill="#d9e7f4" d="M 135.324219 124.933594 L 169.363281 124.933594 L 169.363281 194.597656 L 135.324219 194.597656 Z M 135.324219 124.933594 " fill-opacity="1" fill-rule="nonzero"/></g><g clip-path="url(#5f6a0fce1d)"><path stroke-linecap="butt" transform="matrix(0.0902197, 0, 0, 0.0902197, 135.326084, 134.103272)" fill-opacity="1" fill="#00d300" fill-rule="nonzero" stroke-linejoin="miter" d="M 191.222645 381.948118 C 85.880787 381.948118 0.498895 296.566226 0.498895 191.224368 C 0.498895 85.88251 85.880787 0.500617 191.222645 0.500617 C 296.564504 0.500617 381.946396 85.88251 381.946396 191.224368 C 381.946396 296.566226 296.564504 381.948118 191.222645 381.948118 Z M 191.222645 381.948118 " stroke="#3fb24f" stroke-width="1" stroke-opacity="1" stroke-miterlimit="10"/></g><path fill="#ffffff" d="M 149.058594 162.089844 L 141.640625 152.457031 L 144.5 150.253906 L 149.160156 156.304688 L 160.695312 142.363281 L 163.476562 144.664062 Z M 149.058594 162.089844 " fill-opacity="1" fill-rule="nonzero"/><g clip-path="url(#b323f171ff)"><g clip-path="url(#4216334685)"><path fill="#000000" d="M 133.5 182.359375 L 171.195312 182.359375 L 171.195312 190.316406 L 133.5 190.316406 Z M 133.5 182.359375 " fill-opacity="1" fill-rule="nonzero"/></g></g></svg>