<svg xmlns="http://www.w3.org/2000/svg" xmlns:xlink="http://www.w3.org/1999/xlink" width="500" zoomAndPan="magnify" viewBox="0 0 375 374.999991" height="500" preserveAspectRatio="xMidYMid meet" version="1.0"><defs><clipPath id="b1a7d4e318"><path d="M 65.484375 44.375 L 309.714844 44.375 L 309.714844 330.359375 L 65.484375 330.359375 Z M 65.484375 44.375 " clip-rule="nonzero"/></clipPath><clipPath id="069338c30a"><path d="M 128.410156 95.105469 L 246.589844 95.105469 L 246.589844 246.589844 L 128.410156 246.589844 Z M 128.410156 95.105469 " clip-rule="nonzero"/></clipPath><clipPath id="80c43cc820"><path d="M 112.773438 83.554688 L 262.464844 83.554688 L 262.464844 233.242188 L 112.773438 233.242188 Z M 112.773438 83.554688 " clip-rule="nonzero"/></clipPath></defs><g clip-path="url(#b1a7d4e318)"><path fill="#80cc28" d="M 187.5 44.347656 C 120.164062 44.347656 65.578125 98.933594 65.578125 166.269531 C 65.578125 201.320312 80.363281 232.910156 104.039062 255.148438 L 182.058594 328.453125 C 183.484375 329.785156 185.394531 330.609375 187.5 330.609375 C 189.609375 330.609375 191.519531 329.785156 192.945312 328.453125 L 270.964844 255.148438 C 294.640625 232.910156 309.425781 201.320312 309.425781 166.269531 C 309.425781 98.933594 254.839844 44.347656 187.5 44.347656 Z M 245.816406 219.285156 C 245.816406 225.140625 241.066406 229.886719 235.214844 229.886719 L 139.789062 229.886719 C 133.9375 229.886719 129.1875 225.140625 129.1875 219.285156 L 129.1875 160.972656 C 129.1875 155.117188 133.9375 150.371094 139.789062 150.371094 L 150.390625 150.371094 L 150.390625 134.464844 C 150.390625 114.007812 167.042969 97.355469 187.5 97.355469 C 207.960938 97.355469 224.609375 114.007812 224.609375 134.464844 L 224.609375 150.371094 L 235.214844 150.371094 C 241.066406 150.371094 245.816406 155.117188 245.816406 160.972656 Z M 245.816406 219.285156 " fill-opacity="1" fill-rule="nonzero"/></g><path fill="#80cc28" d="M 187.5 118.558594 C 178.730469 118.558594 171.597656 125.695312 171.597656 134.464844 L 171.597656 150.371094 L 203.402344 150.371094 L 203.402344 134.464844 C 203.402344 125.695312 196.269531 118.558594 187.496094 118.558594 Z M 187.5 118.558594 " fill-opacity="1" fill-rule="nonzero"/><g clip-path="url(#069338c30a)"><path fill="#80cc28" d="M 128.410156 95.105469 L 246.589844 95.105469 L 246.589844 246.519531 L 128.410156 246.519531 Z M 128.410156 95.105469 " fill-opacity="1" fill-rule="nonzero"/></g><path fill="#000000" d="M 148.273438 187.523438 L 148.273438 192.511719 L 226.964844 192.511719 L 226.964844 187.523438 L 220.933594 187.523438 L 220.933594 146.664062 L 226.964844 146.664062 L 226.964844 141.675781 L 148.273438 141.675781 L 148.273438 146.664062 L 154.304688 146.664062 L 154.304688 187.523438 Z M 169.933594 187.523438 L 169.933594 146.664062 L 179.804688 146.664062 L 179.804688 187.523438 Z M 195.433594 187.523438 L 195.433594 146.664062 L 205.304688 146.664062 L 205.304688 187.523438 Z M 215.941406 146.664062 L 215.941406 187.523438 L 210.292969 187.523438 L 210.292969 146.664062 Z M 190.441406 146.664062 L 190.441406 187.523438 L 184.792969 187.523438 L 184.792969 146.664062 Z M 159.296875 146.664062 L 164.945312 146.664062 L 164.945312 187.523438 L 159.296875 187.523438 Z M 159.296875 146.664062 " fill-opacity="1" fill-rule="nonzero"/><path fill="#000000" d="M 231.269531 197.484375 L 143.964844 197.484375 C 142.589844 197.484375 141.472656 198.601562 141.472656 199.980469 C 141.472656 201.355469 142.589844 202.472656 143.964844 202.472656 L 231.269531 202.472656 C 232.648438 202.472656 233.765625 201.355469 233.765625 199.980469 C 233.765625 198.601562 232.648438 197.484375 231.269531 197.484375 Z M 231.269531 197.484375 " fill-opacity="1" fill-rule="nonzero"/><path fill="#000000" d="M 233.730469 133.867188 C 233.722656 133.808594 233.722656 133.742188 233.707031 133.683594 C 233.691406 133.597656 233.660156 133.519531 233.632812 133.4375 C 233.609375 133.367188 233.589844 133.289062 233.5625 133.222656 C 233.53125 133.148438 233.484375 133.078125 233.445312 133.007812 C 233.410156 132.9375 233.375 132.867188 233.332031 132.800781 C 233.289062 132.738281 233.234375 132.683594 233.183594 132.621094 C 233.128906 132.558594 233.082031 132.488281 233.019531 132.429688 C 232.976562 132.386719 232.921875 132.347656 232.871094 132.308594 C 232.792969 132.242188 232.71875 132.175781 232.632812 132.121094 C 232.625 132.113281 232.617188 132.105469 232.609375 132.101562 L 188.957031 104.320312 C 188.140625 103.800781 187.097656 103.800781 186.28125 104.320312 L 142.628906 132.101562 C 142.617188 132.105469 142.613281 132.113281 142.601562 132.121094 C 142.519531 132.175781 142.441406 132.242188 142.367188 132.308594 C 142.316406 132.347656 142.261719 132.386719 142.214844 132.429688 C 142.15625 132.488281 142.105469 132.558594 142.054688 132.621094 C 142.003906 132.683594 141.949219 132.738281 141.90625 132.800781 C 141.859375 132.867188 141.828125 132.9375 141.789062 133.007812 C 141.75 133.078125 141.707031 133.148438 141.675781 133.222656 C 141.644531 133.289062 141.628906 133.367188 141.605469 133.4375 C 141.578125 133.519531 141.546875 133.597656 141.527344 133.683594 C 141.515625 133.742188 141.515625 133.808594 141.503906 133.867188 C 141.492188 133.972656 141.476562 134.074219 141.476562 134.175781 C 141.476562 134.1875 141.472656 134.195312 141.472656 134.207031 C 141.472656 134.261719 141.484375 134.3125 141.488281 134.363281 C 141.496094 134.464844 141.5 134.566406 141.519531 134.667969 C 141.53125 134.746094 141.558594 134.816406 141.578125 134.890625 C 141.601562 134.972656 141.621094 135.054688 141.65625 135.136719 C 141.6875 135.222656 141.734375 135.300781 141.777344 135.382812 C 141.808594 135.4375 141.828125 135.492188 141.859375 135.546875 C 141.867188 135.554688 141.875 135.5625 141.882812 135.574219 C 141.929688 135.648438 141.992188 135.714844 142.046875 135.785156 C 142.097656 135.84375 142.140625 135.90625 142.195312 135.960938 C 142.238281 136.003906 142.289062 136.039062 142.332031 136.078125 C 142.410156 136.144531 142.484375 136.214844 142.566406 136.269531 C 142.601562 136.296875 142.644531 136.3125 142.683594 136.335938 C 142.78125 136.394531 142.878906 136.457031 142.984375 136.5 C 143.03125 136.519531 143.082031 136.53125 143.128906 136.546875 C 143.234375 136.585938 143.339844 136.621094 143.449219 136.644531 C 143.496094 136.65625 143.546875 136.65625 143.59375 136.664062 C 143.707031 136.679688 143.824219 136.699219 143.941406 136.699219 C 143.949219 136.699219 143.957031 136.699219 143.964844 136.699219 L 231.269531 136.699219 C 231.464844 136.699219 231.652344 136.671875 231.835938 136.628906 C 231.886719 136.621094 231.933594 136.601562 231.980469 136.585938 C 232.117188 136.546875 232.246094 136.496094 232.367188 136.4375 C 232.425781 136.410156 232.476562 136.378906 232.53125 136.347656 C 232.648438 136.277344 232.757812 136.199219 232.863281 136.109375 C 232.90625 136.074219 232.953125 136.042969 232.992188 136.003906 C 233.128906 135.875 233.253906 135.726562 233.359375 135.566406 C 233.363281 135.558594 233.371094 135.554688 233.375 135.546875 C 233.410156 135.492188 233.429688 135.433594 233.457031 135.378906 C 233.503906 135.300781 233.546875 135.21875 233.582031 135.132812 C 233.613281 135.054688 233.636719 134.972656 233.660156 134.890625 C 233.679688 134.816406 233.703125 134.742188 233.71875 134.667969 C 233.738281 134.566406 233.742188 134.464844 233.75 134.363281 C 233.753906 134.308594 233.765625 134.257812 233.765625 134.207031 C 233.765625 134.195312 233.761719 134.1875 233.761719 134.175781 C 233.761719 134.074219 233.746094 133.972656 233.730469 133.867188 Z M 187.617188 109.382812 L 222.703125 131.710938 L 152.535156 131.710938 Z M 187.617188 109.382812 " fill-opacity="1" fill-rule="nonzero"/><g clip-path="url(#80c43cc820)"><path fill="#000000" d="M 187.617188 83.554688 C 146.347656 83.554688 112.773438 117.128906 112.773438 158.398438 C 112.773438 199.667969 146.347656 233.242188 187.617188 233.242188 C 228.886719 233.242188 262.464844 199.667969 262.464844 158.398438 C 262.464844 117.128906 228.886719 83.554688 187.617188 83.554688 Z M 187.617188 228.253906 C 149.101562 228.253906 117.761719 196.917969 117.761719 158.398438 C 117.761719 119.878906 149.101562 88.542969 187.617188 88.542969 C 226.136719 88.542969 257.472656 119.878906 257.472656 158.398438 C 257.472656 196.917969 226.136719 228.253906 187.617188 228.253906 Z M 187.617188 228.253906 " fill-opacity="1" fill-rule="nonzero"/></g></svg>