<svg xmlns="http://www.w3.org/2000/svg" xmlns:xlink="http://www.w3.org/1999/xlink" width="500" zoomAndPan="magnify" viewBox="0 0 375 374.999991" height="500" preserveAspectRatio="xMidYMid meet" version="1.0"><defs><clipPath id="a16c746711"><path d="M 65.25 44.585938 L 309.480469 44.585938 L 309.480469 330.570312 L 65.25 330.570312 Z M 65.25 44.585938 " clip-rule="nonzero"/></clipPath><clipPath id="babfdac8ca"><path d="M 128.175781 95.316406 L 246.351562 95.316406 L 246.351562 246.800781 L 128.175781 246.800781 Z M 128.175781 95.316406 " clip-rule="nonzero"/></clipPath><clipPath id="4606448c4f"><path d="M 112.539062 83.765625 L 262.230469 83.765625 L 262.230469 233.453125 L 112.539062 233.453125 Z M 112.539062 83.765625 " clip-rule="nonzero"/></clipPath></defs><g clip-path="url(#a16c746711)"><path fill="#f16622" d="M 187.269531 44.558594 C 119.933594 44.558594 65.347656 99.140625 65.347656 166.476562 C 65.347656 201.523438 80.128906 233.113281 103.808594 255.359375 L 181.832031 328.664062 C 183.253906 330 185.167969 330.824219 187.277344 330.824219 C 189.382812 330.824219 191.296875 330 192.71875 328.664062 L 270.742188 255.359375 C 294.421875 233.121094 309.203125 201.53125 309.203125 166.476562 C 309.203125 99.140625 254.617188 44.558594 187.277344 44.558594 Z M 245.582031 219.496094 C 245.582031 225.351562 240.832031 230.101562 234.976562 230.101562 L 139.554688 230.101562 C 133.703125 230.101562 128.949219 225.351562 128.949219 219.496094 L 128.949219 161.183594 C 128.949219 155.324219 133.695312 150.578125 139.554688 150.578125 L 150.15625 150.578125 L 150.15625 134.671875 C 150.15625 114.210938 166.808594 97.558594 187.269531 97.558594 C 207.726562 97.558594 224.378906 114.210938 224.378906 134.671875 L 224.378906 150.578125 L 234.984375 150.578125 C 240.832031 150.578125 245.589844 155.324219 245.589844 161.183594 L 245.589844 219.496094 Z M 245.582031 219.496094 " fill-opacity="1" fill-rule="nonzero"/></g><path fill="#80cc28" d="M 187.269531 118.769531 C 178.5 118.769531 171.367188 125.910156 171.367188 134.675781 L 171.367188 150.585938 L 203.175781 150.585938 L 203.175781 134.675781 C 203.175781 125.910156 196.042969 118.769531 187.269531 118.769531 Z M 187.269531 118.769531 " fill-opacity="1" fill-rule="nonzero"/><path fill="#f16622" d="M 128.175781 95.316406 L 246.351562 95.316406 L 246.351562 246.800781 L 128.175781 246.800781 Z M 128.175781 95.316406 " fill-opacity="1" fill-rule="nonzero"/><g clip-path="url(#babfdac8ca)"><path fill="#f16622" d="M 128.175781 95.316406 L 246.351562 95.316406 L 246.351562 246.734375 L 128.175781 246.734375 Z M 128.175781 95.316406 " fill-opacity="1" fill-rule="nonzero"/></g><path fill="#ffffff" d="M 148.042969 187.734375 L 148.042969 192.71875 L 226.734375 192.71875 L 226.734375 187.734375 L 220.703125 187.734375 L 220.703125 146.871094 L 226.734375 146.871094 L 226.734375 141.886719 L 148.042969 141.886719 L 148.042969 146.871094 L 154.074219 146.871094 L 154.074219 187.734375 Z M 169.703125 187.734375 L 169.703125 146.871094 L 179.574219 146.871094 L 179.574219 187.734375 Z M 195.203125 187.734375 L 195.203125 146.871094 L 205.074219 146.871094 L 205.074219 187.734375 Z M 215.707031 146.871094 L 215.707031 187.734375 L 210.0625 187.734375 L 210.0625 146.871094 Z M 190.207031 146.871094 L 190.207031 187.734375 L 184.5625 187.734375 L 184.5625 146.871094 Z M 159.066406 146.871094 L 164.714844 146.871094 L 164.714844 187.734375 L 159.066406 187.734375 Z M 159.066406 146.871094 " fill-opacity="1" fill-rule="nonzero"/><path fill="#ffffff" d="M 231.039062 197.691406 L 143.730469 197.691406 C 142.359375 197.691406 141.242188 198.808594 141.242188 200.191406 C 141.242188 201.570312 142.359375 202.679688 143.730469 202.679688 L 231.039062 202.679688 C 232.417969 202.679688 233.535156 201.5625 233.535156 200.191406 C 233.535156 198.816406 232.417969 197.691406 231.039062 197.691406 Z M 231.039062 197.691406 " fill-opacity="1" fill-rule="nonzero"/><path fill="#ffffff" d="M 233.5 134.078125 C 233.492188 134.015625 233.492188 133.949219 233.476562 133.898438 C 233.460938 133.816406 233.429688 133.734375 233.402344 133.648438 C 233.378906 133.582031 233.355469 133.5 233.332031 133.433594 C 233.304688 133.359375 233.257812 133.289062 233.214844 133.214844 C 233.175781 133.148438 233.144531 133.074219 233.101562 133.003906 C 233.054688 132.945312 233.003906 132.886719 232.949219 132.824219 C 232.898438 132.765625 232.84375 132.691406 232.785156 132.628906 C 232.742188 132.585938 232.6875 132.546875 232.636719 132.511719 C 232.5625 132.441406 232.484375 132.375 232.394531 132.324219 C 232.386719 132.316406 232.378906 132.308594 232.375 132.300781 L 188.722656 104.519531 C 187.90625 104.003906 186.863281 104.003906 186.046875 104.519531 L 142.394531 132.300781 C 142.394531 132.300781 142.378906 132.316406 142.367188 132.324219 C 142.28125 132.375 142.207031 132.441406 142.132812 132.511719 C 142.082031 132.546875 142.027344 132.585938 141.984375 132.628906 C 141.921875 132.691406 141.871094 132.757812 141.824219 132.824219 C 141.78125 132.890625 141.71875 132.945312 141.675781 133.003906 C 141.628906 133.074219 141.601562 133.140625 141.554688 133.214844 C 141.511719 133.289062 141.472656 133.359375 141.441406 133.433594 C 141.414062 133.5 141.398438 133.574219 141.375 133.648438 C 141.34375 133.734375 141.316406 133.808594 141.300781 133.898438 C 141.285156 133.957031 141.285156 134.023438 141.277344 134.078125 C 141.261719 134.183594 141.25 134.289062 141.25 134.386719 C 141.25 134.398438 141.25 134.40625 141.25 134.414062 C 141.25 134.46875 141.261719 134.519531 141.261719 134.574219 C 141.269531 134.675781 141.277344 134.773438 141.292969 134.878906 C 141.308594 134.953125 141.332031 135.03125 141.351562 135.105469 C 141.375 135.1875 141.398438 135.269531 141.429688 135.351562 C 141.457031 135.433594 141.503906 135.515625 141.546875 135.601562 C 141.578125 135.652344 141.601562 135.710938 141.628906 135.765625 C 141.636719 135.773438 141.644531 135.78125 141.652344 135.796875 C 141.699219 135.871094 141.765625 135.9375 141.816406 136.003906 C 141.871094 136.066406 141.914062 136.125 141.96875 136.175781 C 142.011719 136.222656 142.066406 136.253906 142.101562 136.296875 C 142.179688 136.363281 142.253906 136.433594 142.335938 136.492188 C 142.375 136.523438 142.410156 136.539062 142.457031 136.558594 C 142.554688 136.621094 142.652344 136.679688 142.753906 136.726562 C 142.800781 136.746094 142.851562 136.753906 142.898438 136.769531 C 143.003906 136.808594 143.109375 136.84375 143.21875 136.867188 C 143.265625 136.882812 143.316406 136.882812 143.363281 136.890625 C 143.476562 136.90625 143.59375 136.925781 143.707031 136.925781 L 231.039062 136.925781 C 231.234375 136.925781 231.421875 136.898438 231.609375 136.859375 C 231.660156 136.851562 231.707031 136.828125 231.75 136.816406 C 231.886719 136.777344 232.011719 136.726562 232.140625 136.664062 C 232.199219 136.636719 232.253906 136.605469 232.304688 136.574219 C 232.425781 136.507812 232.53125 136.425781 232.636719 136.335938 C 232.679688 136.296875 232.726562 136.265625 232.761719 136.230469 C 232.898438 136.101562 233.027344 135.953125 233.128906 135.796875 C 233.128906 135.789062 233.144531 135.78125 233.144531 135.773438 C 233.183594 135.71875 233.199219 135.660156 233.226562 135.609375 C 233.273438 135.53125 233.316406 135.449219 233.355469 135.359375 C 233.386719 135.285156 233.40625 135.203125 233.429688 135.121094 C 233.453125 135.046875 233.476562 134.96875 233.492188 134.894531 C 233.511719 134.789062 233.511719 134.691406 233.519531 134.585938 C 233.519531 134.535156 233.535156 134.484375 233.535156 134.429688 C 233.535156 134.414062 233.535156 134.40625 233.535156 134.398438 C 233.535156 134.296875 233.519531 134.199219 233.503906 134.09375 Z M 187.386719 109.589844 L 222.472656 131.917969 L 152.304688 131.917969 Z M 187.386719 109.589844 " fill-opacity="1" fill-rule="nonzero"/><g clip-path="url(#4606448c4f)"><path fill="#ffffff" d="M 187.386719 83.765625 C 146.117188 83.765625 112.546875 117.34375 112.546875 158.609375 C 112.546875 199.875 146.125 233.453125 187.386719 233.453125 C 228.652344 233.453125 262.238281 199.875 262.238281 158.609375 C 262.238281 117.34375 228.660156 83.765625 187.386719 83.765625 Z M 187.386719 228.464844 C 148.875 228.464844 117.53125 197.128906 117.53125 158.609375 C 117.53125 120.089844 148.875 88.753906 187.386719 88.753906 C 225.902344 88.753906 257.242188 120.089844 257.242188 158.609375 C 257.242188 197.128906 225.90625 228.464844 187.386719 228.464844 Z M 187.386719 228.464844 " fill-opacity="1" fill-rule="nonzero"/></g></svg>