<svg width="254" height="256" viewBox="0 0 254 256" fill="none" xmlns="http://www.w3.org/2000/svg">
<path d="M0 40C0 17.9086 17.9086 0 40 0H214C236.091 0 254 17.9086 254 40V168C254 190.091 236.091 208 214 208H40C17.9086 208 0 190.091 0 168V40Z" fill="#4D4D4E"/>
<path d="M140 110C140 87.9086 167.908 85 190 85L230 75C252.091 75 270 92.9086 270 115V243C270 265.091 254 236 254 253C254 270 262.5 208 214 208C205.213 199.213 209 208 209 208C186.909 208 148 185.091 148 163L140 110Z" fill="#4D4D4E"/>
</svg>
