<svg xmlns="http://www.w3.org/2000/svg" xmlns:xlink="http://www.w3.org/1999/xlink" width="500" zoomAndPan="magnify" viewBox="0 0 375 374.999991" height="500" preserveAspectRatio="xMidYMid meet" version="1.0"><defs><clipPath id="70d65e6e58"><path d="M 126 52.914062 L 249 52.914062 L 249 176 L 126 176 Z M 126 52.914062 " clip-rule="nonzero"/></clipPath><clipPath id="b3038b5cd4"><path d="M 84 175 L 290 175 L 290 322.164062 L 84 322.164062 Z M 84 175 " clip-rule="nonzero"/></clipPath></defs><g clip-path="url(#70d65e6e58)"><path fill="#80cc28" d="M 248.0625 114.085938 C 248.0625 80.355469 220.621094 52.914062 186.886719 52.914062 C 105.734375 56.269531 105.757812 171.914062 186.886719 175.261719 C 220.621094 175.261719 248.0625 147.820312 248.0625 114.085938 Z M 137.949219 114.085938 C 137.949219 87.101562 159.902344 65.148438 186.886719 65.148438 C 251.722656 67.605469 251.707031 160.574219 186.886719 163.027344 C 159.902344 163.027344 137.949219 141.070312 137.949219 114.085938 Z M 137.949219 114.085938 " fill-opacity="1" fill-rule="nonzero"/></g><g clip-path="url(#b3038b5cd4)"><path fill="#80cc28" d="M 93.695312 218.40625 L 84.433594 301.703125 C 83.863281 306.882812 85.527344 312.085938 89.007812 315.96875 C 92.488281 319.855469 97.464844 322.082031 102.675781 322.082031 L 271.09375 322.082031 C 281.714844 322.3125 290.746094 312.238281 289.332031 301.703125 C 289.332031 301.703125 280.074219 218.40625 280.074219 218.40625 C 278.925781 208.058594 272.679688 199.089844 263.355469 194.421875 L 226.320312 175.910156 C 224.601562 175.046875 222.570312 175.046875 220.847656 175.910156 C 199.574219 186.542969 174.175781 186.542969 152.910156 175.910156 C 151.191406 175.046875 149.160156 175.046875 147.4375 175.910156 L 110.402344 194.421875 C 101.097656 199.089844 94.84375 208.050781 93.695312 218.40625 Z M 169.984375 309.84375 L 185.75 236.269531 C 186.503906 236.480469 187.261719 236.472656 188.019531 236.269531 L 203.789062 309.84375 Z M 176.507812 211.964844 L 197.277344 211.964844 C 199.054688 211.910156 199.8125 214.417969 198.304688 215.363281 L 186.886719 222.964844 L 175.472656 215.363281 C 173.972656 214.414062 174.714844 211.910156 176.507812 211.964844 Z M 115.890625 205.367188 L 150.25 188.1875 C 173.417969 198.753906 200.371094 198.757812 223.539062 188.1875 L 257.894531 205.367188 C 263.484375 208.160156 267.234375 213.542969 267.925781 219.761719 L 277.183594 303.054688 C 277.660156 306.566406 274.65625 309.9375 271.105469 309.84375 L 216.3125 309.84375 L 199.105469 229.53125 L 205.09375 225.535156 C 216.601562 218.195312 210.964844 199.472656 197.289062 199.726562 C 197.289062 199.726562 176.523438 199.726562 176.523438 199.726562 C 168.738281 199.730469 162.417969 206.050781 162.417969 213.820312 C 162.089844 221.613281 168.828125 225.949219 174.683594 229.535156 C 174.683594 229.535156 157.476562 309.851562 157.476562 309.851562 L 102.679688 309.851562 C 99.636719 309.851562 96.265625 307.191406 96.601562 303.0625 L 105.855469 219.765625 C 106.546875 213.542969 110.292969 208.160156 115.890625 205.367188 Z M 115.890625 205.367188 " fill-opacity="1" fill-rule="nonzero"/></g><path fill="#80cc28" d="M 131.832031 242.554688 L 156.300781 242.554688 C 164.296875 242.523438 164.308594 230.347656 156.300781 230.320312 C 156.300781 230.320312 131.832031 230.320312 131.832031 230.320312 C 123.835938 230.347656 123.824219 242.523438 131.832031 242.554688 Z M 131.832031 242.554688 " fill-opacity="1" fill-rule="nonzero"/></svg>