<svg xmlns="http://www.w3.org/2000/svg" xmlns:xlink="http://www.w3.org/1999/xlink" width="500" zoomAndPan="magnify" viewBox="0 0 375 374.999991" height="500" preserveAspectRatio="xMidYMid meet" version="1.0"><defs><clipPath id="0979c6225f"><path d="M 206 107 L 333.242188 107 L 333.242188 331 L 206 331 Z M 206 107 " clip-rule="nonzero"/></clipPath><clipPath id="8529ba3864"><path d="M 243 44.046875 L 297 44.046875 L 297 98 L 243 98 Z M 243 44.046875 " clip-rule="nonzero"/></clipPath><clipPath id="0519ffdff9"><path d="M 81 44.046875 L 136 44.046875 L 136 98 L 81 98 Z M 81 44.046875 " clip-rule="nonzero"/></clipPath></defs><g clip-path="url(#0979c6225f)"><path fill="#80cc28" d="M 238.40625 107.65625 L 307.121094 107.65625 C 321.671875 107.65625 333.464844 120.210938 333.464844 135.699219 L 333.464844 208.351562 C 333.464844 215.53125 327.996094 221.351562 321.25 221.351562 C 314.503906 221.351562 309.035156 215.53125 309.035156 208.351562 L 309.035156 135.699219 L 301.789062 135.699219 L 301.789062 316.339844 C 301.789062 324.417969 295.636719 330.96875 288.046875 330.96875 C 280.457031 330.96875 274.304688 324.417969 274.304688 316.339844 L 274.304688 225.429688 L 265.890625 225.429688 L 265.890625 316.339844 C 265.890625 324.417969 259.738281 330.96875 252.148438 330.96875 C 244.554688 330.96875 238.402344 324.417969 238.402344 316.339844 L 238.402344 135.699219 L 231.15625 135.699219 L 231.15625 208.351562 C 231.15625 215.53125 225.6875 221.351562 218.941406 221.351562 C 212.195312 221.351562 206.726562 215.53125 206.726562 208.351562 L 206.726562 135.699219 C 206.726562 120.210938 218.523438 107.65625 233.074219 107.65625 Z M 238.40625 107.65625 " fill-opacity="1" fill-rule="nonzero"/></g><g clip-path="url(#8529ba3864)"><path fill="#80cc28" d="M 297 70.949219 C 297 71.832031 296.957031 72.710938 296.871094 73.585938 C 296.785156 74.460938 296.65625 75.332031 296.484375 76.199219 C 296.3125 77.0625 296.097656 77.914062 295.84375 78.757812 C 295.585938 79.601562 295.289062 80.429688 294.953125 81.246094 C 294.617188 82.058594 294.238281 82.855469 293.824219 83.632812 C 293.410156 84.40625 292.957031 85.164062 292.464844 85.894531 C 291.976562 86.628906 291.453125 87.335938 290.894531 88.015625 C 290.335938 88.699219 289.742188 89.347656 289.121094 89.972656 C 288.496094 90.59375 287.847656 91.1875 287.164062 91.746094 C 286.484375 92.304688 285.777344 92.828125 285.042969 93.316406 C 284.3125 93.808594 283.558594 94.261719 282.78125 94.675781 C 282.003906 95.089844 281.207031 95.46875 280.394531 95.804688 C 279.578125 96.140625 278.75 96.4375 277.90625 96.695312 C 277.0625 96.949219 276.210938 97.164062 275.347656 97.335938 C 274.480469 97.507812 273.613281 97.636719 272.734375 97.722656 C 271.859375 97.808594 270.980469 97.851562 270.097656 97.851562 C 269.214844 97.851562 268.335938 97.808594 267.460938 97.722656 C 266.582031 97.636719 265.714844 97.507812 264.847656 97.335938 C 263.984375 97.164062 263.132812 96.949219 262.289062 96.695312 C 261.445312 96.4375 260.617188 96.140625 259.800781 95.804688 C 258.988281 95.46875 258.191406 95.089844 257.414062 94.675781 C 256.636719 94.261719 255.882812 93.808594 255.152344 93.316406 C 254.417969 92.828125 253.710938 92.304688 253.03125 91.746094 C 252.347656 91.1875 251.695312 90.59375 251.074219 89.972656 C 250.449219 89.347656 249.859375 88.699219 249.300781 88.015625 C 248.742188 87.335938 248.21875 86.628906 247.726562 85.894531 C 247.238281 85.164062 246.785156 84.40625 246.371094 83.632812 C 245.957031 82.855469 245.578125 82.058594 245.242188 81.246094 C 244.90625 80.429688 244.609375 79.601562 244.351562 78.757812 C 244.097656 77.914062 243.882812 77.0625 243.710938 76.199219 C 243.539062 75.332031 243.410156 74.460938 243.324219 73.585938 C 243.238281 72.710938 243.195312 71.832031 243.195312 70.949219 C 243.195312 70.066406 243.238281 69.1875 243.324219 68.3125 C 243.410156 67.433594 243.539062 66.566406 243.710938 65.699219 C 243.882812 64.835938 244.097656 63.984375 244.351562 63.140625 C 244.609375 62.296875 244.90625 61.46875 245.242188 60.652344 C 245.578125 59.839844 245.957031 59.042969 246.371094 58.265625 C 246.785156 57.488281 247.238281 56.734375 247.726562 56.003906 C 248.21875 55.269531 248.742188 54.5625 249.300781 53.882812 C 249.859375 53.199219 250.449219 52.546875 251.074219 51.925781 C 251.695312 51.300781 252.347656 50.710938 253.03125 50.152344 C 253.710938 49.59375 254.417969 49.070312 255.152344 48.578125 C 255.882812 48.089844 256.636719 47.636719 257.414062 47.222656 C 258.191406 46.808594 258.988281 46.429688 259.800781 46.09375 C 260.617188 45.757812 261.445312 45.460938 262.289062 45.203125 C 263.132812 44.949219 263.984375 44.734375 264.847656 44.5625 C 265.714844 44.390625 266.582031 44.261719 267.460938 44.175781 C 268.335938 44.089844 269.214844 44.046875 270.097656 44.046875 C 270.980469 44.046875 271.859375 44.089844 272.734375 44.175781 C 273.613281 44.261719 274.480469 44.390625 275.347656 44.5625 C 276.210938 44.734375 277.0625 44.949219 277.90625 45.203125 C 278.75 45.460938 279.578125 45.757812 280.394531 46.09375 C 281.207031 46.429688 282.003906 46.808594 282.78125 47.222656 C 283.558594 47.636719 284.3125 48.089844 285.042969 48.578125 C 285.777344 49.070312 286.484375 49.59375 287.164062 50.152344 C 287.847656 50.710938 288.496094 51.300781 289.121094 51.925781 C 289.742188 52.546875 290.335938 53.199219 290.894531 53.882812 C 291.453125 54.5625 291.976562 55.269531 292.464844 56.003906 C 292.957031 56.734375 293.410156 57.488281 293.824219 58.265625 C 294.238281 59.042969 294.617188 59.839844 294.953125 60.652344 C 295.289062 61.46875 295.585938 62.296875 295.84375 63.140625 C 296.097656 63.984375 296.3125 64.835938 296.484375 65.699219 C 296.65625 66.566406 296.785156 67.433594 296.871094 68.3125 C 296.957031 69.1875 297 70.066406 297 70.949219 Z M 297 70.949219 " fill-opacity="1" fill-rule="nonzero"/></g><g clip-path="url(#0519ffdff9)"><path fill="#80cc28" d="M 135.367188 70.949219 C 135.367188 71.832031 135.324219 72.710938 135.238281 73.585938 C 135.152344 74.460938 135.023438 75.332031 134.851562 76.199219 C 134.679688 77.0625 134.464844 77.914062 134.207031 78.757812 C 133.953125 79.601562 133.65625 80.429688 133.320312 81.246094 C 132.980469 82.058594 132.605469 82.855469 132.191406 83.632812 C 131.773438 84.40625 131.324219 85.164062 130.832031 85.894531 C 130.34375 86.628906 129.820312 87.335938 129.261719 88.015625 C 128.699219 88.699219 128.109375 89.347656 127.488281 89.972656 C 126.863281 90.59375 126.210938 91.1875 125.53125 91.746094 C 124.851562 92.304688 124.144531 92.828125 123.410156 93.316406 C 122.675781 93.808594 121.921875 94.261719 121.144531 94.675781 C 120.367188 95.089844 119.574219 95.46875 118.757812 95.804688 C 117.945312 96.140625 117.117188 96.4375 116.273438 96.695312 C 115.429688 96.949219 114.578125 97.164062 113.710938 97.335938 C 112.847656 97.507812 111.976562 97.636719 111.101562 97.722656 C 110.222656 97.808594 109.34375 97.851562 108.464844 97.851562 C 107.582031 97.851562 106.703125 97.808594 105.828125 97.722656 C 104.949219 97.636719 104.078125 97.507812 103.214844 97.335938 C 102.351562 97.164062 101.496094 96.949219 100.652344 96.695312 C 99.8125 96.4375 98.980469 96.140625 98.167969 95.804688 C 97.355469 95.46875 96.558594 95.089844 95.78125 94.675781 C 95.003906 94.261719 94.25 93.808594 93.515625 93.316406 C 92.785156 92.828125 92.078125 92.304688 91.394531 91.746094 C 90.714844 91.1875 90.0625 90.59375 89.441406 89.972656 C 88.816406 89.347656 88.226562 88.699219 87.667969 88.015625 C 87.109375 87.335938 86.582031 86.628906 86.09375 85.894531 C 85.605469 85.164062 85.152344 84.40625 84.738281 83.632812 C 84.320312 82.855469 83.945312 82.058594 83.609375 81.246094 C 83.269531 80.429688 82.972656 79.601562 82.71875 78.757812 C 82.464844 77.914062 82.25 77.0625 82.078125 76.199219 C 81.90625 75.332031 81.777344 74.460938 81.691406 73.585938 C 81.601562 72.710938 81.558594 71.832031 81.558594 70.949219 C 81.558594 70.066406 81.601562 69.1875 81.691406 68.3125 C 81.777344 67.433594 81.90625 66.566406 82.078125 65.699219 C 82.25 64.835938 82.464844 63.984375 82.71875 63.140625 C 82.972656 62.296875 83.269531 61.46875 83.609375 60.652344 C 83.945312 59.839844 84.320312 59.042969 84.738281 58.265625 C 85.152344 57.488281 85.605469 56.734375 86.09375 56.003906 C 86.582031 55.269531 87.109375 54.5625 87.667969 53.882812 C 88.226562 53.199219 88.816406 52.546875 89.441406 51.925781 C 90.0625 51.300781 90.714844 50.710938 91.394531 50.152344 C 92.078125 49.59375 92.785156 49.070312 93.515625 48.578125 C 94.25 48.089844 95.003906 47.636719 95.78125 47.222656 C 96.558594 46.808594 97.355469 46.429688 98.167969 46.09375 C 98.980469 45.757812 99.8125 45.460938 100.652344 45.203125 C 101.496094 44.949219 102.351562 44.734375 103.214844 44.5625 C 104.078125 44.390625 104.949219 44.261719 105.828125 44.175781 C 106.703125 44.089844 107.582031 44.046875 108.464844 44.046875 C 109.34375 44.046875 110.222656 44.089844 111.101562 44.175781 C 111.976562 44.261719 112.847656 44.390625 113.710938 44.5625 C 114.578125 44.734375 115.429688 44.949219 116.273438 45.203125 C 117.117188 45.460938 117.945312 45.757812 118.757812 46.09375 C 119.574219 46.429688 120.367188 46.808594 121.144531 47.222656 C 121.921875 47.636719 122.675781 48.089844 123.410156 48.578125 C 124.144531 49.070312 124.851562 49.59375 125.53125 50.152344 C 126.210938 50.710938 126.863281 51.300781 127.488281 51.925781 C 128.109375 52.546875 128.699219 53.199219 129.261719 53.882812 C 129.820312 54.5625 130.34375 55.269531 130.832031 56.003906 C 131.324219 56.734375 131.773438 57.488281 132.191406 58.265625 C 132.605469 59.042969 132.980469 59.839844 133.320312 60.652344 C 133.65625 61.46875 133.953125 62.296875 134.207031 63.140625 C 134.464844 63.984375 134.679688 64.835938 134.851562 65.699219 C 135.023438 66.566406 135.152344 67.433594 135.238281 68.3125 C 135.324219 69.1875 135.367188 70.066406 135.367188 70.949219 Z M 135.367188 70.949219 " fill-opacity="1" fill-rule="nonzero"/></g><path fill="#80cc28" d="M 56.597656 133.285156 L 57.988281 126.382812 C 60.179688 115.492188 69.75 107.660156 80.863281 107.660156 L 136.066406 107.660156 C 147.175781 107.660156 156.746094 115.492188 158.941406 126.382812 L 160.332031 133.285156 L 174.21875 202.214844 C 175.398438 208.078125 171.601562 213.792969 165.738281 214.972656 C 159.871094 216.15625 154.160156 212.359375 152.976562 206.492188 L 138.226562 133.285156 L 131.691406 133.285156 L 134.855469 160.644531 C 135.359375 165 136.214844 169.3125 137.414062 173.53125 L 156.726562 237.117188 C 157.445312 239.488281 155.671875 241.882812 153.195312 241.882812 L 137.652344 241.882812 L 137.652344 317.085938 C 137.652344 323.839844 132.171875 329.320312 125.414062 329.320312 C 118.65625 329.320312 113.179688 323.839844 113.179688 317.085938 L 113.179688 241.882812 L 103.746094 241.882812 L 103.746094 317.085938 C 103.746094 323.839844 98.269531 329.320312 91.511719 329.320312 C 84.753906 329.320312 79.273438 323.839844 79.273438 317.085938 L 79.273438 241.882812 L 63.734375 241.882812 C 61.253906 241.882812 59.480469 239.488281 60.199219 237.117188 L 79.511719 173.53125 C 80.710938 169.3125 81.566406 165 82.070312 160.644531 L 85.234375 133.285156 L 78.699219 133.285156 L 63.949219 206.492188 C 62.769531 212.359375 57.054688 216.15625 51.191406 214.972656 C 45.324219 213.792969 41.527344 208.078125 42.710938 202.214844 Z M 56.597656 133.285156 " fill-opacity="1" fill-rule="nonzero"/></svg>