<svg width="346" height="158" viewBox="0 0 346 158" fill="none" xmlns="http://www.w3.org/2000/svg">
<mask id="mask0_3428_4591" style="mask-type:alpha" maskUnits="userSpaceOnUse" x="0" y="0" width="346" height="158">
<path d="M0 22C0 9.84974 9.84974 0 22 0H324C336.15 0 346 9.84974 346 22V136C346 148.15 336.15 158 324 158H22C9.84973 158 0 148.15 0 136V22Z" fill="#DD6538"/>
</mask>
<g mask="url(#mask0_3428_4591)">
<path opacity="0.2" d="M284.607 63.238L283.582 66.0186C272.946 67.0738 263.218 70.156 254.397 75.2649C252.599 76.3034 250.868 77.4089 249.205 78.5982V158.783L235.931 194.596L284.607 63.238ZM334.829 78.5815C333.165 77.4089 331.435 76.2867 329.637 75.2649C320.883 70.2062 311.255 67.1241 300.72 66.0521L299.679 63.238L334.829 158.415V78.5815ZM348.472 198.08C351.261 194.596 353.765 190.76 355.983 186.606C362.435 174.545 365.661 160.575 365.661 144.662C365.661 128.749 362.435 114.83 355.983 102.853C354.487 100.072 352.857 97.4426 351.11 94.9635V175.751C351.11 184.009 350.22 191.447 348.472 198.063V198.08ZM218.356 144.662C218.356 160.559 221.582 174.545 228.034 186.606C239.796 208.599 232.89 188.365 232.89 175.785V94.997C231.143 97.4761 229.53 100.106 228.034 102.87C221.582 114.846 218.356 128.766 218.356 144.679V144.662ZM339.685 251.933L320.765 236.305C311.625 238.985 302.048 240.325 292 240.325C274.627 240.325 258.849 236.254 244.702 228.13C230.538 220.006 219.398 208.666 211.232 194.093C203.083 179.537 199 163.055 199 144.662C199 126.27 203.083 109.788 211.232 95.2315C219.381 80.6753 230.538 69.3352 244.702 61.1944C258.866 53.0704 274.627 49 292 49C309.373 49 325.42 53.0704 339.567 61.1944C353.731 69.3184 364.837 80.6585 372.902 95.2315C380.967 109.788 385 126.27 385 144.662C385 163.055 380.783 180.442 372.365 195.165C363.947 209.906 352.387 221.196 337.685 229.068L363.359 252L339.668 251.933H339.685ZM300.603 151.932H318.396L292.05 79.9885L265.705 151.932H283.431C283.145 151.061 282.994 150.14 282.994 149.185C282.994 144.21 287.027 140.19 292.017 140.19C297.007 140.19 301.04 144.21 301.04 149.185C301.04 150.14 300.888 151.061 300.603 151.932ZM318.396 151.932H300.603C299.443 155.55 296.033 158.18 292.017 158.18C288.001 158.18 284.59 155.55 283.431 151.932H265.705L250.045 194.562L250.835 192.418C252.633 200.475 255.926 206.907 260.714 211.715C268.393 219.454 278.911 223.323 292.252 223.323C305.593 223.323 316.027 219.487 323.554 211.832C328.276 207.041 331.502 200.559 333.266 192.385L318.413 151.915L318.396 151.932Z" fill="white"/>
</g>
</svg>
