<svg xmlns="http://www.w3.org/2000/svg" xmlns:xlink="http://www.w3.org/1999/xlink" width="500" zoomAndPan="magnify" viewBox="0 0 375 374.999991" height="500" preserveAspectRatio="xMidYMid meet" version="1.0"><defs><clipPath id="fadb56c633"><path d="M 53.460938 53.460938 L 321.210938 53.460938 L 321.210938 321.210938 L 53.460938 321.210938 Z M 53.460938 53.460938 " clip-rule="nonzero"/></clipPath></defs><g clip-path="url(#fadb56c633)"><path fill="#80cc28" d="M 321.527344 187.496094 C 321.527344 189.6875 321.476562 191.882812 321.367188 194.070312 C 321.257812 196.261719 321.097656 198.449219 320.882812 200.632812 C 320.667969 202.816406 320.398438 204.992188 320.078125 207.160156 C 319.757812 209.332031 319.382812 211.492188 318.953125 213.644531 C 318.523438 215.796875 318.042969 217.933594 317.511719 220.0625 C 316.980469 222.191406 316.394531 224.304688 315.757812 226.402344 C 315.121094 228.503906 314.433594 230.585938 313.695312 232.648438 C 312.953125 234.714844 312.164062 236.761719 311.324219 238.789062 C 310.484375 240.8125 309.597656 242.820312 308.660156 244.800781 C 307.722656 246.785156 306.734375 248.742188 305.703125 250.679688 C 304.667969 252.613281 303.585938 254.519531 302.460938 256.402344 C 301.332031 258.285156 300.160156 260.136719 298.941406 261.960938 C 297.722656 263.785156 296.457031 265.578125 295.152344 267.339844 C 293.84375 269.101562 292.496094 270.828125 291.105469 272.523438 C 289.710938 274.21875 288.28125 275.882812 286.808594 277.507812 C 285.335938 279.132812 283.820312 280.71875 282.269531 282.269531 C 280.71875 283.820312 279.132812 285.335938 277.507812 286.808594 C 275.882812 288.28125 274.21875 289.710938 272.523438 291.105469 C 270.828125 292.496094 269.101562 293.84375 267.339844 295.152344 C 265.578125 296.457031 263.785156 297.722656 261.960938 298.941406 C 260.136719 300.160156 258.285156 301.332031 256.402344 302.460938 C 254.519531 303.585938 252.613281 304.667969 250.679688 305.703125 C 248.742188 306.734375 246.785156 307.722656 244.800781 308.660156 C 242.820312 309.597656 240.8125 310.488281 238.789062 311.324219 C 236.761719 312.164062 234.714844 312.953125 232.648438 313.695312 C 230.585938 314.433594 228.503906 315.121094 226.402344 315.757812 C 224.304688 316.394531 222.191406 316.980469 220.0625 317.511719 C 217.933594 318.042969 215.796875 318.523438 213.644531 318.953125 C 211.492188 319.382812 209.332031 319.757812 207.160156 320.078125 C 204.992188 320.398438 202.816406 320.667969 200.632812 320.882812 C 198.449219 321.097656 196.261719 321.257812 194.070312 321.367188 C 191.882812 321.476562 189.6875 321.527344 187.496094 321.527344 C 185.300781 321.527344 183.109375 321.476562 180.917969 321.367188 C 178.726562 321.257812 176.539062 321.097656 174.359375 320.882812 C 172.175781 320.667969 170 320.398438 167.828125 320.078125 C 165.660156 319.757812 163.5 319.382812 161.347656 318.953125 C 159.195312 318.523438 157.054688 318.042969 154.929688 317.511719 C 152.800781 316.980469 150.6875 316.394531 148.585938 315.757812 C 146.488281 315.121094 144.40625 314.433594 142.339844 313.695312 C 140.277344 312.953125 138.230469 312.164062 136.203125 311.324219 C 134.175781 310.488281 132.171875 309.597656 130.1875 308.660156 C 128.207031 307.722656 126.246094 306.734375 124.3125 305.703125 C 122.378906 304.667969 120.46875 303.585938 118.589844 302.460938 C 116.707031 301.332031 114.855469 300.160156 113.03125 298.941406 C 111.207031 297.722656 109.414062 296.457031 107.652344 295.152344 C 105.890625 293.84375 104.160156 292.496094 102.464844 291.105469 C 100.769531 289.710938 99.109375 288.28125 97.484375 286.808594 C 95.859375 285.335938 94.269531 283.820312 92.71875 282.269531 C 91.167969 280.71875 89.65625 279.132812 88.183594 277.507812 C 86.710938 275.882812 85.277344 274.21875 83.886719 272.523438 C 82.496094 270.828125 81.144531 269.101562 79.839844 267.339844 C 78.53125 265.578125 77.269531 263.785156 76.050781 261.960938 C 74.832031 260.136719 73.660156 258.285156 72.53125 256.402344 C 71.402344 254.519531 70.324219 252.613281 69.289062 250.679688 C 68.253906 248.742188 67.269531 246.785156 66.332031 244.800781 C 65.394531 242.820312 64.503906 240.8125 63.664062 238.789062 C 62.824219 236.761719 62.035156 234.714844 61.296875 232.648438 C 60.558594 230.585938 59.871094 228.503906 59.234375 226.402344 C 58.597656 224.304688 58.011719 222.191406 57.480469 220.0625 C 56.945312 217.933594 56.464844 215.796875 56.039062 213.644531 C 55.609375 211.492188 55.234375 209.332031 54.914062 207.160156 C 54.589844 204.992188 54.324219 202.816406 54.109375 200.632812 C 53.890625 198.449219 53.730469 196.261719 53.625 194.070312 C 53.515625 191.882812 53.460938 189.6875 53.460938 187.496094 C 53.460938 185.300781 53.515625 183.109375 53.625 180.917969 C 53.730469 178.726562 53.890625 176.539062 54.109375 174.359375 C 54.324219 172.175781 54.589844 170 54.914062 167.828125 C 55.234375 165.660156 55.609375 163.5 56.039062 161.347656 C 56.464844 159.195312 56.945312 157.054688 57.480469 154.929688 C 58.011719 152.800781 58.597656 150.6875 59.234375 148.585938 C 59.871094 146.488281 60.558594 144.40625 61.296875 142.339844 C 62.035156 140.277344 62.824219 138.230469 63.664062 136.203125 C 64.503906 134.175781 65.394531 132.171875 66.332031 130.1875 C 67.269531 128.207031 68.253906 126.246094 69.289062 124.3125 C 70.324219 122.378906 71.402344 120.46875 72.53125 118.589844 C 73.660156 116.707031 74.832031 114.855469 76.050781 113.03125 C 77.269531 111.207031 78.53125 109.414062 79.839844 107.652344 C 81.144531 105.890625 82.496094 104.160156 83.886719 102.464844 C 85.277344 100.769531 86.710938 99.109375 88.183594 97.484375 C 89.65625 95.859375 91.167969 94.269531 92.71875 92.71875 C 94.269531 91.167969 95.859375 89.65625 97.484375 88.183594 C 99.109375 86.710938 100.769531 85.277344 102.464844 83.886719 C 104.160156 82.496094 105.890625 81.144531 107.652344 79.839844 C 109.414062 78.53125 111.207031 77.269531 113.03125 76.050781 C 114.855469 74.832031 116.707031 73.660156 118.589844 72.53125 C 120.46875 71.402344 122.378906 70.324219 124.3125 69.289062 C 126.246094 68.253906 128.207031 67.269531 130.1875 66.332031 C 132.171875 65.394531 134.175781 64.503906 136.203125 63.664062 C 138.230469 62.824219 140.277344 62.035156 142.339844 61.296875 C 144.40625 60.558594 146.488281 59.871094 148.585938 59.234375 C 150.6875 58.597656 152.800781 58.011719 154.929688 57.480469 C 157.054688 56.945312 159.195312 56.464844 161.347656 56.039062 C 163.5 55.609375 165.660156 55.234375 167.828125 54.914062 C 170 54.589844 172.175781 54.324219 174.359375 54.109375 C 176.539062 53.890625 178.726562 53.730469 180.917969 53.625 C 183.109375 53.515625 185.300781 53.460938 187.496094 53.460938 C 189.6875 53.460938 191.882812 53.515625 194.070312 53.625 C 196.261719 53.730469 198.449219 53.890625 200.632812 54.109375 C 202.816406 54.324219 204.992188 54.589844 207.160156 54.914062 C 209.332031 55.234375 211.492188 55.609375 213.644531 56.039062 C 215.796875 56.464844 217.933594 56.945312 220.0625 57.480469 C 222.191406 58.011719 224.304688 58.597656 226.402344 59.234375 C 228.503906 59.871094 230.585938 60.558594 232.648438 61.296875 C 234.714844 62.035156 236.761719 62.824219 238.789062 63.664062 C 240.8125 64.503906 242.820312 65.394531 244.800781 66.332031 C 246.785156 67.269531 248.742188 68.253906 250.679688 69.289062 C 252.613281 70.324219 254.519531 71.402344 256.402344 72.53125 C 258.285156 73.660156 260.136719 74.832031 261.960938 76.050781 C 263.785156 77.269531 265.578125 78.53125 267.339844 79.839844 C 269.101562 81.144531 270.828125 82.496094 272.523438 83.886719 C 274.21875 85.277344 275.882812 86.710938 277.507812 88.183594 C 279.132812 89.65625 280.71875 91.167969 282.269531 92.71875 C 283.820312 94.269531 285.335938 95.859375 286.808594 97.484375 C 288.28125 99.109375 289.710938 100.769531 291.105469 102.464844 C 292.496094 104.160156 293.84375 105.890625 295.152344 107.652344 C 296.457031 109.414062 297.722656 111.207031 298.941406 113.03125 C 300.160156 114.855469 301.332031 116.707031 302.460938 118.589844 C 303.585938 120.46875 304.667969 122.378906 305.703125 124.3125 C 306.734375 126.246094 307.722656 128.207031 308.660156 130.1875 C 309.597656 132.171875 310.488281 134.175781 311.324219 136.203125 C 312.164062 138.230469 312.953125 140.277344 313.695312 142.339844 C 314.433594 144.40625 315.121094 146.488281 315.757812 148.585938 C 316.394531 150.6875 316.980469 152.800781 317.511719 154.929688 C 318.042969 157.054688 318.523438 159.195312 318.953125 161.347656 C 319.382812 163.5 319.757812 165.660156 320.078125 167.828125 C 320.398438 170 320.667969 172.175781 320.882812 174.359375 C 321.097656 176.539062 321.257812 178.726562 321.367188 180.917969 C 321.476562 183.109375 321.527344 185.300781 321.527344 187.496094 Z M 321.527344 187.496094 " fill-opacity="1" fill-rule="nonzero"/></g><path fill="#000000" d="M 242.179688 106.539062 L 132.808594 106.539062 L 132.808594 128.359375 L 169.910156 128.359375 C 174.359375 128.679688 178.273438 129.808594 181.703125 131.792969 C 185.832031 134.148438 188.996094 137.527344 191.25 141.925781 C 191.945312 143.316406 192.535156 144.820312 193.015625 146.375 L 132.808594 146.375 L 132.808594 167.980469 L 193.125 167.980469 C 192.589844 169.695312 192 171.304688 191.195312 172.804688 C 188.941406 177.203125 185.726562 180.578125 181.597656 182.9375 C 177.46875 185.296875 172.644531 186.421875 167.175781 186.421875 L 132.808594 186.421875 L 132.808594 208.242188 L 165.78125 208.242188 C 167.335938 208.242188 168.890625 208.191406 170.394531 208.136719 L 203.953125 268.453125 L 232.796875 268.453125 L 194.570312 202.238281 C 202.292969 198.378906 208.296875 192.964844 212.53125 185.886719 C 215.75 180.632812 217.734375 174.628906 218.589844 168.035156 L 242.179688 168.035156 L 242.179688 146.425781 L 217.679688 146.425781 C 216.714844 142.246094 215.320312 138.332031 213.445312 134.738281 C 212.265625 132.433594 210.871094 130.34375 209.371094 128.414062 L 242.179688 128.414062 Z M 242.179688 106.539062 " fill-opacity="1" fill-rule="nonzero"/></svg>