<svg xmlns="http://www.w3.org/2000/svg" xmlns:xlink="http://www.w3.org/1999/xlink" width="500" zoomAndPan="magnify" viewBox="0 0 375 374.999991" height="500" preserveAspectRatio="xMidYMid meet" version="1.0"><defs><clipPath id="b3956e8a8d"><path d="M 112.5 112.5 L 262.5 112.5 L 262.5 262.5 L 112.5 262.5 Z M 112.5 112.5 " clip-rule="nonzero"/></clipPath></defs><g clip-path="url(#b3956e8a8d)"><path fill="#ff6303" d="M 187.5 112.5 C 186.273438 112.5 185.046875 112.53125 183.820312 112.589844 C 182.59375 112.652344 181.371094 112.742188 180.148438 112.859375 C 178.925781 112.980469 177.710938 113.132812 176.496094 113.3125 C 175.28125 113.492188 174.070312 113.703125 172.867188 113.941406 C 171.664062 114.179688 170.46875 114.449219 169.277344 114.746094 C 168.085938 115.046875 166.902344 115.375 165.730469 115.730469 C 164.554688 116.085938 163.390625 116.46875 162.234375 116.882812 C 161.078125 117.296875 159.933594 117.738281 158.796875 118.210938 C 157.664062 118.679688 156.542969 119.175781 155.433594 119.699219 C 154.324219 120.226562 153.226562 120.777344 152.144531 121.355469 C 151.0625 121.933594 149.996094 122.539062 148.941406 123.171875 C 147.890625 123.800781 146.851562 124.457031 145.832031 125.140625 C 144.8125 125.820312 143.808594 126.527344 142.824219 127.257812 C 141.835938 127.992188 140.871094 128.746094 139.921875 129.523438 C 138.972656 130.304688 138.042969 131.105469 137.132812 131.929688 C 136.222656 132.753906 135.335938 133.597656 134.46875 134.46875 C 133.597656 135.335938 132.753906 136.222656 131.929688 137.132812 C 131.105469 138.042969 130.304688 138.972656 129.523438 139.921875 C 128.746094 140.871094 127.992188 141.835938 127.257812 142.824219 C 126.527344 143.808594 125.820312 144.8125 125.140625 145.832031 C 124.457031 146.851562 123.800781 147.890625 123.171875 148.941406 C 122.539062 149.996094 121.933594 151.0625 121.355469 152.144531 C 120.777344 153.226562 120.226562 154.324219 119.699219 155.433594 C 119.175781 156.542969 118.679688 157.664062 118.210938 158.796875 C 117.738281 159.933594 117.296875 161.078125 116.882812 162.234375 C 116.46875 163.390625 116.085938 164.554688 115.730469 165.730469 C 115.375 166.902344 115.046875 168.085938 114.746094 169.277344 C 114.449219 170.46875 114.179688 171.664062 113.941406 172.867188 C 113.703125 174.070312 113.492188 175.28125 113.3125 176.496094 C 113.132812 177.710938 112.980469 178.925781 112.859375 180.148438 C 112.742188 181.371094 112.652344 182.59375 112.589844 183.820312 C 112.53125 185.046875 112.5 186.273438 112.5 187.5 C 112.5 188.726562 112.53125 189.953125 112.589844 191.179688 C 112.652344 192.40625 112.742188 193.628906 112.859375 194.851562 C 112.980469 196.074219 113.132812 197.289062 113.3125 198.503906 C 113.492188 199.71875 113.703125 200.929688 113.941406 202.132812 C 114.179688 203.335938 114.449219 204.53125 114.746094 205.722656 C 115.046875 206.914062 115.375 208.097656 115.730469 209.269531 C 116.085938 210.445312 116.46875 211.609375 116.882812 212.765625 C 117.296875 213.921875 117.738281 215.066406 118.210938 216.203125 C 118.679688 217.335938 119.175781 218.457031 119.699219 219.566406 C 120.226562 220.675781 120.777344 221.773438 121.355469 222.855469 C 121.933594 223.9375 122.539062 225.003906 123.171875 226.058594 C 123.800781 227.109375 124.457031 228.148438 125.140625 229.167969 C 125.820312 230.1875 126.527344 231.191406 127.257812 232.175781 C 127.992188 233.164062 128.746094 234.128906 129.523438 235.078125 C 130.304688 236.027344 131.105469 236.957031 131.929688 237.867188 C 132.753906 238.777344 133.597656 239.664062 134.46875 240.53125 C 135.335938 241.402344 136.222656 242.246094 137.132812 243.070312 C 138.042969 243.894531 138.972656 244.695312 139.921875 245.476562 C 140.871094 246.253906 141.835938 247.007812 142.824219 247.742188 C 143.808594 248.472656 144.8125 249.179688 145.832031 249.859375 C 146.851562 250.542969 147.890625 251.199219 148.941406 251.828125 C 149.996094 252.460938 151.0625 253.066406 152.144531 253.644531 C 153.226562 254.222656 154.324219 254.773438 155.433594 255.300781 C 156.542969 255.824219 157.664062 256.320312 158.796875 256.789062 C 159.933594 257.261719 161.078125 257.703125 162.234375 258.117188 C 163.390625 258.527344 164.554688 258.914062 165.730469 259.269531 C 166.902344 259.625 168.085938 259.953125 169.277344 260.253906 C 170.46875 260.550781 171.664062 260.820312 172.867188 261.058594 C 174.070312 261.296875 175.28125 261.507812 176.496094 261.6875 C 177.710938 261.867188 178.925781 262.019531 180.148438 262.140625 C 181.371094 262.257812 182.59375 262.347656 183.820312 262.410156 C 185.046875 262.46875 186.273438 262.5 187.5 262.5 C 188.726562 262.5 189.953125 262.46875 191.179688 262.410156 C 192.40625 262.347656 193.628906 262.257812 194.851562 262.140625 C 196.074219 262.019531 197.289062 261.867188 198.503906 261.6875 C 199.71875 261.507812 200.929688 261.296875 202.132812 261.058594 C 203.335938 260.820312 204.53125 260.550781 205.722656 260.253906 C 206.914062 259.953125 208.097656 259.625 209.269531 259.269531 C 210.445312 258.914062 211.609375 258.527344 212.765625 258.117188 C 213.921875 257.703125 215.066406 257.261719 216.203125 256.789062 C 217.335938 256.320312 218.457031 255.824219 219.566406 255.300781 C 220.675781 254.773438 221.773438 254.222656 222.855469 253.644531 C 223.9375 253.066406 225.003906 252.460938 226.058594 251.828125 C 227.109375 251.199219 228.148438 250.542969 229.167969 249.859375 C 230.1875 249.179688 231.191406 248.472656 232.175781 247.742188 C 233.164062 247.007812 234.128906 246.253906 235.078125 245.476562 C 236.027344 244.695312 236.957031 243.894531 237.867188 243.070312 C 238.777344 242.246094 239.664062 241.402344 240.53125 240.53125 C 241.402344 239.664062 242.246094 238.777344 243.070312 237.867188 C 243.894531 236.957031 244.695312 236.027344 245.476562 235.078125 C 246.253906 234.128906 247.007812 233.164062 247.742188 232.175781 C 248.472656 231.191406 249.179688 230.1875 249.859375 229.167969 C 250.542969 228.148438 251.199219 227.109375 251.828125 226.058594 C 252.460938 225.003906 253.066406 223.9375 253.644531 222.855469 C 254.222656 221.773438 254.773438 220.675781 255.300781 219.566406 C 255.824219 218.457031 256.320312 217.335938 256.789062 216.203125 C 257.261719 215.066406 257.703125 213.921875 258.117188 212.765625 C 258.53125 211.609375 258.914062 210.445312 259.269531 209.269531 C 259.625 208.097656 259.953125 206.914062 260.253906 205.722656 C 260.550781 204.53125 260.820312 203.335938 261.058594 202.132812 C 261.296875 200.929688 261.507812 199.71875 261.6875 198.503906 C 261.867188 197.289062 262.019531 196.074219 262.140625 194.851562 C 262.257812 193.628906 262.347656 192.40625 262.410156 191.179688 C 262.46875 189.953125 262.5 188.726562 262.5 187.5 C 262.5 186.273438 262.46875 185.046875 262.410156 183.820312 C 262.347656 182.59375 262.257812 181.371094 262.140625 180.148438 C 262.019531 178.925781 261.867188 177.710938 261.6875 176.496094 C 261.507812 175.28125 261.296875 174.070312 261.058594 172.867188 C 260.820312 171.664062 260.550781 170.46875 260.253906 169.277344 C 259.953125 168.085938 259.625 166.902344 259.269531 165.730469 C 258.914062 164.554688 258.53125 163.390625 258.117188 162.234375 C 257.703125 161.078125 257.261719 159.933594 256.789062 158.796875 C 256.320312 157.664062 255.824219 156.542969 255.300781 155.433594 C 254.773438 154.324219 254.222656 153.226562 253.644531 152.144531 C 253.066406 151.0625 252.460938 149.996094 251.828125 148.941406 C 251.199219 147.890625 250.542969 146.851562 249.859375 145.832031 C 249.179688 144.8125 248.472656 143.808594 247.742188 142.824219 C 247.007812 141.835938 246.253906 140.871094 245.476562 139.921875 C 244.695312 138.972656 243.894531 138.042969 243.070312 137.132812 C 242.246094 136.222656 241.402344 135.335938 240.53125 134.46875 C 239.664062 133.597656 238.777344 132.753906 237.867188 131.929688 C 236.957031 131.105469 236.027344 130.304688 235.078125 129.523438 C 234.128906 128.746094 233.164062 127.992188 232.175781 127.257812 C 231.191406 126.527344 230.1875 125.820312 229.167969 125.140625 C 228.148438 124.457031 227.109375 123.800781 226.058594 123.171875 C 225.003906 122.539062 223.9375 121.933594 222.855469 121.355469 C 221.773438 120.777344 220.675781 120.226562 219.566406 119.699219 C 218.457031 119.175781 217.335938 118.679688 216.203125 118.210938 C 215.066406 117.738281 213.921875 117.296875 212.765625 116.882812 C 211.609375 116.46875 210.445312 116.085938 209.269531 115.730469 C 208.097656 115.375 206.914062 115.046875 205.722656 114.746094 C 204.53125 114.449219 203.335938 114.179688 202.132812 113.941406 C 200.929688 113.703125 199.71875 113.492188 198.503906 113.3125 C 197.289062 113.132812 196.074219 112.980469 194.851562 112.859375 C 193.628906 112.742188 192.40625 112.652344 191.179688 112.589844 C 189.953125 112.53125 188.726562 112.5 187.5 112.5 Z M 230.324219 192.824219 L 200.324219 222.824219 C 199.976562 223.175781 199.597656 223.492188 199.1875 223.765625 C 198.773438 224.042969 198.339844 224.277344 197.882812 224.464844 C 197.425781 224.65625 196.957031 224.800781 196.472656 224.898438 C 195.984375 224.996094 195.496094 225.042969 195 225.042969 C 194.503906 225.042969 194.015625 224.996094 193.527344 224.898438 C 193.042969 224.800781 192.574219 224.65625 192.117188 224.464844 C 191.660156 224.277344 191.226562 224.042969 190.8125 223.765625 C 190.402344 223.492188 190.023438 223.175781 189.675781 222.824219 C 189.324219 222.476562 189.007812 222.097656 188.734375 221.6875 C 188.457031 221.273438 188.222656 220.839844 188.035156 220.382812 C 187.84375 219.925781 187.699219 219.457031 187.601562 218.96875 C 187.503906 218.484375 187.457031 217.996094 187.457031 217.5 C 187.457031 217.003906 187.503906 216.515625 187.601562 216.027344 C 187.699219 215.542969 187.84375 215.074219 188.035156 214.617188 C 188.222656 214.160156 188.457031 213.726562 188.734375 213.3125 C 189.007812 212.902344 189.324219 212.523438 189.675781 212.175781 L 206.925781 195 L 150 195 C 149.507812 195 149.019531 194.953125 148.535156 194.855469 C 148.054688 194.761719 147.585938 194.617188 147.128906 194.429688 C 146.675781 194.242188 146.242188 194.007812 145.832031 193.734375 C 145.421875 193.460938 145.042969 193.152344 144.695312 192.804688 C 144.347656 192.453125 144.039062 192.078125 143.765625 191.667969 C 143.492188 191.257812 143.257812 190.824219 143.070312 190.371094 C 142.882812 189.914062 142.738281 189.445312 142.644531 188.964844 C 142.546875 188.480469 142.5 187.992188 142.5 187.5 C 142.5 187.007812 142.546875 186.519531 142.644531 186.035156 C 142.738281 185.554688 142.882812 185.085938 143.070312 184.628906 C 143.257812 184.175781 143.492188 183.742188 143.765625 183.332031 C 144.039062 182.921875 144.347656 182.542969 144.695312 182.195312 C 145.042969 181.847656 145.421875 181.539062 145.832031 181.265625 C 146.242188 180.992188 146.675781 180.757812 147.128906 180.570312 C 147.585938 180.382812 148.054688 180.238281 148.535156 180.144531 C 149.019531 180.046875 149.507812 180 150 180 L 206.925781 180 L 189.675781 162.824219 C 189.324219 162.476562 189.011719 162.09375 188.738281 161.683594 C 188.464844 161.273438 188.230469 160.839844 188.042969 160.382812 C 187.851562 159.925781 187.710938 159.453125 187.613281 158.96875 C 187.515625 158.484375 187.46875 157.996094 187.46875 157.5 C 187.46875 157.003906 187.515625 156.515625 187.613281 156.03125 C 187.710938 155.546875 187.851562 155.074219 188.042969 154.617188 C 188.230469 154.160156 188.464844 153.726562 188.738281 153.316406 C 189.011719 152.90625 189.324219 152.523438 189.675781 152.175781 C 190.023438 151.824219 190.40625 151.511719 190.816406 151.238281 C 191.226562 150.964844 191.660156 150.730469 192.117188 150.542969 C 192.574219 150.351562 193.046875 150.210938 193.53125 150.113281 C 194.015625 150.015625 194.503906 149.96875 195 149.96875 C 195.496094 149.96875 195.984375 150.015625 196.46875 150.113281 C 196.953125 150.210938 197.425781 150.351562 197.882812 150.542969 C 198.339844 150.730469 198.773438 150.964844 199.183594 151.238281 C 199.59375 151.511719 199.976562 151.824219 200.324219 152.175781 L 230.324219 182.175781 C 231.015625 182.894531 231.539062 183.71875 231.898438 184.648438 C 232.273438 185.5625 232.460938 186.511719 232.460938 187.5 C 232.460938 188.488281 232.273438 189.4375 231.898438 190.351562 C 231.539062 191.28125 231.015625 192.105469 230.324219 192.824219 Z M 230.324219 192.824219 " fill-opacity="1" fill-rule="nonzero"/></g></svg>