<svg xmlns="http://www.w3.org/2000/svg" xmlns:xlink="http://www.w3.org/1999/xlink" width="500" zoomAndPan="magnify" viewBox="0 0 375 374.999991" height="500" preserveAspectRatio="xMidYMid meet" version="1.0"><defs><clipPath id="7c6f384897"><path d="M 53.625 48.066406 L 321.375 48.066406 L 321.375 315.816406 L 53.625 315.816406 Z M 53.625 48.066406 " clip-rule="nonzero"/></clipPath></defs><g clip-path="url(#7c6f384897)"><path fill="#f16622" d="M 321.691406 182.109375 C 321.691406 184.296875 321.636719 186.496094 321.53125 188.683594 C 321.421875 190.875 321.261719 193.066406 321.046875 195.246094 C 320.828125 197.429688 320.558594 199.605469 320.242188 201.773438 C 319.921875 203.949219 319.546875 206.109375 319.117188 208.261719 C 318.691406 210.414062 318.210938 212.550781 317.675781 214.679688 C 317.144531 216.808594 316.558594 218.925781 315.921875 221.015625 C 315.285156 223.117188 314.59375 225.203125 313.859375 227.265625 C 313.117188 229.335938 312.328125 231.375 311.488281 233.40625 C 310.648438 235.433594 309.765625 237.441406 308.828125 239.421875 C 307.890625 241.410156 306.898438 243.367188 305.871094 245.300781 C 304.835938 247.238281 303.757812 249.140625 302.632812 251.023438 C 301.5 252.90625 300.328125 254.761719 299.113281 256.582031 C 297.898438 258.40625 296.632812 260.199219 295.328125 261.960938 C 294.023438 263.722656 292.671875 265.449219 291.277344 267.140625 C 289.882812 268.835938 288.449219 270.503906 286.980469 272.128906 C 285.511719 273.757812 283.996094 275.339844 282.441406 276.890625 C 280.890625 278.445312 279.308594 279.960938 277.679688 281.429688 C 276.050781 282.898438 274.386719 284.332031 272.691406 285.726562 C 270.996094 287.113281 269.273438 288.464844 267.511719 289.777344 C 265.746094 291.082031 263.953125 292.351562 262.132812 293.566406 C 260.308594 294.78125 258.457031 295.957031 256.574219 297.082031 C 254.691406 298.207031 252.789062 299.289062 250.851562 300.324219 C 248.917969 301.359375 246.960938 302.339844 244.972656 303.277344 C 242.992188 304.214844 240.984375 305.109375 238.957031 305.941406 C 236.933594 306.78125 234.886719 307.566406 232.816406 308.308594 C 230.753906 309.046875 228.667969 309.734375 226.566406 310.371094 C 224.46875 311.011719 222.359375 311.59375 220.230469 312.128906 C 218.101562 312.660156 215.960938 313.140625 213.808594 313.566406 C 211.65625 313.996094 209.496094 314.371094 207.324219 314.691406 C 205.15625 315.015625 202.980469 315.285156 200.796875 315.496094 C 198.613281 315.703125 196.425781 315.871094 194.234375 315.984375 C 192.046875 316.09375 189.855469 316.140625 187.65625 316.140625 C 185.460938 316.140625 183.269531 316.085938 181.078125 315.984375 C 178.890625 315.878906 176.699219 315.710938 174.523438 315.496094 C 172.34375 315.277344 170.167969 315.007812 167.992188 314.691406 C 165.824219 314.371094 163.664062 313.996094 161.511719 313.566406 C 159.359375 313.140625 157.222656 312.660156 155.09375 312.128906 C 152.960938 311.59375 150.847656 311.011719 148.746094 310.371094 C 146.648438 309.734375 144.570312 309.046875 142.5 308.308594 C 140.4375 307.566406 138.390625 306.78125 136.363281 305.941406 C 134.339844 305.109375 132.328125 304.214844 130.351562 303.277344 C 128.371094 302.339844 126.40625 301.351562 124.476562 300.324219 C 122.542969 299.289062 120.628906 298.207031 118.753906 297.082031 C 116.871094 295.949219 115.019531 294.78125 113.199219 293.566406 C 111.375 292.351562 109.582031 291.082031 107.820312 289.777344 C 106.058594 288.472656 104.324219 287.121094 102.628906 285.726562 C 100.933594 284.332031 99.277344 282.898438 97.648438 281.429688 C 96.023438 279.960938 94.433594 278.445312 92.886719 276.890625 C 91.34375 275.339844 89.828125 273.757812 88.351562 272.128906 C 86.871094 270.503906 85.441406 268.835938 84.050781 267.140625 C 82.664062 265.449219 81.308594 263.722656 80.003906 261.960938 C 78.699219 260.199219 77.429688 258.40625 76.214844 256.582031 C 75 254.761719 73.824219 252.90625 72.699219 251.023438 C 71.574219 249.140625 70.492188 247.238281 69.457031 245.300781 C 68.421875 243.367188 67.441406 241.410156 66.503906 239.421875 C 65.566406 237.441406 64.671875 235.433594 63.832031 233.40625 C 62.992188 231.382812 62.203125 229.335938 61.460938 227.265625 C 60.726562 225.203125 60.039062 223.117188 59.398438 221.015625 C 58.761719 218.917969 58.175781 216.808594 57.644531 214.679688 C 57.113281 212.550781 56.632812 210.414062 56.203125 208.261719 C 55.777344 206.109375 55.402344 203.949219 55.078125 201.773438 C 54.757812 199.605469 54.488281 197.429688 54.277344 195.246094 C 54.058594 193.066406 53.894531 190.875 53.789062 188.683594 C 53.675781 186.496094 53.625 184.304688 53.625 182.109375 C 53.625 179.910156 53.675781 177.71875 53.789062 175.53125 C 53.894531 173.339844 54.050781 171.148438 54.277344 168.976562 C 54.496094 166.792969 54.757812 164.617188 55.078125 162.441406 C 55.402344 160.273438 55.777344 158.113281 56.203125 155.960938 C 56.632812 153.808594 57.113281 151.671875 57.644531 149.542969 C 58.175781 147.414062 58.761719 145.296875 59.398438 143.199219 C 60.039062 141.097656 60.726562 139.019531 61.460938 136.949219 C 62.199219 134.886719 62.992188 132.839844 63.832031 130.816406 C 64.671875 128.789062 65.566406 126.78125 66.503906 124.800781 C 67.441406 122.820312 68.421875 120.855469 69.457031 118.925781 C 70.492188 117 71.574219 115.078125 72.699219 113.203125 C 73.828125 111.324219 75 109.46875 76.214844 107.648438 C 77.429688 105.824219 78.699219 104.03125 80.003906 102.269531 C 81.308594 100.507812 82.65625 98.773438 84.050781 97.078125 C 85.449219 95.386719 86.878906 93.726562 88.351562 92.101562 C 89.820312 90.472656 91.335938 88.882812 92.886719 87.335938 C 94.441406 85.792969 96.03125 84.277344 97.648438 82.800781 C 99.269531 81.324219 100.933594 79.890625 102.628906 78.503906 C 104.324219 77.113281 106.058594 75.757812 107.820312 74.453125 C 109.582031 73.148438 111.375 71.878906 113.199219 70.664062 C 115.019531 69.449219 116.871094 68.273438 118.753906 67.148438 C 120.636719 66.015625 122.542969 64.941406 124.476562 63.90625 C 126.414062 62.871094 128.371094 61.890625 130.351562 60.953125 C 132.335938 60.015625 134.339844 59.121094 136.363281 58.28125 C 138.390625 57.441406 140.4375 56.65625 142.5 55.914062 C 144.570312 55.175781 146.648438 54.488281 148.746094 53.851562 C 150.847656 53.210938 152.960938 52.628906 155.09375 52.09375 C 157.214844 51.5625 159.359375 51.082031 161.511719 50.65625 C 163.664062 50.226562 165.824219 49.851562 167.992188 49.53125 C 170.167969 49.207031 172.34375 48.9375 174.523438 48.726562 C 176.707031 48.511719 178.890625 48.34375 181.078125 48.238281 C 183.269531 48.128906 185.460938 48.074219 187.65625 48.074219 C 189.855469 48.074219 192.046875 48.128906 194.234375 48.238281 C 196.425781 48.34375 198.613281 48.503906 200.796875 48.726562 C 202.980469 48.945312 205.15625 49.207031 207.324219 49.53125 C 209.496094 49.851562 211.65625 50.226562 213.808594 50.65625 C 215.960938 51.082031 218.101562 51.5625 220.230469 52.09375 C 222.359375 52.628906 224.476562 53.210938 226.566406 53.851562 C 228.667969 54.488281 230.753906 55.175781 232.816406 55.914062 C 234.886719 56.648438 236.925781 57.441406 238.957031 58.28125 C 240.984375 59.121094 242.992188 60.015625 244.972656 60.953125 C 246.960938 61.890625 248.917969 62.871094 250.851562 63.90625 C 252.789062 64.941406 254.691406 66.023438 256.574219 67.148438 C 258.457031 68.273438 260.308594 69.449219 262.132812 70.664062 C 263.953125 71.878906 265.746094 73.148438 267.511719 74.453125 C 269.273438 75.757812 270.996094 77.109375 272.691406 78.503906 C 274.386719 79.898438 276.050781 81.328125 277.679688 82.800781 C 279.308594 84.269531 280.890625 85.785156 282.441406 87.335938 C 283.996094 88.890625 285.511719 90.480469 286.980469 92.101562 C 288.449219 93.71875 289.882812 95.386719 291.277344 97.078125 C 292.664062 98.773438 294.015625 100.507812 295.328125 102.269531 C 296.632812 104.03125 297.898438 105.824219 299.113281 107.648438 C 300.328125 109.46875 301.507812 111.324219 302.632812 113.203125 C 303.757812 115.085938 304.835938 116.992188 305.871094 118.925781 C 306.90625 120.863281 307.890625 122.820312 308.828125 124.800781 C 309.765625 126.789062 310.65625 128.789062 311.488281 130.816406 C 312.328125 132.839844 313.117188 134.886719 313.859375 136.949219 C 314.59375 139.019531 315.285156 141.097656 315.921875 143.199219 C 316.558594 145.296875 317.144531 147.414062 317.675781 149.542969 C 318.210938 151.664062 318.691406 153.808594 319.117188 155.960938 C 319.546875 158.113281 319.921875 160.273438 320.242188 162.441406 C 320.566406 164.617188 320.835938 166.792969 321.046875 168.976562 C 321.261719 171.15625 321.421875 173.339844 321.53125 175.53125 C 321.644531 177.71875 321.691406 179.910156 321.691406 182.109375 Z M 321.691406 182.109375 " fill-opacity="1" fill-rule="nonzero"/></g><path fill="#ffffff" d="M 242.347656 101.144531 L 132.976562 101.144531 L 132.976562 122.960938 L 170.078125 122.960938 C 174.523438 123.285156 178.441406 124.410156 181.867188 126.398438 C 186 128.753906 189.15625 132.136719 191.414062 136.53125 C 192.113281 137.917969 192.699219 139.425781 193.175781 140.976562 L 132.96875 140.976562 L 132.96875 162.585938 L 193.28125 162.585938 C 192.75 164.300781 192.15625 165.90625 191.355469 167.40625 C 189.097656 171.800781 185.886719 175.175781 181.753906 177.539062 C 177.621094 179.902344 172.800781 181.027344 167.332031 181.027344 L 132.96875 181.027344 L 132.96875 202.84375 L 165.9375 202.84375 C 167.488281 202.84375 169.050781 202.792969 170.550781 202.738281 L 204.105469 263.054688 L 232.949219 263.054688 L 194.722656 196.835938 C 202.449219 192.976562 208.449219 187.566406 212.683594 180.488281 C 215.902344 175.230469 217.890625 169.230469 218.746094 162.636719 L 242.332031 162.636719 L 242.332031 141.03125 L 217.828125 141.03125 C 216.863281 136.851562 215.46875 132.9375 213.59375 129.34375 C 212.414062 127.042969 211.019531 124.949219 209.519531 123.023438 L 242.324219 123.023438 L 242.324219 101.144531 Z M 242.347656 101.144531 " fill-opacity="1" fill-rule="nonzero"/></svg>