<svg xmlns="http://www.w3.org/2000/svg" xmlns:xlink="http://www.w3.org/1999/xlink" width="1080" zoomAndPan="magnify" viewBox="0 0 810 809.999993" height="1080" preserveAspectRatio="xMidYMid meet" version="1.0"><defs><clipPath id="d3faea8b96"><path d="M 201 207.070312 L 484 207.070312 L 484 603.070312 L 201 603.070312 Z M 201 207.070312 " clip-rule="nonzero"/></clipPath><clipPath id="8f50aa017e"><path d="M 357 250 L 608.949219 250 L 608.949219 502 L 357 502 Z M 357 250 " clip-rule="nonzero"/></clipPath></defs><g clip-path="url(#d3faea8b96)"><path fill="#100f0d" d="M 483.011719 239.203125 L 483.394531 239.203125 L 483.394531 233.398438 C 483.394531 218.910156 471.609375 207.128906 457.171875 207.128906 L 227.507812 207.128906 C 213.058594 207.128906 201.285156 218.910156 201.285156 233.398438 L 201.285156 576.746094 C 201.285156 591.230469 213.058594 603.011719 227.507812 603.011719 L 457.171875 603.011719 C 471.609375 603.011719 483.394531 591.230469 483.394531 576.746094 L 483.394531 512.242188 L 483.011719 512.242188 C 478.902344 512.242188 474.847656 512.058594 470.832031 511.707031 L 470.832031 576.746094 C 470.832031 584.324219 464.707031 590.441406 457.171875 590.441406 L 227.507812 590.441406 C 219.972656 590.441406 213.847656 584.324219 213.847656 576.746094 L 213.847656 233.398438 C 213.847656 225.816406 219.972656 219.699219 227.507812 219.699219 L 457.171875 219.699219 C 464.707031 219.699219 470.832031 225.816406 470.832031 233.398438 L 470.832031 239.738281 C 474.847656 239.398438 478.902344 239.203125 483.011719 239.203125 " fill-opacity="1" fill-rule="nonzero"/></g><path fill="#100f0d" d="M 402.160156 265.824219 C 408.625 261.046875 415.5 256.832031 422.78125 253.253906 L 231.972656 253.253906 L 231.972656 312.132812 L 362.304688 312.132812 C 364.601562 307.792969 367.109375 303.617188 369.8125 299.5625 L 244.523438 299.5625 L 244.523438 265.824219 L 402.160156 265.824219 " fill-opacity="1" fill-rule="nonzero"/><path fill="#100f0d" d="M 351.542969 339.214844 C 352.726562 334.945312 354.117188 330.734375 355.714844 326.648438 L 231.972656 326.648438 L 231.972656 356 L 347.992188 356 C 348.617188 351.746094 349.433594 347.542969 350.441406 343.417969 L 244.523438 343.417969 L 244.523438 339.214844 L 351.542969 339.214844 " fill-opacity="1" fill-rule="nonzero"/><path fill="#100f0d" d="M 265.398438 414.371094 L 291.53125 414.371094 L 291.53125 388.210938 L 265.398438 388.210938 Z M 304.09375 426.929688 L 252.835938 426.929688 L 252.835938 375.640625 L 304.09375 375.640625 L 304.09375 426.929688 " fill-opacity="1" fill-rule="nonzero"/><path fill="#100f0d" d="M 352.164062 414.371094 L 329.335938 414.371094 L 329.335938 388.199219 L 347.148438 388.199219 C 346.769531 384.085938 346.574219 379.929688 346.574219 375.730469 L 346.574219 375.632812 L 316.78125 375.632812 L 316.78125 426.941406 L 356.558594 426.941406 C 354.867188 422.855469 353.390625 418.640625 352.164062 414.371094 " fill-opacity="1" fill-rule="nonzero"/><path fill="#100f0d" d="M 265.398438 479.417969 L 291.53125 479.417969 L 291.53125 453.257812 L 265.398438 453.257812 Z M 304.09375 491.976562 L 252.835938 491.976562 L 252.835938 440.6875 L 304.09375 440.6875 L 304.09375 491.976562 " fill-opacity="1" fill-rule="nonzero"/><path fill="#100f0d" d="M 355.5 479.410156 L 329.335938 479.410156 L 329.335938 453.265625 L 355.5 453.265625 Z M 363.035156 440.699219 L 316.78125 440.699219 L 316.78125 491.976562 L 368.050781 491.976562 L 368.050781 449.179688 C 366.300781 446.417969 364.628906 443.597656 363.035156 440.699219 " fill-opacity="1" fill-rule="nonzero"/><path fill="#100f0d" d="M 394.371094 479.410156 L 393.300781 479.410156 L 393.300781 478.492188 C 388.839844 474.601562 384.667969 470.417969 380.738281 465.992188 L 380.738281 491.976562 L 411.570312 491.976562 C 405.511719 488.242188 399.738281 484.03125 394.371094 479.410156 " fill-opacity="1" fill-rule="nonzero"/><path fill="#100f0d" d="M 265.398438 544.308594 L 291.53125 544.308594 L 291.53125 518.148438 L 265.398438 518.148438 Z M 304.09375 556.878906 L 252.835938 556.878906 L 252.835938 505.578125 L 304.09375 505.578125 L 304.09375 556.878906 " fill-opacity="1" fill-rule="nonzero"/><path fill="#100f0d" d="M 329.34375 544.308594 L 355.488281 544.308594 L 355.488281 518.148438 L 329.34375 518.148438 Z M 368.042969 556.878906 L 316.78125 556.878906 L 316.78125 505.578125 L 368.042969 505.578125 L 368.042969 556.878906 " fill-opacity="1" fill-rule="nonzero"/><path fill="#100f0d" d="M 393.292969 544.308594 L 419.4375 544.308594 L 419.4375 518.148438 L 393.292969 518.148438 Z M 431.988281 556.878906 L 380.730469 556.878906 L 380.730469 505.578125 L 431.988281 505.578125 L 431.988281 556.878906 " fill-opacity="1" fill-rule="nonzero"/><path fill="#100f0d" d="M 458.296875 509.976562 L 458.296875 553.027344 C 458.296875 567.484375 446.523438 579.265625 432.046875 579.265625 L 366.300781 579.265625 L 366.300781 566.695312 L 432.046875 566.695312 C 439.621094 566.695312 445.738281 560.566406 445.738281 553.027344 L 445.738281 507.058594 C 449.847656 508.226562 454.03125 509.226562 458.296875 509.976562 " fill-opacity="1" fill-rule="nonzero"/><path fill="#100f0d" d="M 527.484375 282.421875 C 522.644531 282.421875 518.6875 278.460938 518.6875 273.625 C 518.6875 268.761719 522.644531 264.832031 527.484375 264.832031 C 532.347656 264.832031 536.273438 268.761719 536.273438 273.625 C 536.273438 278.460938 532.347656 282.421875 527.484375 282.421875 Z M 527.484375 251.007812 C 515.019531 251.007812 504.871094 261.152344 504.871094 273.625 C 504.871094 286.097656 515.019531 296.246094 527.484375 296.246094 C 539.949219 296.246094 550.089844 286.097656 550.089844 273.625 C 550.089844 261.152344 539.949219 251.007812 527.484375 251.007812 " fill-opacity="1" fill-rule="nonzero"/><path fill="#100f0d" d="M 585.074219 340.015625 C 580.203125 340.015625 576.273438 336.054688 576.273438 331.21875 C 576.273438 326.375 580.203125 322.425781 585.074219 322.425781 C 589.90625 322.425781 593.863281 326.375 593.863281 331.21875 C 593.863281 336.054688 589.90625 340.015625 585.074219 340.015625 Z M 585.074219 308.601562 C 572.597656 308.601562 562.457031 318.746094 562.457031 331.21875 C 562.457031 343.691406 572.597656 353.839844 585.074219 353.839844 C 597.539062 353.839844 607.679688 343.691406 607.679688 331.21875 C 607.679688 318.746094 597.539062 308.601562 585.074219 308.601562 " fill-opacity="1" fill-rule="nonzero"/><g clip-path="url(#8f50aa017e)"><path fill="#100f0d" d="M 483.011719 488.84375 C 420.679688 488.84375 369.964844 438.101562 369.964844 375.730469 C 369.964844 317.609375 414.011719 269.585938 470.453125 263.3125 L 470.453125 388.296875 L 595.359375 388.296875 C 589.089844 444.773438 541.097656 488.84375 483.011719 488.84375 Z M 483.003906 375.730469 L 483.003906 250.050781 C 413.640625 250.050781 357.40625 306.324219 357.40625 375.730469 C 357.40625 445.132812 413.640625 501.40625 483.003906 501.40625 C 552.375 501.40625 608.613281 445.132812 608.613281 375.730469 L 483.003906 375.730469 " fill-opacity="1" fill-rule="nonzero"/></g><path fill="#100f0d" d="M 607.269531 261.152344 L 515.050781 353.460938 L 505.277344 343.664062 L 597.5 251.375 L 607.269531 261.152344 " fill-opacity="1" fill-rule="nonzero"/></svg>