<svg xmlns="http://www.w3.org/2000/svg" xmlns:xlink="http://www.w3.org/1999/xlink" width="500" zoomAndPan="magnify" viewBox="0 0 375 374.999991" height="500" preserveAspectRatio="xMidYMid meet" version="1.0"><defs><clipPath id="1091c5fbcb"><path d="M 114 119 L 261 119 L 261 257.8125 L 114 257.8125 Z M 114 119 " clip-rule="nonzero"/></clipPath></defs><g clip-path="url(#1091c5fbcb)"><path fill="#047d55" d="M 252.007812 194.824219 C 246.851562 187.269531 240.734375 180.511719 234.21875 174.160156 C 228.046875 168.140625 221.640625 162.335938 215.320312 156.425781 C 214.953125 156.070312 214.554688 155.71875 214.15625 155.359375 C 214.292969 155.417969 214.40625 155.441406 214.527344 155.5 C 215.867188 153.964844 217.179688 152.375 218.589844 150.898438 C 224.105469 145.042969 229.660156 139.242188 235.148438 133.410156 C 236.761719 131.6875 236.789062 129.511719 235.148438 128.304688 C 234.421875 127.757812 233.34375 127.5 232.410156 127.460938 C 229.441406 127.332031 226.488281 127.402344 223.515625 127.308594 C 220.027344 127.199219 217.003906 126.101562 214.402344 123.53125 C 208.382812 117.609375 199.691406 118.085938 194.070312 124.40625 C 193.808594 124.710938 193.519531 125.011719 193.234375 125.324219 C 191.550781 127.0625 189.511719 127.9375 187.5 127.964844 C 185.476562 127.9375 183.4375 127.0625 181.769531 125.324219 C 181.480469 125.011719 181.195312 124.710938 180.933594 124.40625 C 175.296875 118.085938 166.605469 117.609375 160.585938 123.53125 C 158 126.105469 154.976562 127.199219 151.472656 127.308594 C 148.503906 127.40625 145.546875 127.332031 142.578125 127.460938 C 141.648438 127.5 140.566406 127.757812 139.84375 128.304688 C 138.214844 129.511719 138.226562 131.6875 139.84375 133.410156 C 145.34375 139.242188 150.898438 145.042969 156.398438 150.898438 C 157.808594 152.375 159.121094 153.964844 160.476562 155.496094 C 160.585938 155.441406 160.710938 155.414062 160.832031 155.359375 C 160.449219 155.714844 160.054688 156.070312 159.671875 156.425781 C 153.347656 162.339844 146.945312 168.140625 140.773438 174.160156 C 134.261719 180.507812 128.15625 187.269531 122.984375 194.820312 C 115.183594 206.261719 112.597656 218.632812 116.238281 232.152344 C 118.359375 240.003906 122.257812 246.601562 129.113281 251.199219 C 134.726562 254.945312 140.992188 256.917969 147.671875 257.191406 C 155.167969 257.464844 162.667969 257.355469 170.164062 257.382812 C 175.9375 257.410156 181.726562 257.410156 187.503906 257.410156 C 193.277344 257.410156 199.066406 257.410156 204.839844 257.382812 C 212.324219 257.355469 219.835938 257.464844 227.324219 257.191406 C 234.003906 256.917969 240.28125 254.949219 245.878906 251.199219 C 252.734375 246.601562 256.636719 240.003906 258.753906 232.152344 C 262.40625 218.632812 259.820312 206.261719 252.007812 194.824219 Z M 149.707031 134.941406 C 149.503906 134.722656 149.351562 134.464844 149.066406 134.042969 C 149.652344 133.945312 150.105469 133.847656 150.570312 133.792969 C 152.484375 133.5625 154.445312 133.519531 156.34375 133.136719 C 159.589844 132.476562 162.351562 130.863281 164.664062 128.441406 C 166.554688 126.472656 168.839844 125.429688 171.644531 125.925781 C 173.640625 126.269531 175.203125 127.390625 176.476562 128.921875 C 178.554688 131.355469 181.070312 133.179688 184.21875 133.886719 C 185.355469 134.136719 186.449219 134.269531 187.503906 134.285156 C 188.542969 134.269531 189.636719 134.136719 190.773438 133.886719 C 193.921875 133.179688 196.4375 131.355469 198.519531 128.921875 C 199.804688 127.390625 201.351562 126.269531 203.347656 125.925781 C 206.167969 125.433594 208.441406 126.472656 210.34375 128.441406 C 212.65625 130.863281 215.402344 132.476562 218.664062 133.136719 C 220.550781 133.519531 222.519531 133.5625 224.4375 133.792969 C 224.886719 133.847656 225.339844 133.945312 225.941406 134.042969 C 225.640625 134.464844 225.492188 134.722656 225.296875 134.941406 C 219.375 140.867188 213.449219 146.765625 207.535156 152.703125 C 207.289062 152.925781 206.960938 153.144531 206.648438 153.144531 C 203.925781 153.199219 201.1875 153.167969 198.175781 153.167969 C 198.53125 152.675781 198.683594 152.429688 198.859375 152.210938 C 200.941406 149.472656 203.074219 146.777344 205.101562 144.03125 C 206.632812 141.960938 205.441406 139.210938 202.976562 138.953125 C 201.582031 138.800781 200.597656 139.441406 199.777344 140.539062 C 197.328125 143.835938 194.6875 147.011719 192.375 150.40625 C 191.089844 152.320312 189.625 153.363281 187.503906 153.304688 C 185.371094 153.363281 183.917969 152.320312 182.632812 150.40625 C 180.304688 147.011719 177.679688 143.835938 175.214844 140.539062 C 174.394531 139.445312 173.410156 138.800781 172.011719 138.953125 C 169.566406 139.210938 168.375 141.960938 169.890625 144.03125 C 171.917969 146.777344 174.050781 149.472656 176.132812 152.210938 C 176.324219 152.429688 176.460938 152.675781 176.828125 153.167969 C 173.804688 153.167969 171.070312 153.195312 168.347656 153.144531 C 168.046875 153.144531 167.703125 152.925781 167.46875 152.703125 C 161.542969 146.765625 155.632812 140.867188 149.707031 134.941406 Z M 252.625 230.152344 C 252.117188 232.230469 251.417969 234.257812 250.542969 236.171875 C 249.296875 238.9375 247.699219 241.320312 245.5625 243.34375 C 240.542969 248.023438 234.410156 250.296875 227.691406 250.789062 C 222.230469 251.171875 216.746094 250.953125 211.269531 251.007812 C 211.023438 251.007812 199.382812 251.03125 199.382812 251.03125 C 195.425781 251.03125 191.460938 251.007812 187.503906 251.007812 C 183.535156 251.007812 179.566406 251.03125 175.625 251.03125 C 175.625 251.03125 163.96875 251.007812 163.734375 251.007812 C 158.25 250.949219 152.761719 251.171875 147.300781 250.789062 C 140.582031 250.296875 134.453125 248.023438 129.429688 243.34375 C 127.296875 241.320312 125.710938 238.9375 124.449219 236.171875 C 123.585938 234.257812 122.890625 232.230469 122.371094 230.152344 C 120.863281 224.078125 120.824219 217.507812 122.109375 211.539062 C 122.164062 211.324219 125.875 202.347656 125.875 202.347656 C 129.0625 196.683594 133.179688 191.703125 137.492188 186.859375 C 145.550781 177.769531 154.515625 169.5625 163.542969 161.460938 C 165.089844 160.035156 166.648438 159.378906 168.71875 159.542969 C 170.589844 159.710938 172.492188 159.570312 174.546875 159.570312 C 173.917969 161.046875 173.328125 162.390625 172.753906 163.730469 C 172.519531 164.304688 172.300781 164.855469 172.097656 165.457031 C 171.441406 167.289062 172.136719 168.90625 173.835938 169.5625 C 175.519531 170.21875 177.269531 169.425781 178.023438 167.671875 C 179.007812 165.402344 180.0625 163.15625 180.976562 160.882812 C 181.417969 159.820312 182.03125 159.519531 183.140625 159.542969 C 184.589844 159.570312 186.054688 159.601562 187.503906 159.601562 C 188.957031 159.601562 190.40625 159.574219 191.855469 159.542969 C 192.964844 159.519531 193.582031 159.820312 194.019531 160.882812 C 194.9375 163.15625 195.992188 165.402344 196.976562 167.671875 C 197.742188 169.421875 199.480469 170.21875 201.175781 169.5625 C 202.871094 168.90625 203.558594 167.289062 202.914062 165.457031 C 202.695312 164.855469 202.492188 164.304688 202.242188 163.730469 C 201.667969 162.390625 201.09375 161.050781 200.453125 159.570312 C 202.503906 159.570312 204.40625 159.707031 206.296875 159.542969 C 208.363281 159.378906 209.90625 160.035156 211.46875 161.460938 C 220.488281 169.5625 229.449219 177.769531 237.507812 186.859375 C 241.820312 191.703125 245.9375 196.683594 249.125 202.347656 C 249.125 202.347656 252.832031 211.324219 252.886719 211.542969 C 254.183594 217.507812 254.128906 224.078125 252.625 230.152344 Z M 252.625 230.152344 " fill-opacity="1" fill-rule="nonzero"/></g><path fill="#047d55" d="M 190.074219 229.277344 C 187.242188 226.210938 184.476562 223.089844 181.6875 219.972656 C 179.648438 217.730469 177.609375 215.511719 175.554688 213.265625 C 175.417969 213.074219 175.269531 212.886719 175.117188 212.71875 C 175.023438 212.585938 175.078125 212.417969 175.253906 212.417969 C 175.40625 212.363281 175.554688 212.363281 175.71875 212.363281 C 178.140625 212.117188 180.535156 211.761719 182.820312 210.996094 C 182.972656 210.832031 183.257812 210.996094 183.410156 210.832031 C 183.832031 210.667969 184.285156 210.476562 184.75 210.339844 C 186.132812 209.710938 187.5 209.082031 188.734375 208.257812 C 192.402344 205.851562 194.753906 202.703125 195.644531 198.761719 C 195.824219 197.859375 195.972656 197.972656 196.710938 197.914062 C 196.890625 197.914062 197.039062 197.914062 197.191406 197.914062 C 198.996094 197.914062 200.804688 197.914062 202.582031 197.914062 C 203.15625 197.914062 203.511719 197.804688 203.8125 197.367188 C 204.824219 195.941406 205.878906 194.519531 206.917969 193.152344 C 206.988281 193.070312 207.070312 192.960938 207.097656 192.878906 C 207.136719 192.769531 207.082031 192.632812 206.945312 192.632812 C 206.742188 192.605469 206.546875 192.605469 206.359375 192.605469 C 204.867188 192.605469 203.386719 192.605469 201.925781 192.605469 C 199.96875 192.605469 197.996094 192.605469 196.027344 192.605469 C 195.546875 192.605469 195.507812 192.546875 195.425781 192.113281 C 195.164062 190.691406 194.617188 189.320312 193.6875 188.089844 C 193.480469 187.789062 193.273438 187.515625 193.042969 187.242188 C 192.976562 187.132812 192.90625 187.074219 192.921875 186.941406 C 193.003906 186.800781 193.113281 186.800781 193.25 186.800781 C 193.480469 186.800781 193.726562 186.800781 193.917969 186.800781 C 196.699219 186.800781 199.488281 186.800781 202.238281 186.800781 C 202.5 186.800781 202.746094 186.777344 203.003906 186.777344 C 203.222656 186.800781 203.445312 186.722656 203.582031 186.503906 C 203.691406 186.367188 203.796875 186.203125 203.949219 186.039062 C 204.867188 184.753906 205.808594 183.492188 206.742188 182.152344 C 206.890625 181.988281 207.164062 181.820312 207.082031 181.601562 C 206.917969 181.300781 206.5625 181.4375 206.289062 181.4375 C 201.308594 181.4375 196.328125 181.4375 191.332031 181.4375 C 187.019531 181.382812 182.683594 181.382812 178.359375 181.382812 C 174.800781 181.382812 171.175781 181.4375 167.5625 181.382812 C 167.042969 181.382812 166.796875 181.574219 166.523438 181.929688 C 165.578125 183.296875 164.566406 184.640625 163.59375 185.925781 C 163.445312 186.089844 163.335938 186.28125 163.238281 186.476562 C 163.199219 186.585938 163.28125 186.75 163.429688 186.75 C 163.59375 186.777344 163.691406 186.777344 163.839844 186.777344 C 165.320312 186.777344 166.796875 186.777344 168.261719 186.777344 C 170.722656 186.800781 173.144531 186.882812 175.582031 187.019531 C 177.9375 187.214844 180.546875 186.96875 182.683594 188.089844 C 184.394531 188.992188 184.859375 190.550781 185.722656 192.03125 C 185.816406 192.164062 185.96875 192.277344 185.859375 192.546875 C 185.542969 192.660156 185.203125 192.605469 184.847656 192.605469 C 179.179688 192.605469 173.445312 192.605469 167.726562 192.546875 C 167.179688 192.546875 166.824219 192.710938 166.507812 193.152344 C 165.480469 194.519531 164.441406 195.96875 163.402344 197.363281 C 163.332031 197.472656 163.25 197.582031 163.238281 197.640625 C 163.195312 197.773438 163.222656 197.914062 163.375 197.914062 C 163.59375 197.914062 163.796875 197.914062 164.03125 197.914062 C 167.890625 197.914062 171.800781 197.914062 175.675781 197.914062 C 179.136719 197.914062 182.613281 197.914062 186.074219 197.914062 C 186.773438 197.914062 186.855469 198.023438 186.828125 198.621094 C 186.828125 198.816406 186.828125 199.007812 186.757812 199.226562 C 186.429688 201.03125 185.554688 202.671875 184.132812 204.042969 C 182.558594 205.628906 180.535156 206.640625 178.289062 207.324219 C 176.019531 207.925781 173.652344 208.171875 171.269531 208.199219 C 169.574219 208.199219 167.851562 208.199219 166.167969 208.199219 C 165.949219 208.199219 165.730469 208.199219 165.496094 208.199219 C 165.167969 208.253906 165.085938 208.308594 165.070312 208.636719 C 165.070312 210.0625 165.070312 211.484375 165.058594 212.910156 C 165.058594 213.238281 165.152344 213.457031 165.386719 213.675781 C 165.578125 213.835938 165.714844 214.003906 165.851562 214.222656 C 167.890625 216.464844 169.972656 218.738281 171.980469 221.035156 C 174.007812 223.28125 176.03125 225.523438 178.042969 227.796875 C 179.195312 229.082031 180.371094 230.371094 181.535156 231.65625 C 182.941406 233.214844 184.367188 234.800781 185.789062 236.390625 L 196.503906 236.390625 C 194.371094 234.039062 192.210938 231.660156 190.074219 229.277344 Z M 190.074219 229.277344 " fill-opacity="1" fill-rule="nonzero"/></svg>