<svg xmlns="http://www.w3.org/2000/svg" xmlns:xlink="http://www.w3.org/1999/xlink" width="500" zoomAndPan="magnify" viewBox="0 0 375 374.999991" height="500" preserveAspectRatio="xMidYMid meet" version="1.0"><defs><clipPath id="22b6a4c762"><path d="M 118 45.355469 L 255 45.355469 L 255 182 L 118 182 Z M 118 45.355469 " clip-rule="nonzero"/></clipPath><clipPath id="74ca895d2a"><path d="M 40.820312 206 L 60 206 L 60 329.910156 L 40.820312 329.910156 Z M 40.820312 206 " clip-rule="nonzero"/></clipPath><clipPath id="5d674621c7"><path d="M 129.824219 56.484375 L 245.175781 56.484375 L 245.175781 171.839844 L 129.824219 171.839844 Z M 129.824219 56.484375 " clip-rule="nonzero"/></clipPath><clipPath id="b1f2f89305"><path d="M 187.5 56.484375 C 155.644531 56.484375 129.824219 82.308594 129.824219 114.160156 C 129.824219 146.015625 155.644531 171.839844 187.5 171.839844 C 219.355469 171.839844 245.175781 146.015625 245.175781 114.160156 C 245.175781 82.308594 219.355469 56.484375 187.5 56.484375 Z M 187.5 56.484375 " clip-rule="nonzero"/></clipPath><clipPath id="952f71da30"><path d="M 150.621094 63 L 224.691406 63 L 224.691406 165.523438 L 150.621094 165.523438 Z M 150.621094 63 " clip-rule="nonzero"/></clipPath></defs><g clip-path="url(#22b6a4c762)"><path fill="#80cc28" d="M 186.226562 181.285156 C 223.710938 181.285156 254.203125 150.792969 254.203125 113.308594 C 254.203125 75.824219 223.710938 45.328125 186.226562 45.328125 C 148.742188 45.328125 118.246094 75.824219 118.246094 113.308594 C 118.246094 150.792969 148.742188 181.285156 186.226562 181.285156 Z M 178.789062 72.753906 L 178.789062 63.910156 C 178.789062 60.496094 181.558594 57.730469 184.96875 57.730469 C 188.382812 57.730469 191.152344 60.496094 191.152344 63.910156 L 191.152344 69.734375 C 194.25 69.800781 197.335938 70.453125 200.277344 71.699219 C 203.417969 73.035156 204.886719 76.660156 203.550781 79.804688 C 202.21875 82.945312 198.589844 84.410156 195.449219 83.078125 C 185.421875 78.820312 175.015625 88.824219 179.164062 99.089844 C 183.695312 110.292969 197.660156 104.214844 204.746094 121.742188 C 209.898438 134.488281 203.691406 148.761719 191.152344 153.871094 L 191.152344 162.707031 C 191.152344 166.117188 188.382812 168.886719 184.972656 168.886719 C 181.558594 168.886719 178.789062 166.117188 178.789062 162.707031 L 178.789062 155.535156 C 176.566406 155.257812 174.339844 154.679688 172.175781 153.761719 C 169.035156 152.429688 167.566406 148.800781 168.898438 145.660156 C 170.234375 142.515625 173.859375 141.050781 177.003906 142.382812 C 187.171875 146.699219 197.378906 136.496094 193.285156 126.375 C 188.757812 115.171875 174.792969 121.246094 167.707031 103.722656 C 162.890625 91.808594 168.019531 78.601562 178.789062 72.753906 Z M 178.789062 72.753906 " fill-opacity="1" fill-rule="nonzero"/></g><g clip-path="url(#74ca895d2a)"><path fill="#80cc28" d="M 40.996094 206.007812 L 59.535156 206.007812 L 59.535156 329.605469 L 40.996094 329.605469 Z M 40.996094 206.007812 " fill-opacity="1" fill-rule="nonzero"/></g><path fill="#80cc28" d="M 309.800781 208.496094 C 217.511719 264.667969 224.253906 261.625 217.125 261.625 L 170.773438 261.625 C 167.363281 261.625 164.59375 258.859375 164.59375 255.445312 C 164.59375 252.03125 167.363281 249.265625 170.773438 249.265625 L 217.125 249.265625 C 222.332031 249.265625 226.496094 245.003906 226.394531 239.804688 C 226.292969 234.796875 221.976562 230.726562 216.773438 230.726562 L 135.101562 230.726562 C 127.105469 230.726562 119.425781 228.625 112.894531 224.648438 C 100.390625 217.03125 84.980469 216.3125 71.894531 222.539062 L 71.894531 317.816406 L 188.121094 317.816406 L 325.066406 233.207031 C 331.878906 229 333.996094 220.035156 329.785156 213.222656 C 325.582031 206.410156 316.613281 204.289062 309.800781 208.496094 Z M 309.800781 208.496094 " fill-opacity="1" fill-rule="nonzero"/><g clip-path="url(#5d674621c7)"><g clip-path="url(#b1f2f89305)"><path fill="#80cc28" d="M 129.824219 56.484375 L 245.175781 56.484375 L 245.175781 171.839844 L 129.824219 171.839844 Z M 129.824219 56.484375 " fill-opacity="1" fill-rule="nonzero"/></g></g><g clip-path="url(#952f71da30)"><path fill="#000000" d="M 224.746094 63.007812 L 217.738281 78.4375 L 201.6875 78.4375 C 202.480469 79.371094 203.253906 80.566406 204 82.035156 C 204.746094 83.5 205.238281 84.980469 205.476562 86.46875 L 224.746094 86.46875 L 217.738281 101.898438 L 205.476562 101.898438 C 204.914062 105.25 203.757812 108.289062 202.003906 111.011719 C 200.253906 113.734375 198.066406 116.097656 195.449219 118.097656 C 192.832031 120.101562 189.867188 121.71875 186.546875 122.953125 C 183.234375 124.183594 179.726562 124.964844 176.039062 125.289062 L 214.164062 165.367188 L 189.347656 165.367188 L 154.171875 126.40625 L 154.171875 110.976562 L 164.542969 110.976562 C 165.851562 110.976562 167.507812 110.882812 169.515625 110.695312 C 171.523438 110.511719 173.523438 110.105469 175.507812 109.472656 C 177.492188 108.847656 179.304688 107.9375 180.9375 106.753906 C 182.574219 105.5625 183.695312 103.949219 184.304688 101.898438 L 150.660156 101.898438 L 157.667969 86.46875 L 184.234375 86.46875 C 183.675781 84.605469 182.648438 83.140625 181.148438 82.070312 C 179.652344 81 177.867188 80.195312 175.789062 79.660156 C 173.707031 79.125 171.382812 78.789062 168.816406 78.648438 C 166.246094 78.507812 163.582031 78.4375 160.824219 78.4375 L 150.660156 78.4375 L 157.671875 63.007812 Z M 224.746094 63.007812 " fill-opacity="1" fill-rule="nonzero"/></g></svg>