<svg xmlns="http://www.w3.org/2000/svg" xmlns:xlink="http://www.w3.org/1999/xlink" width="500" zoomAndPan="magnify" viewBox="0 0 375 374.999991" height="500" preserveAspectRatio="xMidYMid meet" version="1.0"><defs><clipPath id="9c13425f1a"><path d="M 27.53125 205.941406 L 46.710938 205.941406 L 46.710938 329.851562 L 27.53125 329.851562 Z M 27.53125 205.941406 " clip-rule="nonzero"/></clipPath><clipPath id="d4786de6c8"><path d="M 116.535156 56.429688 L 231.886719 56.429688 L 231.886719 171.789062 L 116.535156 171.789062 Z M 116.535156 56.429688 " clip-rule="nonzero"/></clipPath><clipPath id="1106152530"><path d="M 116.535156 56.429688 L 231.886719 56.429688 L 231.886719 171.789062 L 116.535156 171.789062 Z M 116.535156 56.429688 " clip-rule="nonzero"/></clipPath><clipPath id="d518820039"><path d="M 174.210938 56.429688 C 142.359375 56.429688 116.535156 82.253906 116.535156 114.105469 C 116.535156 145.957031 142.359375 171.789062 174.210938 171.789062 C 206.0625 171.789062 231.886719 145.964844 231.886719 114.105469 C 231.886719 82.246094 206.0625 56.429688 174.210938 56.429688 Z M 174.210938 56.429688 " clip-rule="nonzero"/></clipPath><clipPath id="c76d3c7ea2"><path d="M 137.332031 62.949219 L 211.402344 62.949219 L 211.402344 165.472656 L 137.332031 165.472656 Z M 137.332031 62.949219 " clip-rule="nonzero"/></clipPath></defs><path fill="#f16622" d="M 172.941406 181.230469 C 210.425781 181.230469 240.921875 150.734375 240.921875 113.25 C 240.921875 75.765625 210.425781 45.269531 172.941406 45.269531 C 135.457031 45.269531 104.960938 75.765625 104.960938 113.25 C 104.960938 150.734375 135.457031 181.230469 172.941406 181.230469 Z M 165.503906 72.699219 L 165.503906 63.855469 C 165.503906 60.441406 168.269531 57.675781 171.683594 57.675781 C 175.09375 57.675781 177.863281 60.441406 177.863281 63.855469 L 177.863281 69.683594 C 180.960938 69.75 184.042969 70.402344 186.988281 71.648438 C 190.132812 72.984375 191.601562 76.605469 190.261719 79.753906 C 188.925781 82.898438 185.300781 84.359375 182.160156 83.023438 C 172.132812 78.765625 161.730469 88.769531 165.878906 99.039062 C 170.40625 110.242188 184.371094 104.160156 191.460938 121.6875 C 196.613281 134.429688 190.402344 148.710938 177.863281 153.816406 L 177.863281 162.652344 C 177.863281 166.066406 175.09375 168.832031 171.683594 168.832031 C 168.269531 168.832031 165.503906 166.066406 165.503906 162.652344 L 165.503906 155.484375 C 163.28125 155.203125 161.054688 154.628906 158.886719 153.710938 C 155.746094 152.378906 154.273438 148.753906 155.609375 145.613281 C 156.945312 142.46875 160.566406 141 163.71875 142.335938 C 173.886719 146.65625 184.09375 136.449219 180 126.328125 C 175.46875 115.125 161.503906 121.199219 154.425781 103.679688 C 149.609375 91.761719 154.738281 78.5625 165.511719 72.710938 Z M 165.503906 72.699219 " fill-opacity="1" fill-rule="nonzero"/><path fill="#f16622" d="M 27.53125 205.941406 L 46.710938 205.941406 L 46.710938 329.851562 L 27.53125 329.851562 Z M 27.53125 205.941406 " fill-opacity="1" fill-rule="nonzero"/><g clip-path="url(#9c13425f1a)"><path fill="#f16622" d="M 27.703125 205.949219 L 46.246094 205.949219 L 46.246094 329.550781 L 27.703125 329.550781 Z M 27.703125 205.949219 " fill-opacity="1" fill-rule="nonzero"/></g><path fill="#f16622" d="M 296.511719 208.441406 C 204.226562 264.613281 210.96875 261.570312 203.835938 261.570312 L 157.484375 261.570312 C 154.074219 261.570312 151.304688 258.800781 151.304688 255.390625 C 151.304688 251.976562 154.074219 249.210938 157.484375 249.210938 L 203.835938 249.210938 C 209.039062 249.210938 213.203125 244.949219 213.105469 239.753906 C 213 234.742188 208.6875 230.675781 203.484375 230.675781 L 121.808594 230.675781 C 113.8125 230.675781 106.132812 228.578125 99.601562 224.601562 C 87.097656 216.984375 71.683594 216.269531 58.597656 222.496094 L 58.597656 317.773438 L 174.824219 317.773438 L 311.765625 233.167969 C 318.578125 228.960938 320.699219 219.996094 316.484375 213.179688 C 312.285156 206.371094 303.316406 204.246094 296.496094 208.453125 Z M 296.511719 208.441406 " fill-opacity="1" fill-rule="nonzero"/><g clip-path="url(#d4786de6c8)"><path fill="#f16622" d="M 174.210938 56.429688 C 142.359375 56.429688 116.535156 82.253906 116.535156 114.105469 C 116.535156 145.957031 142.359375 171.789062 174.210938 171.789062 C 206.0625 171.789062 231.886719 145.964844 231.886719 114.105469 C 231.886719 82.246094 206.0625 56.429688 174.210938 56.429688 Z M 174.210938 56.429688 " fill-opacity="1" fill-rule="nonzero"/></g><g clip-path="url(#1106152530)"><g clip-path="url(#d518820039)"><path fill="#f16622" d="M 116.535156 56.429688 L 231.886719 56.429688 L 231.886719 171.789062 L 116.535156 171.789062 Z M 116.535156 56.429688 " fill-opacity="1" fill-rule="nonzero"/></g></g><g clip-path="url(#c76d3c7ea2)"><path fill="#ffffff" d="M 211.453125 62.953125 L 204.449219 78.382812 L 188.398438 78.382812 C 189.195312 79.3125 189.96875 80.511719 190.710938 81.984375 C 191.453125 83.445312 191.949219 84.929688 192.1875 86.414062 L 211.453125 86.414062 L 204.449219 101.84375 L 192.1875 101.84375 C 191.625 105.195312 190.46875 108.234375 188.714844 110.953125 C 186.96875 113.675781 184.777344 116.039062 182.160156 118.042969 C 179.542969 120.046875 176.578125 121.664062 173.257812 122.894531 C 169.941406 124.125 166.441406 124.90625 162.75 125.226562 L 200.871094 165.308594 L 176.054688 165.308594 L 140.878906 126.34375 L 140.878906 110.917969 L 151.253906 110.917969 C 152.558594 110.917969 154.214844 110.820312 156.226562 110.632812 C 158.234375 110.453125 160.230469 110.039062 162.21875 109.410156 C 164.203125 108.789062 166.011719 107.871094 167.648438 106.6875 C 169.28125 105.496094 170.40625 103.882812 171.015625 101.835938 L 137.371094 101.835938 L 144.375 86.40625 L 170.941406 86.40625 C 170.386719 84.546875 169.359375 83.078125 167.859375 82.011719 C 166.363281 80.941406 164.574219 80.136719 162.496094 79.605469 C 160.410156 79.074219 158.085938 78.734375 155.519531 78.59375 C 152.949219 78.449219 150.285156 78.382812 147.523438 78.382812 L 137.363281 78.382812 L 144.375 62.953125 Z M 211.453125 62.953125 " fill-opacity="1" fill-rule="nonzero"/></g></svg>