<svg xmlns="http://www.w3.org/2000/svg" xmlns:xlink="http://www.w3.org/1999/xlink" width="500" zoomAndPan="magnify" viewBox="0 0 375 374.999991" height="500" preserveAspectRatio="xMidYMid meet" version="1.0"><defs><clipPath id="26b4f72750"><path d="M 27.496094 243 L 347.746094 243 L 347.746094 347.746094 L 27.496094 347.746094 Z M 27.496094 243 " clip-rule="nonzero"/></clipPath><clipPath id="7c3f007f46"><path d="M 96 27.496094 L 279 27.496094 L 279 316 L 96 316 Z M 96 27.496094 " clip-rule="nonzero"/></clipPath></defs><g clip-path="url(#26b4f72750)"><path fill="#80cc28" d="M 242.058594 243.871094 C 242.058594 243.871094 241.632812 243.871094 241.472656 243.871094 L 241.417969 243.871094 L 241.417969 249.417969 C 241.417969 249.417969 240.886719 254.484375 240.886719 254.484375 C 303.875 261.738281 336.832031 279.980469 336.832031 294.21875 C 336.832031 314.058594 279.074219 335.875 192.886719 336.832031 C 191.125 336.832031 189.3125 336.832031 187.5 336.832031 C 185.632812 336.832031 183.871094 336.832031 181.953125 336.832031 C 95.925781 335.875 38.164062 314.058594 38.164062 294.21875 C 38.164062 279.980469 71.125 261.792969 134.109375 254.484375 L 133.523438 249.417969 L 133.523438 243.820312 C 133.523438 243.820312 133.097656 243.820312 132.882812 243.820312 C 81.898438 249.6875 27.441406 266.007812 27.441406 294.113281 C 27.441406 327.605469 106.964844 346.59375 181.738281 347.394531 C 183.605469 347.445312 185.523438 347.445312 187.445312 347.445312 C 189.363281 347.445312 191.285156 347.445312 193.097656 347.445312 C 267.925781 346.648438 347.445312 327.660156 347.445312 294.167969 C 347.445312 266.007812 292.992188 249.738281 242.003906 243.871094 Z M 242.058594 243.871094 " fill-opacity="1" fill-rule="nonzero"/></g><g clip-path="url(#7c3f007f46)"><path fill="#80cc28" d="M 182.699219 312.511719 C 183.605469 314.328125 185.472656 315.5 187.5 315.5 C 189.523438 315.5 191.390625 314.328125 192.296875 312.511719 L 268.566406 158.429688 C 285.257812 123.605469 279.925781 84.03125 255.074219 57.628906 C 236.726562 38.164062 212.777344 27.441406 187.5 27.441406 C 162.21875 27.441406 138.269531 38.164062 119.925781 57.628906 C 95.070312 84.03125 89.789062 123.605469 106.429688 158.429688 C 106.429688 158.429688 182.644531 312.511719 182.644531 312.511719 Z M 187.5 43.496094 C 228.726562 43.496094 262.164062 76.9375 262.164062 118.164062 C 262.164062 159.390625 228.726562 192.832031 187.5 192.832031 C 146.269531 192.832031 112.832031 159.390625 112.832031 118.164062 C 112.832031 76.9375 146.269531 43.496094 187.5 43.496094 Z M 187.5 43.496094 " fill-opacity="1" fill-rule="nonzero"/></g><path fill="#80cc28" d="M 214.164062 123.496094 L 224.832031 123.496094 L 224.832031 134.164062 L 214.164062 134.164062 Z M 214.164062 123.496094 " fill-opacity="1" fill-rule="nonzero"/><path fill="#80cc28" d="M 192.832031 123.496094 L 203.5 123.496094 L 203.5 134.164062 L 192.832031 134.164062 Z M 192.832031 123.496094 " fill-opacity="1" fill-rule="nonzero"/><path fill="#80cc28" d="M 155.496094 80.832031 L 176.832031 80.832031 C 177.183594 80.832031 177.527344 80.863281 177.871094 80.933594 C 178.214844 81 178.550781 81.101562 178.871094 81.234375 C 179.195312 81.371094 179.503906 81.535156 179.792969 81.730469 C 180.085938 81.921875 180.355469 82.144531 180.601562 82.390625 C 180.851562 82.640625 181.070312 82.910156 181.265625 83.199219 C 181.460938 83.492188 181.625 83.800781 181.757812 84.121094 C 181.894531 84.445312 181.992188 84.78125 182.0625 85.125 C 182.128906 85.464844 182.164062 85.8125 182.164062 86.164062 L 182.164062 107.496094 C 182.164062 107.847656 182.128906 108.195312 182.0625 108.539062 C 181.992188 108.882812 181.894531 109.214844 181.757812 109.539062 C 181.625 109.863281 181.460938 110.167969 181.265625 110.460938 C 181.070312 110.75 180.851562 111.019531 180.601562 111.269531 C 180.355469 111.515625 180.085938 111.738281 179.792969 111.933594 C 179.503906 112.125 179.195312 112.289062 178.871094 112.425781 C 178.550781 112.558594 178.214844 112.660156 177.871094 112.726562 C 177.527344 112.796875 177.183594 112.832031 176.832031 112.832031 L 155.496094 112.832031 C 155.148438 112.832031 154.800781 112.796875 154.457031 112.726562 C 154.113281 112.660156 153.78125 112.558594 153.457031 112.425781 C 153.132812 112.289062 152.824219 112.125 152.535156 111.933594 C 152.242188 111.738281 151.972656 111.515625 151.726562 111.269531 C 151.480469 111.019531 151.257812 110.75 151.0625 110.460938 C 150.867188 110.167969 150.703125 109.863281 150.570312 109.539062 C 150.4375 109.214844 150.335938 108.882812 150.265625 108.539062 C 150.199219 108.195312 150.164062 107.847656 150.164062 107.496094 L 150.164062 86.164062 C 150.164062 85.8125 150.199219 85.464844 150.265625 85.125 C 150.335938 84.78125 150.4375 84.445312 150.570312 84.121094 C 150.703125 83.800781 150.867188 83.492188 151.0625 83.199219 C 151.257812 82.910156 151.480469 82.640625 151.726562 82.390625 C 151.972656 82.144531 152.242188 81.921875 152.535156 81.730469 C 152.824219 81.535156 153.132812 81.371094 153.457031 81.234375 C 153.78125 81.101562 154.113281 81 154.457031 80.933594 C 154.800781 80.863281 155.148438 80.832031 155.496094 80.832031 Z M 155.496094 80.832031 " fill-opacity="1" fill-rule="nonzero"/><path fill="#80cc28" d="M 198.164062 80.832031 L 219.5 80.832031 C 219.847656 80.832031 220.195312 80.863281 220.539062 80.933594 C 220.882812 81 221.214844 81.101562 221.539062 81.234375 C 221.863281 81.371094 222.171875 81.535156 222.460938 81.730469 C 222.753906 81.921875 223.023438 82.144531 223.269531 82.390625 C 223.519531 82.640625 223.738281 82.910156 223.933594 83.199219 C 224.128906 83.492188 224.292969 83.800781 224.425781 84.121094 C 224.558594 84.445312 224.660156 84.78125 224.730469 85.125 C 224.796875 85.464844 224.832031 85.8125 224.832031 86.164062 L 224.832031 107.496094 C 224.832031 107.847656 224.796875 108.195312 224.730469 108.539062 C 224.660156 108.882812 224.558594 109.214844 224.425781 109.539062 C 224.292969 109.863281 224.128906 110.167969 223.933594 110.460938 C 223.738281 110.75 223.519531 111.019531 223.269531 111.269531 C 223.023438 111.515625 222.753906 111.738281 222.460938 111.933594 C 222.171875 112.125 221.863281 112.289062 221.539062 112.425781 C 221.214844 112.558594 220.882812 112.660156 220.539062 112.726562 C 220.195312 112.796875 219.847656 112.832031 219.5 112.832031 L 198.164062 112.832031 C 197.816406 112.832031 197.46875 112.796875 197.125 112.726562 C 196.78125 112.660156 196.449219 112.558594 196.125 112.425781 C 195.800781 112.289062 195.492188 112.125 195.203125 111.933594 C 194.910156 111.738281 194.640625 111.515625 194.394531 111.269531 C 194.144531 111.019531 193.925781 110.75 193.730469 110.460938 C 193.535156 110.167969 193.371094 109.863281 193.238281 109.539062 C 193.105469 109.214844 193.003906 108.882812 192.933594 108.539062 C 192.867188 108.195312 192.832031 107.847656 192.832031 107.496094 L 192.832031 86.164062 C 192.832031 85.8125 192.867188 85.464844 192.933594 85.125 C 193.003906 84.78125 193.105469 84.445312 193.238281 84.121094 C 193.371094 83.800781 193.535156 83.492188 193.730469 83.199219 C 193.925781 82.910156 194.144531 82.640625 194.394531 82.390625 C 194.640625 82.144531 194.910156 81.921875 195.203125 81.730469 C 195.492188 81.535156 195.800781 81.371094 196.125 81.234375 C 196.449219 81.101562 196.78125 81 197.125 80.933594 C 197.46875 80.863281 197.816406 80.832031 198.164062 80.832031 Z M 198.164062 80.832031 " fill-opacity="1" fill-rule="nonzero"/><path fill="#80cc28" d="M 139.496094 171.5 L 171.5 171.5 L 171.5 160.832031 L 144.832031 160.832031 L 144.832031 134.164062 L 134.164062 134.164062 L 134.164062 166.164062 C 134.164062 169.097656 136.5625 171.5 139.496094 171.5 Z M 139.496094 171.5 " fill-opacity="1" fill-rule="nonzero"/><path fill="#80cc28" d="M 155.496094 123.496094 L 176.832031 123.496094 C 177.183594 123.496094 177.527344 123.53125 177.871094 123.601562 C 178.214844 123.667969 178.550781 123.769531 178.871094 123.902344 C 179.195312 124.039062 179.503906 124.203125 179.792969 124.394531 C 180.085938 124.589844 180.355469 124.8125 180.601562 125.058594 C 180.851562 125.308594 181.070312 125.578125 181.265625 125.867188 C 181.460938 126.160156 181.625 126.464844 181.757812 126.789062 C 181.894531 127.113281 181.992188 127.445312 182.0625 127.789062 C 182.128906 128.132812 182.164062 128.480469 182.164062 128.832031 L 182.164062 150.164062 C 182.164062 150.515625 182.128906 150.863281 182.0625 151.203125 C 181.992188 151.546875 181.894531 151.882812 181.757812 152.207031 C 181.625 152.527344 181.460938 152.835938 181.265625 153.128906 C 181.070312 153.417969 180.851562 153.6875 180.601562 153.9375 C 180.355469 154.183594 180.085938 154.40625 179.792969 154.597656 C 179.503906 154.792969 179.195312 154.957031 178.871094 155.09375 C 178.550781 155.226562 178.214844 155.328125 177.871094 155.394531 C 177.527344 155.464844 177.183594 155.496094 176.832031 155.496094 L 155.496094 155.496094 C 155.148438 155.496094 154.800781 155.464844 154.457031 155.394531 C 154.113281 155.328125 153.78125 155.226562 153.457031 155.09375 C 153.132812 154.957031 152.824219 154.792969 152.535156 154.597656 C 152.242188 154.40625 151.972656 154.183594 151.726562 153.9375 C 151.480469 153.6875 151.257812 153.417969 151.0625 153.128906 C 150.867188 152.835938 150.703125 152.527344 150.570312 152.207031 C 150.4375 151.882812 150.335938 151.546875 150.265625 151.203125 C 150.199219 150.863281 150.164062 150.515625 150.164062 150.164062 L 150.164062 128.832031 C 150.164062 128.480469 150.199219 128.132812 150.265625 127.789062 C 150.335938 127.445312 150.4375 127.113281 150.570312 126.789062 C 150.703125 126.464844 150.867188 126.160156 151.0625 125.867188 C 151.257812 125.578125 151.480469 125.308594 151.726562 125.058594 C 151.972656 124.8125 152.242188 124.589844 152.535156 124.394531 C 152.824219 124.203125 153.132812 124.039062 153.457031 123.902344 C 153.78125 123.769531 154.113281 123.667969 154.457031 123.601562 C 154.800781 123.53125 155.148438 123.496094 155.496094 123.496094 Z M 155.496094 123.496094 " fill-opacity="1" fill-rule="nonzero"/><path fill="#80cc28" d="M 144.832031 75.496094 L 171.5 75.496094 L 171.5 64.832031 L 139.496094 64.832031 C 136.5625 64.832031 134.164062 67.230469 134.164062 70.164062 L 134.164062 102.164062 L 144.832031 102.164062 Z M 144.832031 75.496094 " fill-opacity="1" fill-rule="nonzero"/><path fill="#80cc28" d="M 203.5 134.164062 L 214.164062 134.164062 L 214.164062 144.832031 L 203.5 144.832031 Z M 203.5 134.164062 " fill-opacity="1" fill-rule="nonzero"/><path fill="#80cc28" d="M 230.164062 102.164062 L 240.832031 102.164062 L 240.832031 70.164062 C 240.832031 67.230469 238.433594 64.832031 235.5 64.832031 L 203.5 64.832031 L 203.5 75.496094 L 230.164062 75.496094 Z M 230.164062 102.164062 " fill-opacity="1" fill-rule="nonzero"/><path fill="#80cc28" d="M 230.164062 160.832031 L 203.5 160.832031 L 203.5 171.5 L 235.5 171.5 C 238.433594 171.5 240.832031 169.097656 240.832031 166.164062 L 240.832031 134.164062 L 230.164062 134.164062 Z M 230.164062 160.832031 " fill-opacity="1" fill-rule="nonzero"/><path fill="#80cc28" d="M 192.832031 144.832031 L 203.5 144.832031 L 203.5 155.496094 L 192.832031 155.496094 Z M 192.832031 144.832031 " fill-opacity="1" fill-rule="nonzero"/><path fill="#80cc28" d="M 214.164062 144.832031 L 224.832031 144.832031 L 224.832031 155.496094 L 214.164062 155.496094 Z M 214.164062 144.832031 " fill-opacity="1" fill-rule="nonzero"/></svg>