<svg xmlns="http://www.w3.org/2000/svg" xmlns:xlink="http://www.w3.org/1999/xlink" width="500" zoomAndPan="magnify" viewBox="0 0 375 374.999991" height="500" preserveAspectRatio="xMidYMid meet" version="1.0"><defs><clipPath id="8029289301"><path d="M 62.820312 112.691406 L 311.820312 112.691406 L 311.820312 261.941406 L 62.820312 261.941406 Z M 62.820312 112.691406 " clip-rule="nonzero"/></clipPath></defs><g clip-path="url(#8029289301)"><path fill="#80cc28" d="M 290.800781 112.691406 L 84.1875 112.691406 C 72.402344 112.691406 62.820312 122.277344 62.820312 134.0625 L 62.820312 240.925781 C 62.820312 252.71875 72.402344 262.304688 84.1875 262.304688 L 290.792969 262.304688 C 302.585938 262.304688 312.171875 252.71875 312.171875 240.933594 L 312.171875 134.0625 C 312.171875 122.277344 302.585938 112.691406 290.800781 112.691406 Z M 84.1875 121.003906 L 290.792969 121.003906 C 298 121.003906 303.859375 126.863281 303.859375 134.0625 L 303.859375 233.363281 L 71.132812 233.363281 L 71.132812 134.0625 C 71.132812 126.863281 76.992188 121.003906 84.1875 121.003906 Z M 290.800781 253.992188 L 84.1875 253.992188 C 77.242188 253.992188 71.597656 248.523438 71.207031 241.675781 L 303.785156 241.675781 C 303.394531 248.523438 297.742188 253.992188 290.800781 253.992188 Z M 290.800781 253.992188 " fill-opacity="1" fill-rule="nonzero"/></g><path fill="#80cc28" d="M 92.136719 218.078125 L 144.664062 218.078125 C 151.746094 218.078125 157.507812 212.316406 157.507812 205.234375 L 157.507812 152.695312 C 157.507812 145.617188 151.746094 139.863281 144.664062 139.863281 L 92.136719 139.863281 C 85.054688 139.863281 79.292969 145.625 79.292969 152.695312 L 79.292969 205.234375 C 79.292969 212.316406 85.054688 218.078125 92.136719 218.078125 Z M 101.683594 209.765625 L 101.683594 197.722656 C 101.683594 188.503906 109.183594 181.007812 118.398438 181.007812 C 127.617188 181.007812 135.113281 188.503906 135.113281 197.722656 L 135.113281 209.765625 Z M 111.542969 165.828125 C 111.542969 162.039062 114.625 158.964844 118.40625 158.964844 C 122.191406 158.964844 125.273438 162.046875 125.273438 165.828125 C 125.273438 169.613281 122.191406 172.695312 118.40625 172.695312 C 114.625 172.695312 111.542969 169.613281 111.542969 165.828125 Z M 87.605469 152.6875 C 87.605469 150.195312 89.640625 148.167969 92.136719 148.167969 L 144.671875 148.167969 C 147.167969 148.167969 149.203125 150.195312 149.203125 152.6875 L 149.203125 205.226562 C 149.203125 207.71875 147.167969 209.757812 144.671875 209.757812 L 143.433594 209.757812 L 143.433594 197.722656 C 143.433594 188.089844 137.898438 179.800781 129.902344 175.621094 C 132.164062 172.96875 133.585938 169.578125 133.585938 165.828125 C 133.585938 157.460938 126.777344 150.652344 118.40625 150.652344 C 110.039062 150.652344 103.230469 157.460938 103.230469 165.828125 C 103.230469 169.578125 104.652344 172.96875 106.914062 175.621094 C 98.917969 179.800781 93.382812 188.089844 93.382812 197.722656 L 93.382812 209.765625 L 92.136719 209.765625 C 89.640625 209.765625 87.605469 207.730469 87.605469 205.234375 Z M 87.605469 152.6875 " fill-opacity="1" fill-rule="nonzero"/><path fill="#80cc28" d="M 176.066406 191.652344 L 287.386719 191.652344 C 289.679688 191.652344 291.542969 189.792969 291.542969 187.5 C 291.542969 185.203125 289.679688 183.34375 287.386719 183.34375 L 176.066406 183.34375 C 173.773438 183.34375 171.910156 185.203125 171.910156 187.5 C 171.910156 189.792969 173.773438 191.652344 176.066406 191.652344 Z M 176.066406 191.652344 " fill-opacity="1" fill-rule="nonzero"/><path fill="#80cc28" d="M 176.066406 212.734375 L 249.984375 212.734375 C 252.277344 212.734375 254.136719 210.871094 254.136719 208.578125 C 254.136719 206.28125 252.277344 204.421875 249.984375 204.421875 L 176.066406 204.421875 C 173.773438 204.421875 171.910156 206.28125 171.910156 208.578125 C 171.910156 210.871094 173.773438 212.734375 176.066406 212.734375 Z M 176.066406 212.734375 " fill-opacity="1" fill-rule="nonzero"/><path fill="#80cc28" d="M 176.066406 170.574219 L 249.984375 170.574219 C 252.277344 170.574219 254.136719 168.714844 254.136719 166.417969 C 254.136719 164.125 252.277344 162.265625 249.984375 162.265625 L 176.066406 162.265625 C 173.773438 162.265625 171.910156 164.125 171.910156 166.417969 C 171.910156 168.714844 173.773438 170.574219 176.066406 170.574219 Z M 176.066406 170.574219 " fill-opacity="1" fill-rule="nonzero"/><path fill="#80cc28" d="M 176.066406 149.503906 L 266.457031 149.503906 C 268.75 149.503906 270.613281 147.644531 270.613281 145.347656 C 270.613281 143.054688 268.75 141.195312 266.457031 141.195312 L 176.066406 141.195312 C 173.773438 141.195312 171.910156 143.054688 171.910156 145.347656 C 171.910156 147.644531 173.773438 149.503906 176.066406 149.503906 Z M 176.066406 149.503906 " fill-opacity="1" fill-rule="nonzero"/></svg>