<?xml version="1.0" encoding="UTF-8"?>
<svg id="Layer_1" data-name="Layer 1" xmlns="http://www.w3.org/2000/svg" viewBox="0 0 90 75.36">
  <defs>
    <style>
      .cls-1 {
        fill: #4e317b;
      }

      .cls-2 {
        fill: #ffc734;
      }
    </style>
  </defs>
  <path class="cls-2" d="M64.18,1.8v73.29H.67V18.98C.67,8.67,8.93.32,19.12.28l45.06,1.52ZM54.92,29.14H9.92v2.87h45v-2.87ZM54.92,43.37H9.92v2.86h45v-2.86ZM28.71,57.59H9.92v2.87h18.79v-2.87ZM54.92,14.92H10.86c-.44.88-.72,1.84-.86,2.86h44.92v-2.86Z"/>
  <path class="cls-1" d="M89.33,18.98c0,5.16-2.08,9.84-5.43,13.21-3.36,3.39-8,5.49-13.11,5.49H25.12v-1.02c2.71-.93,5.12-2.46,7.11-4.47l.19-.19c.84-.88,1.6-1.84,2.27-2.87,1.88-2.92,2.97-6.4,2.97-10.15,0-.41-.02-.82-.05-1.21-.05-.97-.19-1.93-.39-2.86C35.39,6.54,27.97.28,19.12.28h51.67c10.24,0,18.54,8.36,18.54,18.71Z"/>
</svg>