<svg width="14" height="16" viewBox="0 0 14 16" fill="none" xmlns="http://www.w3.org/2000/svg">
<g clip-path="url(#clip0_2455_4253)">
<path d="M1.71094 15.633V0.367188H8.71875L12.3051 3.95028V15.633H1.71094Z" fill="white"/>
<path d="M8.5667 0.734561L11.9378 4.10257V15.2658H2.07785V0.73424L8.5667 0.734561ZM8.87063 0H1.34375V16H12.6717V3.79786L8.87063 0Z" fill="#D9D9D9"/>
<path d="M12.3051 15.633H1.71094V0.367188H8.71875L8.80181 0.450248V3.87043H12.2247L12.3051 3.95028V15.633Z" fill="#F5F4F4"/>
<path d="M8.43481 0.734378V4.23748H11.9379V15.2658H2.07799V0.73424H8.43467M8.87063 0H1.34375V16H12.6717V3.79786L12.3766 3.50306H9.16859V0.29801L8.87063 0Z" fill="#D9D9D9"/>
<path d="M11.1886 3.29352H9.41406V1.5L11.1886 3.23065V3.29352Z" fill="#D9D9D9"/>
<path d="M9.78111 2.37063L10.3506 2.92609H9.78111V2.37063ZM9.55157 1.12109H9.04688V3.66033H11.5555V3.07559L9.55157 1.12109Z" fill="#D9D9D9"/>
<path d="M13.6453 12.322H0.367188V6.96157L1.04393 6.28516V7.13642H12.9689V6.28516L13.6453 6.96157V12.322Z" fill="#ED1C24"/>
<path d="M13.2688 7.00471L13.349 7.08488V12.0236H0.667296V7.08488L0.747465 7.00471V7.43433H13.2686V7.00471M12.672 5.56445V6.83776H1.34362V5.56445L0.0703125 6.83776V12.6199H13.9452V6.83776L12.672 5.56445Z" fill="#ED1C24"/>
<path d="M2.14844 11.7321V7.91406H3.54643C3.75398 7.91406 3.95173 7.9356 4.1397 7.97868C4.32766 8.01783 4.49213 8.08832 4.63311 8.19014C4.77408 8.28804 4.88568 8.41922 4.96792 8.58369C5.05407 8.74424 5.09715 8.94396 5.09715 9.18283C5.09715 9.41779 5.05407 9.61946 4.96792 9.78784C4.88568 9.95623 4.77408 10.0952 4.63311 10.2049C4.49213 10.3106 4.32962 10.3909 4.14557 10.4457C3.96152 10.4966 3.76964 10.5221 3.56993 10.5221H3.15875V11.7321H2.14844ZM3.15875 9.72323H3.52293C3.72265 9.72323 3.8695 9.67624 3.96348 9.58226C4.06138 9.48827 4.11033 9.35513 4.11033 9.18283C4.11033 9.01053 4.05746 8.88913 3.95173 8.81865C3.846 8.74816 3.69524 8.71292 3.49944 8.71292H3.15875V9.72323Z" fill="white"/>
<path d="M5.71875 11.7321V7.91406H6.84654C7.13632 7.91406 7.40065 7.94931 7.63952 8.01979C7.88231 8.09028 8.08986 8.20188 8.26216 8.35461C8.43446 8.50733 8.5676 8.70313 8.66158 8.942C8.75948 9.18087 8.80843 9.46869 8.80843 9.80546C8.80843 10.1422 8.76144 10.432 8.66746 10.6748C8.57348 10.9176 8.44033 11.1173 8.26803 11.2739C8.09965 11.4306 7.89797 11.5461 7.66302 11.6205C7.43198 11.6949 7.1794 11.7321 6.90528 11.7321H5.71875ZM6.72906 10.9215H6.7878C6.92486 10.9215 7.05409 10.9058 7.17548 10.8745C7.29688 10.8393 7.40065 10.7805 7.4868 10.6983C7.57687 10.6161 7.64735 10.5025 7.69826 10.3576C7.74917 10.2127 7.77462 10.0287 7.77462 9.80546C7.77462 9.58226 7.74917 9.40016 7.69826 9.25919C7.64735 9.11822 7.57687 9.00857 7.4868 8.93025C7.40065 8.85193 7.29688 8.79907 7.17548 8.77165C7.05409 8.74033 6.92486 8.72466 6.7878 8.72466H6.72906V10.9215Z" fill="white"/>
<path d="M9.49219 11.7321V7.91406H11.9827V8.75991H10.5025V9.48827H11.7713V10.3341H10.5025V11.7321H9.49219Z" fill="white"/>
</g>
<defs>
<clipPath id="clip0_2455_4253">
<rect width="14" height="16" fill="white"/>
</clipPath>
</defs>
</svg>
