<svg xmlns="http://www.w3.org/2000/svg" xmlns:xlink="http://www.w3.org/1999/xlink" width="500" zoomAndPan="magnify" viewBox="0 0 375 374.999991" height="500" preserveAspectRatio="xMidYMid meet" version="1.0"><defs><clipPath id="bd055e4ac2"><path d="M 37.5 37.5 L 337.5 37.5 L 337.5 337.5 L 37.5 337.5 Z M 37.5 37.5 " clip-rule="nonzero"/></clipPath></defs><g clip-path="url(#bd055e4ac2)"><path fill="#80cc28" d="M 187.476562 37.5 C 104.632812 37.5 37.476562 104.65625 37.476562 187.5 C 37.476562 270.34375 104.632812 337.5 187.476562 337.5 C 270.316406 337.5 337.476562 270.34375 337.476562 187.5 C 337.476562 104.65625 270.316406 37.5 187.476562 37.5 Z M 93.300781 281.25 C 93.300781 255.359375 103.792969 231.921875 120.757812 214.957031 C 137.722656 197.992188 161.160156 187.5 187.050781 187.5 C 161.160156 187.5 140.175781 166.515625 140.175781 140.625 C 140.175781 114.734375 161.160156 93.75 187.050781 93.75 C 212.941406 93.75 233.925781 114.734375 233.925781 140.625 C 233.925781 166.515625 212.941406 187.5 187.050781 187.5 C 212.941406 187.5 236.378906 197.992188 253.34375 214.957031 C 270.308594 231.921875 280.800781 255.359375 280.800781 281.25 Z M 93.300781 281.25 " fill-opacity="1" fill-rule="nonzero"/></g></svg>