<svg xmlns="http://www.w3.org/2000/svg" xmlns:xlink="http://www.w3.org/1999/xlink" width="500" zoomAndPan="magnify" viewBox="0 0 375 374.999991" height="500" preserveAspectRatio="xMidYMid meet" version="1.0"><defs><clipPath id="d3fee9c1ef"><path d="M 47.800781 46 L 327.550781 46 L 327.550781 336.789062 L 47.800781 336.789062 Z M 47.800781 46 " clip-rule="nonzero"/></clipPath></defs><g clip-path="url(#d3fee9c1ef)"><path fill="#80cc28" d="M 232.058594 238.738281 L 263.371094 195.832031 C 264.214844 194.671875 265.035156 193.496094 265.828125 192.296875 C 266.621094 191.097656 267.382812 189.882812 268.121094 188.652344 C 268.859375 187.417969 269.566406 186.171875 270.246094 184.90625 C 270.925781 183.640625 271.574219 182.359375 272.195312 181.066406 C 272.816406 179.769531 273.40625 178.460938 273.96875 177.140625 C 274.527344 175.816406 275.058594 174.484375 275.558594 173.136719 C 276.054688 171.789062 276.523438 170.433594 276.960938 169.066406 C 277.398438 167.699219 277.804688 166.320312 278.179688 164.933594 C 278.554688 163.546875 278.894531 162.152344 279.207031 160.75 C 279.515625 159.347656 279.792969 157.941406 280.039062 156.527344 C 280.285156 155.109375 280.496094 153.691406 280.675781 152.265625 C 280.859375 150.84375 281.003906 149.414062 281.121094 147.984375 C 281.234375 146.550781 281.316406 145.117188 281.367188 143.683594 C 281.414062 142.246094 281.429688 140.8125 281.414062 139.375 C 281.398438 137.941406 281.347656 136.503906 281.265625 135.070312 C 281.183594 133.636719 281.066406 132.207031 280.921875 130.777344 C 280.773438 129.351562 280.589844 127.925781 280.378906 126.507812 C 280.164062 125.085938 279.917969 123.671875 279.640625 122.261719 C 279.363281 120.855469 279.050781 119.453125 278.707031 118.058594 C 278.367188 116.664062 277.992188 115.277344 277.585938 113.902344 C 277.179688 112.523438 276.742188 111.15625 276.273438 109.796875 C 275.804688 108.441406 275.304688 107.09375 274.773438 105.761719 C 274.242188 104.425781 273.683594 103.105469 273.089844 101.796875 C 272.5 100.488281 271.878906 99.195312 271.226562 97.914062 C 270.578125 96.632812 269.898438 95.367188 269.1875 94.121094 C 268.480469 92.871094 267.742188 91.640625 266.976562 90.421875 C 266.214844 89.207031 265.421875 88.011719 264.601562 86.832031 C 263.78125 85.652344 262.933594 84.496094 262.0625 83.355469 C 261.1875 82.214844 260.289062 81.09375 259.363281 79.996094 C 258.441406 78.898438 257.492188 77.820312 256.515625 76.765625 C 255.542969 75.710938 254.546875 74.675781 253.523438 73.667969 C 252.503906 72.660156 251.457031 71.671875 250.390625 70.710938 C 249.324219 69.75 248.238281 68.8125 247.128906 67.902344 C 246.019531 66.988281 244.890625 66.105469 243.738281 65.246094 C 242.589844 64.382812 241.417969 63.550781 240.230469 62.746094 C 239.042969 61.9375 237.835938 61.160156 236.613281 60.410156 C 235.390625 59.660156 234.148438 58.9375 232.890625 58.242188 C 231.632812 57.546875 230.363281 56.882812 229.074219 56.246094 C 227.785156 55.613281 226.484375 55.003906 225.167969 54.429688 C 223.855469 53.855469 222.527344 53.308594 221.1875 52.792969 C 219.84375 52.277344 218.492188 51.792969 217.132812 51.339844 C 215.769531 50.886719 214.394531 50.464844 213.015625 50.074219 C 211.632812 49.6875 210.242188 49.328125 208.84375 49 C 207.445312 48.675781 206.039062 48.378906 204.628906 48.117188 C 203.214844 47.855469 201.800781 47.628906 200.375 47.429688 C 198.953125 47.234375 197.527344 47.070312 196.097656 46.9375 C 194.667969 46.804688 193.234375 46.707031 191.800781 46.640625 C 190.367188 46.574219 188.929688 46.542969 187.496094 46.542969 C 186.058594 46.542969 184.625 46.574219 183.191406 46.640625 C 181.753906 46.707031 180.324219 46.804688 178.894531 46.9375 C 177.464844 47.070312 176.035156 47.234375 174.613281 47.429688 C 173.191406 47.628906 171.773438 47.855469 170.363281 48.117188 C 168.953125 48.378906 167.546875 48.675781 166.148438 49 C 164.75 49.328125 163.359375 49.6875 161.976562 50.074219 C 160.59375 50.464844 159.222656 50.886719 157.859375 51.339844 C 156.496094 51.792969 155.144531 52.277344 153.804688 52.792969 C 152.464844 53.308594 151.136719 53.855469 149.820312 54.429688 C 148.507812 55.003906 147.203125 55.613281 145.917969 56.246094 C 144.628906 56.882812 143.355469 57.546875 142.101562 58.242188 C 140.84375 58.9375 139.601562 59.660156 138.378906 60.410156 C 137.15625 61.160156 135.949219 61.9375 134.761719 62.746094 C 133.570312 63.550781 132.402344 64.382812 131.253906 65.246094 C 130.101562 66.105469 128.972656 66.988281 127.863281 67.902344 C 126.753906 68.8125 125.664062 69.75 124.597656 70.710938 C 123.53125 71.671875 122.488281 72.660156 121.46875 73.667969 C 120.445312 74.675781 119.449219 75.710938 118.476562 76.765625 C 117.5 77.820312 116.550781 78.898438 115.625 79.996094 C 114.703125 81.09375 113.804688 82.214844 112.929688 83.355469 C 112.058594 84.496094 111.210938 85.652344 110.390625 86.832031 C 109.570312 88.011719 108.777344 89.207031 108.011719 90.421875 C 107.246094 91.640625 106.511719 92.871094 105.800781 94.121094 C 105.09375 95.367188 104.414062 96.632812 103.761719 97.914062 C 103.113281 99.195312 102.492188 100.488281 101.902344 101.796875 C 101.308594 103.105469 100.75 104.425781 100.21875 105.761719 C 99.6875 107.09375 99.1875 108.441406 98.71875 109.796875 C 98.25 111.15625 97.8125 112.523438 97.40625 113.902344 C 97 115.277344 96.625 116.664062 96.28125 118.058594 C 95.941406 119.453125 95.628906 120.855469 95.351562 122.261719 C 95.074219 123.671875 94.828125 125.085938 94.613281 126.507812 C 94.398438 127.925781 94.21875 129.351562 94.070312 130.777344 C 93.921875 132.207031 93.808594 133.636719 93.726562 135.070312 C 93.640625 136.503906 93.59375 137.941406 93.578125 139.375 C 93.558594 140.8125 93.574219 142.246094 93.625 143.683594 C 93.675781 145.117188 93.757812 146.550781 93.871094 147.984375 C 93.984375 149.414062 94.132812 150.84375 94.3125 152.265625 C 94.496094 153.691406 94.707031 155.109375 94.953125 156.527344 C 95.199219 157.941406 95.476562 159.347656 95.785156 160.75 C 96.097656 162.152344 96.4375 163.546875 96.8125 164.933594 C 97.1875 166.320312 97.59375 167.699219 98.027344 169.066406 C 98.464844 170.433594 98.933594 171.789062 99.433594 173.136719 C 99.933594 174.484375 100.464844 175.816406 101.023438 177.140625 C 101.585938 178.460938 102.175781 179.769531 102.796875 181.066406 C 103.417969 182.359375 104.066406 183.640625 104.746094 184.90625 C 105.425781 186.171875 106.132812 187.417969 106.871094 188.652344 C 107.605469 189.882812 108.371094 191.097656 109.164062 192.296875 C 109.957031 193.496094 110.777344 194.671875 111.621094 195.832031 L 142.941406 238.75 C 90.910156 244.539062 47.800781 260.644531 47.800781 286.390625 C 47.800781 319.265625 118.074219 336.46875 187.496094 336.46875 C 256.914062 336.46875 327.1875 319.265625 327.1875 286.390625 C 327.1875 260.644531 284.089844 244.523438 232.058594 238.738281 Z M 124.398438 186.511719 C 122.988281 184.578125 121.671875 182.589844 120.445312 180.539062 C 119.21875 178.488281 118.089844 176.382812 117.054688 174.226562 C 116.023438 172.074219 115.089844 169.875 114.261719 167.636719 C 113.429688 165.394531 112.703125 163.121094 112.078125 160.8125 C 111.457031 158.507812 110.941406 156.175781 110.53125 153.820312 C 110.125 151.464844 109.824219 149.097656 109.632812 146.714844 C 109.441406 144.335938 109.359375 141.949219 109.386719 139.558594 C 109.414062 137.167969 109.550781 134.785156 109.800781 132.410156 C 110.046875 130.03125 110.402344 127.671875 110.863281 125.328125 C 111.328125 122.980469 111.894531 120.664062 112.570312 118.371094 C 113.25 116.078125 114.027344 113.824219 114.910156 111.601562 C 115.792969 109.382812 116.777344 107.207031 117.859375 105.078125 C 118.941406 102.945312 120.121094 100.871094 121.394531 98.847656 C 122.667969 96.824219 124.03125 94.867188 125.484375 92.96875 C 126.9375 91.070312 128.472656 89.246094 130.09375 87.488281 C 131.714844 85.730469 133.414062 84.054688 135.1875 82.453125 C 136.960938 80.851562 138.804688 79.335938 140.71875 77.90625 C 142.632812 76.476562 144.609375 75.136719 146.644531 73.886719 C 148.683594 72.636719 150.773438 71.480469 152.914062 70.425781 C 155.058594 69.367188 157.246094 68.410156 159.476562 67.550781 C 161.707031 66.695312 163.972656 65.941406 166.273438 65.292969 C 168.570312 64.644531 170.898438 64.101562 173.246094 63.664062 C 175.597656 63.226562 177.960938 62.902344 180.339844 62.683594 C 182.71875 62.464844 185.105469 62.355469 187.496094 62.355469 C 189.882812 62.355469 192.269531 62.464844 194.648438 62.683594 C 197.027344 62.902344 199.394531 63.226562 201.742188 63.664062 C 204.09375 64.101562 206.417969 64.644531 208.714844 65.292969 C 211.015625 65.941406 213.28125 66.695312 215.511719 67.550781 C 217.742188 68.410156 219.929688 69.367188 222.074219 70.425781 C 224.214844 71.480469 226.304688 72.636719 228.34375 73.886719 C 230.378906 75.136719 232.355469 76.476562 234.269531 77.90625 C 236.183594 79.335938 238.027344 80.851562 239.800781 82.453125 C 241.578125 84.054688 243.273438 85.730469 244.894531 87.488281 C 246.515625 89.246094 248.050781 91.070312 249.503906 92.96875 C 250.957031 94.867188 252.320312 96.824219 253.59375 98.847656 C 254.867188 100.871094 256.046875 102.945312 257.128906 105.078125 C 258.210938 107.207031 259.195312 109.382812 260.078125 111.601562 C 260.960938 113.824219 261.742188 116.078125 262.417969 118.371094 C 263.09375 120.664062 263.660156 122.980469 264.125 125.328125 C 264.589844 127.671875 264.941406 130.03125 265.1875 132.410156 C 265.4375 134.785156 265.574219 137.167969 265.601562 139.558594 C 265.628906 141.949219 265.546875 144.335938 265.355469 146.714844 C 265.164062 149.097656 264.863281 151.464844 264.457031 153.820312 C 264.046875 156.175781 263.53125 158.507812 262.910156 160.8125 C 262.285156 163.121094 261.558594 165.394531 260.730469 167.636719 C 259.898438 169.875 258.964844 172.074219 257.933594 174.226562 C 256.898438 176.382812 255.769531 178.488281 254.542969 180.539062 C 253.316406 182.589844 252 184.578125 250.59375 186.511719 L 187.496094 272.976562 Z M 187.496094 320.65625 C 111.875 320.65625 63.617188 300.363281 63.617188 286.390625 C 63.617188 274.632812 97.875 258.445312 153.773438 253.597656 L 181.105469 291.050781 C 181.289062 291.300781 181.484375 291.539062 181.695312 291.769531 C 181.90625 291.996094 182.132812 292.210938 182.367188 292.410156 C 182.605469 292.613281 182.851562 292.796875 183.109375 292.96875 C 183.367188 293.140625 183.636719 293.296875 183.910156 293.4375 C 184.1875 293.578125 184.472656 293.703125 184.761719 293.8125 C 185.054688 293.917969 185.351562 294.007812 185.652344 294.078125 C 185.953125 294.152344 186.257812 294.207031 186.566406 294.242188 C 186.875 294.277344 187.183594 294.296875 187.496094 294.296875 C 187.804688 294.296875 188.113281 294.277344 188.421875 294.242188 C 188.730469 294.207031 189.035156 294.152344 189.335938 294.078125 C 189.636719 294.007812 189.933594 293.917969 190.226562 293.8125 C 190.515625 293.703125 190.800781 293.578125 191.078125 293.4375 C 191.355469 293.296875 191.621094 293.140625 191.878906 292.96875 C 192.136719 292.796875 192.382812 292.613281 192.621094 292.410156 C 192.855469 292.210938 193.082031 291.996094 193.292969 291.769531 C 193.503906 291.539062 193.699219 291.300781 193.882812 291.050781 L 221.214844 253.597656 C 277.125 258.441406 311.375 274.632812 311.375 286.390625 C 311.375 300.359375 263.113281 320.65625 187.496094 320.65625 Z M 187.496094 320.65625 " fill-opacity="1" fill-rule="nonzero"/></g><path fill="#80cc28" d="M 233.582031 140.46875 C 233.582031 138.957031 233.507812 137.453125 233.363281 135.949219 C 233.214844 134.449219 232.992188 132.957031 232.699219 131.476562 C 232.402344 129.996094 232.039062 128.535156 231.597656 127.089844 C 231.160156 125.644531 230.652344 124.226562 230.074219 122.832031 C 229.496094 121.4375 228.851562 120.074219 228.140625 118.742188 C 227.429688 117.410156 226.65625 116.117188 225.816406 114.863281 C 224.976562 113.609375 224.082031 112.398438 223.121094 111.230469 C 222.164062 110.0625 221.152344 108.945312 220.085938 107.878906 C 219.019531 106.8125 217.902344 105.796875 216.734375 104.839844 C 215.566406 103.882812 214.355469 102.984375 213.101562 102.148438 C 211.847656 101.308594 210.554688 100.53125 209.222656 99.820312 C 207.890625 99.109375 206.527344 98.464844 205.132812 97.886719 C 203.738281 97.308594 202.320312 96.800781 200.875 96.363281 C 199.429688 95.925781 197.96875 95.558594 196.488281 95.265625 C 195.007812 94.96875 193.515625 94.75 192.015625 94.601562 C 190.511719 94.453125 189.007812 94.378906 187.496094 94.378906 C 185.988281 94.378906 184.480469 94.453125 182.980469 94.601562 C 181.476562 94.75 179.984375 94.96875 178.503906 95.265625 C 177.023438 95.558594 175.5625 95.925781 174.117188 96.363281 C 172.675781 96.800781 171.253906 97.308594 169.859375 97.886719 C 168.464844 98.464844 167.101562 99.109375 165.769531 99.820312 C 164.441406 100.53125 163.148438 101.308594 161.890625 102.144531 C 160.636719 102.984375 159.425781 103.882812 158.257812 104.839844 C 157.09375 105.796875 155.976562 106.808594 154.90625 107.875 C 153.839844 108.945312 152.828125 110.0625 151.871094 111.226562 C 150.914062 112.394531 150.015625 113.605469 149.175781 114.859375 C 148.335938 116.117188 147.5625 117.410156 146.851562 118.738281 C 146.140625 120.070312 145.496094 121.433594 144.917969 122.828125 C 144.339844 124.222656 143.832031 125.640625 143.394531 127.085938 C 142.953125 128.53125 142.589844 129.992188 142.292969 131.472656 C 142 132.953125 141.777344 134.445312 141.628906 135.949219 C 141.484375 137.449219 141.410156 138.957031 141.410156 140.464844 C 141.410156 141.976562 141.480469 143.480469 141.628906 144.984375 C 141.777344 146.484375 142 147.976562 142.292969 149.457031 C 142.589844 150.9375 142.953125 152.398438 143.390625 153.84375 C 143.832031 155.289062 144.339844 156.707031 144.914062 158.101562 C 145.492188 159.496094 146.136719 160.859375 146.851562 162.191406 C 147.5625 163.523438 148.335938 164.816406 149.175781 166.070312 C 150.011719 167.324219 150.910156 168.535156 151.867188 169.703125 C 152.828125 170.871094 153.839844 171.988281 154.90625 173.054688 C 155.972656 174.121094 157.089844 175.132812 158.257812 176.09375 C 159.425781 177.050781 160.636719 177.949219 161.890625 178.785156 C 163.144531 179.625 164.4375 180.398438 165.769531 181.113281 C 167.101562 181.824219 168.464844 182.46875 169.859375 183.046875 C 171.253906 183.625 172.671875 184.132812 174.117188 184.570312 C 175.558594 185.007812 177.023438 185.375 178.503906 185.667969 C 179.984375 185.960938 181.476562 186.183594 182.976562 186.332031 C 184.480469 186.480469 185.984375 186.554688 187.496094 186.554688 C 189.003906 186.550781 190.507812 186.476562 192.011719 186.328125 C 193.511719 186.179688 195.003906 185.957031 196.480469 185.660156 C 197.960938 185.363281 199.421875 184.996094 200.867188 184.558594 C 202.3125 184.121094 203.730469 183.609375 205.125 183.03125 C 206.515625 182.453125 207.878906 181.808594 209.210938 181.097656 C 210.539062 180.386719 211.832031 179.609375 213.085938 178.773438 C 214.339844 177.933594 215.550781 177.035156 216.71875 176.078125 C 217.882812 175.121094 219 174.109375 220.066406 173.039062 C 221.136719 171.972656 222.148438 170.855469 223.105469 169.691406 C 224.0625 168.523438 224.960938 167.3125 225.800781 166.058594 C 226.636719 164.804688 227.414062 163.511719 228.125 162.183594 C 228.835938 160.851562 229.480469 159.488281 230.0625 158.097656 C 230.640625 156.703125 231.148438 155.285156 231.585938 153.839844 C 232.027344 152.398438 232.394531 150.933594 232.6875 149.457031 C 232.984375 147.976562 233.207031 146.484375 233.355469 144.984375 C 233.507812 143.480469 233.582031 141.976562 233.582031 140.46875 Z M 157.222656 140.46875 C 157.222656 139.476562 157.269531 138.488281 157.367188 137.5 C 157.464844 136.511719 157.609375 135.535156 157.804688 134.5625 C 157.996094 133.589844 158.238281 132.628906 158.527344 131.679688 C 158.8125 130.730469 159.148438 129.796875 159.527344 128.882812 C 159.90625 127.964844 160.328125 127.070312 160.796875 126.195312 C 161.265625 125.320312 161.773438 124.472656 162.324219 123.648438 C 162.875 122.824219 163.464844 122.027344 164.09375 121.261719 C 164.722656 120.496094 165.386719 119.761719 166.089844 119.0625 C 166.789062 118.359375 167.523438 117.695312 168.289062 117.066406 C 169.054688 116.4375 169.851562 115.847656 170.675781 115.296875 C 171.5 114.746094 172.351562 114.234375 173.222656 113.769531 C 174.097656 113.300781 174.992188 112.878906 175.910156 112.496094 C 176.824219 112.117188 177.757812 111.785156 178.707031 111.496094 C 179.65625 111.210938 180.617188 110.96875 181.589844 110.773438 C 182.5625 110.582031 183.542969 110.4375 184.527344 110.339844 C 185.515625 110.242188 186.503906 110.195312 187.496094 110.195312 C 188.488281 110.195312 189.476562 110.242188 190.460938 110.339844 C 191.449219 110.4375 192.429688 110.582031 193.402344 110.773438 C 194.375 110.96875 195.335938 111.210938 196.28125 111.496094 C 197.230469 111.785156 198.164062 112.117188 199.082031 112.496094 C 199.996094 112.878906 200.890625 113.300781 201.765625 113.769531 C 202.640625 114.234375 203.488281 114.746094 204.3125 115.296875 C 205.136719 115.847656 205.933594 116.4375 206.699219 117.066406 C 207.464844 117.695312 208.199219 118.359375 208.902344 119.058594 C 209.601562 119.761719 210.269531 120.496094 210.898438 121.261719 C 211.527344 122.027344 212.117188 122.824219 212.667969 123.648438 C 213.21875 124.472656 213.726562 125.320312 214.195312 126.195312 C 214.660156 127.070312 215.085938 127.964844 215.464844 128.882812 C 215.84375 129.796875 216.175781 130.730469 216.464844 131.679688 C 216.753906 132.628906 216.992188 133.589844 217.1875 134.5625 C 217.378906 135.53125 217.527344 136.511719 217.621094 137.5 C 217.71875 138.484375 217.769531 139.476562 217.769531 140.464844 C 217.769531 141.457031 217.71875 142.449219 217.621094 143.433594 C 217.527344 144.421875 217.378906 145.398438 217.1875 146.371094 C 216.992188 147.34375 216.753906 148.304688 216.464844 149.253906 C 216.175781 150.203125 215.84375 151.136719 215.464844 152.050781 C 215.085938 152.96875 214.660156 153.863281 214.195312 154.738281 C 213.726562 155.613281 213.21875 156.460938 212.667969 157.285156 C 212.117188 158.109375 211.523438 158.90625 210.894531 159.671875 C 210.265625 160.4375 209.601562 161.171875 208.902344 161.875 C 208.199219 162.574219 207.464844 163.238281 206.699219 163.867188 C 205.933594 164.496094 205.136719 165.085938 204.3125 165.636719 C 203.488281 166.1875 202.640625 166.699219 201.765625 167.164062 C 200.890625 167.632812 199.996094 168.054688 199.078125 168.4375 C 198.164062 168.816406 197.230469 169.148438 196.28125 169.4375 C 195.332031 169.722656 194.371094 169.964844 193.398438 170.160156 C 192.429688 170.351562 191.449219 170.496094 190.460938 170.59375 C 189.476562 170.691406 188.484375 170.738281 187.496094 170.738281 C 186.503906 170.738281 185.515625 170.6875 184.527344 170.589844 C 183.542969 170.492188 182.5625 170.347656 181.589844 170.152344 C 180.617188 169.957031 179.660156 169.71875 178.710938 169.429688 C 177.761719 169.140625 176.832031 168.804688 175.914062 168.425781 C 175 168.046875 174.105469 167.621094 173.230469 167.15625 C 172.355469 166.6875 171.507812 166.179688 170.683594 165.628906 C 169.859375 165.078125 169.066406 164.488281 168.300781 163.859375 C 167.53125 163.230469 166.800781 162.5625 166.097656 161.863281 C 165.398438 161.164062 164.734375 160.429688 164.105469 159.664062 C 163.476562 158.898438 162.886719 158.101562 162.335938 157.277344 C 161.785156 156.453125 161.273438 155.605469 160.808594 154.730469 C 160.339844 153.855469 159.914062 152.960938 159.535156 152.046875 C 159.15625 151.132812 158.820312 150.199219 158.535156 149.25 C 158.246094 148.304688 158.003906 147.34375 157.808594 146.371094 C 157.617188 145.398438 157.46875 144.421875 157.371094 143.433594 C 157.273438 142.449219 157.222656 141.457031 157.222656 140.46875 Z M 157.222656 140.46875 " fill-opacity="1" fill-rule="nonzero"/></svg>