<?xml version="1.0" encoding="UTF-8"?>
<svg id="Layer_1" data-name="Layer 1" xmlns="http://www.w3.org/2000/svg" xmlns:xlink="http://www.w3.org/1999/xlink" viewBox="0 0 500 500">
  <defs>
    <style>
      .cls-1 {
        fill: #fff;
      }

      .cls-2 {
        fill: #f16622;
      }

      .cls-3 {
        fill: none;
      }

      .cls-4 {
        clip-path: url(#clippath-1);
      }

      .cls-5 {
        fill: #80cc28;
      }

      .cls-6 {
        clip-path: url(#clippath-2);
      }

      .cls-7 {
        clip-path: url(#clippath);
      }
    </style>
    <clipPath id="clippath">
      <rect class="cls-3" x="60.56" y="59.45" width="325.64" height="381.31"/>
    </clipPath>
    <clipPath id="clippath-1">
      <rect class="cls-2" x="144.46" y="127.09" width="157.57" height="201.98"/>
    </clipPath>
    <clipPath id="clippath-2">
      <rect class="cls-3" x="123.61" y="111.69" width="199.59" height="199.58"/>
    </clipPath>
  </defs>
  <g class="cls-7">
    <path class="cls-2" d="M223.25,59.41c-89.78,0-162.56,72.78-162.56,162.56,0,46.73,19.71,88.85,51.28,118.51l104.03,97.74c1.9,1.78,4.45,2.88,7.26,2.88s5.36-1.1,7.26-2.88l104.03-97.74c31.57-29.65,51.28-71.77,51.28-118.51,0-89.78-72.78-162.56-162.57-162.56ZM301,292.66c0,7.81-6.33,14.14-14.14,14.14h-127.23c-7.8,0-14.14-6.33-14.14-14.14v-77.75c0-7.81,6.33-14.14,14.14-14.14h14.14v-21.21c0-27.28,22.2-49.48,49.48-49.48s49.48,22.2,49.48,49.48v21.21h14.14c7.8,0,14.14,6.33,14.14,14.14v77.75Z"/>
  </g>
  <path class="cls-5" d="M223.25,158.36c-11.69,0-21.2,9.52-21.2,21.21v21.21h42.41v-21.21c0-11.69-9.51-21.21-21.21-21.21h0Z"/>
  <g>
    <rect class="cls-2" x="144.46" y="127.09" width="157.57" height="201.98"/>
    <g class="cls-4">
      <path class="cls-2" d="M144.46,127.09h157.57v201.89h-157.57V127.09Z"/>
    </g>
  </g>
  <path class="cls-1" d="M170.95,250.31v6.65h104.92v-6.65h-8.04v-54.48h8.04v-6.65h-104.92v6.65h8.04v54.48h-8.04ZM199.83,250.31v-54.48h13.16v54.48h-13.16ZM233.83,250.31v-54.48h13.16v54.48h-13.16ZM261.17,195.83v54.48h-7.53v-54.48h7.53ZM227.17,195.83v54.48h-7.53v-54.48h7.53ZM185.65,195.83h7.53v54.48h-7.53v-54.48Z"/>
  <path class="cls-1" d="M281.61,263.59h-116.41c-1.83,0-3.32,1.49-3.32,3.33s1.49,3.32,3.32,3.32h116.41c1.84,0,3.33-1.49,3.33-3.32s-1.49-3.33-3.33-3.33Z"/>
  <path class="cls-1" d="M284.89,178.77c-.01-.08-.01-.17-.03-.24-.02-.11-.06-.22-.1-.33-.03-.09-.06-.2-.09-.29-.04-.1-.1-.19-.16-.29-.05-.09-.09-.19-.15-.28-.06-.08-.13-.16-.2-.24-.07-.08-.14-.18-.22-.26-.06-.06-.13-.11-.2-.16-.1-.09-.2-.18-.32-.25-.01-.01-.02-.02-.03-.03l-58.2-37.04c-1.09-.69-2.48-.69-3.57,0l-58.2,37.04s-.02.02-.04.03c-.11.07-.21.16-.31.25-.07.05-.14.1-.2.16-.08.08-.15.17-.21.26s-.14.16-.2.24c-.06.09-.1.18-.16.28s-.11.19-.15.29c-.04.09-.06.19-.09.29-.04.11-.08.21-.1.33-.02.08-.02.17-.03.24-.02.14-.04.28-.04.41,0,.02,0,.03,0,.04,0,.07.02.14.02.21.01.14.02.27.04.41.02.1.05.2.08.3.03.11.06.22.1.33.04.11.1.22.16.33.04.07.07.15.11.22.01.01.02.02.03.04.06.1.15.19.22.28.07.08.13.16.2.23.06.06.13.1.18.16.1.09.2.18.31.26.05.04.1.06.16.09.13.08.26.16.4.22.06.03.13.04.19.06.14.05.28.1.43.13.06.02.13.02.19.03.15.02.31.05.46.05h116.44c.26,0,.51-.04.76-.09.07-.01.13-.04.19-.06.18-.05.35-.12.52-.2.08-.04.15-.08.22-.12.16-.09.3-.2.44-.32.06-.05.12-.09.17-.14.18-.17.35-.37.49-.58,0-.01.02-.02.02-.03.05-.07.07-.15.11-.22.06-.1.12-.21.17-.33.04-.1.07-.21.1-.32.03-.1.06-.2.08-.3.03-.14.03-.27.04-.41,0-.07.02-.14.02-.21,0-.02,0-.03,0-.04,0-.14-.02-.27-.04-.41ZM223.41,146.12l46.78,29.77h-93.56l46.78-29.77Z"/>
  <g class="cls-6">
    <path class="cls-1" d="M223.41,111.69c-55.03,0-99.79,44.77-99.79,99.79s44.77,99.79,99.79,99.79,99.8-44.77,99.8-99.79-44.77-99.79-99.8-99.79ZM223.41,304.62c-51.35,0-93.14-41.78-93.14-93.14s41.79-93.14,93.14-93.14,93.14,41.78,93.14,93.14-41.78,93.14-93.14,93.14Z"/>
  </g>
</svg>