<?xml version="1.0" encoding="UTF-8"?>
<svg id="Layer_1" data-name="Layer 1" xmlns="http://www.w3.org/2000/svg" viewBox="0 0 446.55 133.28">
  <defs>
    <style>
      .cls-1 {
        fill-rule: evenodd;
      }

      .cls-1, .cls-2, .cls-3 {
        fill: #4d4d4e;
      }

      .cls-4, .cls-5 {
        fill: none;
      }

      .cls-3 {
        font-family: Poppins-Light, Poppins;
        font-size: 20.5px;
        font-weight: 300;
      }

      .cls-6 {
        fill: #f26722;
      }

      .cls-5 {
        stroke: #000;
        stroke-linecap: round;
        stroke-linejoin: round;
        stroke-width: .36px;
      }
    </style>
  </defs>
  <g>
    <path class="cls-6" d="M54.41,15.07l-.61,1.66c-6.33.63-12.12,2.47-17.37,5.52-1.07.62-2.1,1.28-3.09,1.99v47.87l-7.9,21.38L54.41,15.07ZM84.3,24.23c-.99-.7-2.02-1.37-3.09-1.98-5.21-3.02-10.94-4.86-17.21-5.5l-.62-1.68,20.92,56.82V24.23ZM92.42,95.57c1.66-2.08,3.15-4.37,4.47-6.85,3.84-7.2,5.76-15.54,5.76-25.04s-1.92-17.81-5.76-24.96c-.89-1.66-1.86-3.23-2.9-4.71v48.23c0,4.93-.53,9.37-1.57,13.32ZM14.98,63.68c0,9.49,1.92,17.84,5.76,25.04,7,13.13,2.89,1.05,2.89-6.46v-48.23c-1.04,1.48-2,3.05-2.89,4.7-3.84,7.15-5.76,15.46-5.76,24.96ZM87.19,127.72l-11.26-9.33c-5.44,1.6-11.14,2.4-17.12,2.4-10.34,0-19.73-2.43-28.15-7.28-8.43-4.85-15.06-11.62-19.92-20.32-4.85-8.69-7.28-18.53-7.28-29.51s2.43-20.82,7.28-29.51c4.85-8.69,11.49-15.46,19.92-20.32,8.43-4.85,17.81-7.28,28.15-7.28s19.89,2.43,28.31,7.28c8.43,4.85,15.04,11.62,19.84,20.32,4.8,8.69,7.2,18.53,7.2,29.51s-2.51,21.36-7.52,30.15c-5.01,8.8-11.89,15.54-20.64,20.24l15.28,13.69-14.1-.04ZM63.93,68.02h10.59l-15.68-42.95-15.68,42.95h10.55c-.17-.52-.26-1.07-.26-1.64,0-2.97,2.4-5.37,5.37-5.37s5.37,2.4,5.37,5.37c0,.57-.09,1.12-.26,1.64ZM74.52,68.02h-10.59c-.69,2.16-2.72,3.73-5.11,3.73s-4.42-1.57-5.11-3.73h-10.55l-9.32,25.45.47-1.28c1.07,4.81,3.03,8.65,5.88,11.52,4.57,4.62,10.83,6.93,18.77,6.93s14.15-2.29,18.63-6.86c2.81-2.86,4.73-6.73,5.78-11.61l-8.84-24.16Z"/>
    <path class="cls-1" d="M394.47,64.9c3.32,0,6.01,2.69,6.01,6.01s-2.69,6.01-6.01,6.01-6.01-2.69-6.01-6.01,2.69-6.01,6.01-6.01Z"/>
    <path class="cls-5" d="M394.47,64.9c3.32,0,6.01,2.69,6.01,6.01s-2.69,6.01-6.01,6.01-6.01-2.69-6.01-6.01,2.69-6.01,6.01-6.01Z"/>
    <path class="cls-2" d="M405.8,59.58l-9.12-27.37-9,27.37h18.13ZM405.8,59.58h-18.13l-10.56,31.81h-24.73l30.85-84.63h27.13l30.73,84.63h-24.85l-10.44-31.81ZM282.17,6.76v49.1c0,4.56,1.06,8.08,3.18,10.56,2.12,2.48,5.34,3.72,9.66,3.72s7.58-1.26,9.78-3.78c2.2-2.52,3.3-6.02,3.3-10.5V6.76h23.53v49.1c0,7.76-1.64,14.39-4.92,19.87-3.28,5.48-7.74,9.6-13.39,12.36-5.64,2.76-11.9,4.14-18.79,4.14s-13.02-1.38-18.43-4.14c-5.4-2.76-9.64-6.86-12.72-12.3-3.08-5.44-4.62-12.08-4.62-19.93V6.76h23.41ZM172.1,48.77c0,6.64,1.72,11.9,5.16,15.79,3.44,3.88,8.2,5.82,14.29,5.82s10.74-1.96,14.23-5.88c3.48-3.92,5.22-9.16,5.22-15.73s-1.74-12.02-5.22-15.91c-3.48-3.88-8.22-5.82-14.23-5.82s-10.84,1.94-14.29,5.82c-3.44,3.88-5.16,9.18-5.16,15.91ZM210.17,91.98c-6.87-.3-12.14.25-18.62.25-7.92,0-15.21-1.86-21.85-5.58-6.64-3.72-11.9-8.88-15.79-15.49-3.88-6.6-5.82-14.07-5.82-22.39s1.94-15.79,5.82-22.39c3.88-6.6,9.14-11.74,15.79-15.43,6.64-3.68,13.93-5.52,21.85-5.52s15.31,1.84,21.91,5.52c6.6,3.68,11.82,8.82,15.67,15.43,3.84,6.6,5.76,14.07,5.76,22.39,0,6.96-1.4,13.39-4.2,19.27-2.8,5.88-6.64,10.78-11.52,14.71l20.8,9.23h-29.79Z"/>
    <text class="cls-3" transform="translate(148.7 128.17)"><tspan x="0" y="0">Q</tspan></text>
    <text class="cls-3" transform="translate(168.61 128.17)"><tspan x="0" y="0">U</tspan></text>
    <text class="cls-3" transform="translate(185.88 128.17)"><tspan x="0" y="0">I</tspan></text>
    <text class="cls-3" transform="translate(194.2 128.17)"><tspan x="0" y="0">C</tspan></text>
    <text class="cls-3" transform="translate(213.74 128.17)"><tspan x="0" y="0" xml:space="preserve">K    </tspan></text>
    <text class="cls-3" transform="translate(237.71 127.76)"><tspan x="0" y="0">U</tspan></text>
    <text class="cls-3" transform="translate(252.62 127.76)"><tspan x="0" y="0">R</tspan></text>
    <text class="cls-3" transform="translate(266.21 127.76)"><tspan x="0" y="0">G</tspan></text>
    <text class="cls-3" transform="translate(283.28 127.76)"><tspan x="0" y="0">E</tspan></text>
    <text class="cls-3" transform="translate(295.37 127.76)"><tspan x="0" y="0">N</tspan></text>
    <text class="cls-3" transform="translate(310.73 127.76)"><tspan x="0" y="0" xml:space="preserve">T     </tspan></text>
    <text class="cls-3" transform="translate(334.13 128.11)"><tspan x="0" y="0">A</tspan></text>
    <text class="cls-3" transform="translate(350.87 128.11)"><tspan x="0" y="0">S</tspan></text>
    <text class="cls-3" transform="translate(366 128.11)"><tspan x="0" y="0">S</tspan></text>
    <text class="cls-3" transform="translate(381.12 128.11)"><tspan x="0" y="0">U</tspan></text>
    <text class="cls-3" transform="translate(398.05 128.11)"><tspan x="0" y="0">R</tspan></text>
    <text class="cls-3" transform="translate(413.48 128.11)"><tspan x="0" y="0">E</tspan></text>
    <text class="cls-3" transform="translate(427.2 128.11)"><tspan x="0" y="0">D </tspan></text>
  </g>
  <rect class="cls-4" x="-325.59" y="-257.33" width="899.94" height="640.31"/>
  <rect class="cls-4" x="-325.47" y="-257.43" width="900.27" height="640.39"/>
  <rect class="cls-4" x="-325.47" y="-257.35" width="899.94" height="640.31"/>
</svg>