<svg xmlns="http://www.w3.org/2000/svg" xmlns:xlink="http://www.w3.org/1999/xlink" width="1080" zoomAndPan="magnify" viewBox="0 0 810 809.999993" height="1080" preserveAspectRatio="xMidYMid meet" version="1.0"><defs><clipPath id="caeca3a9a9"><path d="M 243 250.085938 L 567 250.085938 L 567 559.835938 L 243 559.835938 Z M 243 250.085938 " clip-rule="nonzero"/></clipPath></defs><g clip-path="url(#caeca3a9a9)"><path fill="#000000" d="M 367.027344 250.378906 C 299.679688 250.378906 243.703125 299.289062 243.703125 360.800781 C 243.703125 390.332031 256.90625 417.148438 277.855469 436.9375 L 277.195312 440.179688 C 272.472656 454.011719 260.863281 461.835938 253.96875 464.332031 C 249.960938 465.757812 246.640625 467.925781 244.800781 471.714844 C 242.988281 475.476562 244.085938 480.691406 246.832031 483.40625 C 253.257812 489.859375 261.601562 489.226562 267.699219 489.28125 C 290.621094 489.554688 317.636719 477.535156 334 469.355469 L 334.191406 469.273438 L 339.792969 466.035156 L 337.648438 465.375 L 337.898438 465.429688 C 347.011719 467.542969 356.566406 468.203125 365.953125 468.203125 C 425.171875 468.203125 476.128906 432.820312 487.382812 381.90625 L 487.382812 381.878906 C 488.894531 375.097656 489.691406 368.046875 489.691406 360.800781 C 489.691406 299.34375 434.371094 250.378906 367.027344 250.378906 Z M 367.027344 264.429688 C 427.589844 264.429688 475.632812 307.796875 475.632812 360.800781 C 475.632812 367.03125 474.945312 373.066406 473.65625 378.859375 C 464.046875 422.335938 419.601562 454.148438 365.953125 454.148438 C 357.28125 454.148438 348.742188 453.488281 341.109375 451.734375 L 338.035156 450.828125 L 327.628906 456.8125 C 312.089844 464.578125 285.296875 475.449219 267.863281 475.230469 C 265.472656 475.230469 265.253906 474.761719 263.578125 474.570312 C 273.574219 469.683594 285.101562 460.820312 290.59375 444.515625 L 290.703125 444.15625 L 293.230469 432.300781 L 290.128906 429.554688 C 270.003906 411.960938 257.757812 387.5625 257.757812 360.800781 C 257.757812 307.851562 306.460938 264.429688 367.027344 264.429688 Z M 306.957031 313.617188 L 306.957031 327.667969 L 426.4375 327.667969 L 426.4375 313.617188 Z M 306.957031 348.75 L 306.957031 362.804688 L 426.4375 362.804688 L 426.4375 348.75 Z M 502.234375 378.226562 C 501.878906 380.480469 501.632812 382.730469 501.136719 384.953125 C 500.589844 387.367188 499.875 389.730469 499.160156 392.117188 C 531.53125 404.605469 552.832031 429.773438 552.832031 457.746094 C 552.832031 477.808594 542.402344 496.554688 523.402344 510.582031 L 519.585938 513.410156 L 520.769531 518.019531 C 524.554688 532.539062 537.84375 540.03125 547.042969 545.027344 C 532.464844 547.003906 500.78125 543.710938 484.859375 524.882812 L 482.195312 521.699219 L 478.132812 522.519531 C 471.734375 523.785156 464.324219 524.414062 455.425781 524.414062 C 411.722656 524.414062 376.222656 507.480469 362.414062 482.144531 C 356.703125 482.035156 351.378906 481.652344 346.378906 481.046875 C 359.421875 515.578125 401.34375 538.46875 455.425781 538.46875 C 463.527344 538.46875 470.582031 537.972656 476.921875 537.011719 C 492.433594 552.714844 517.71875 559.519531 538.199219 559.519531 C 539.546875 559.519531 540.890625 559.492188 542.183594 559.4375 C 554.070312 558.890625 561.8125 556.144531 565.242188 551.285156 C 566.753906 549.089844 567.273438 546.511719 566.671875 543.984375 C 565.488281 538.960938 560.878906 536.492188 554.480469 533.0625 C 548.195312 529.65625 539.929688 525.183594 536.058594 518.511719 C 555.742188 502.265625 566.890625 480.417969 566.890625 457.746094 C 566.890625 423.269531 541.109375 392.5 502.234375 378.226562 Z M 306.957031 383.882812 L 306.957031 397.9375 L 391.296875 397.9375 L 391.296875 383.882812 Z M 482.769531 426.042969 C 479.257812 430.984375 475.386719 435.703125 471.132812 440.09375 L 503.746094 440.09375 L 503.746094 426.042969 Z M 444.636719 461.175781 C 434.945312 466.996094 424.320312 471.742188 413.039062 475.230469 L 503.746094 475.230469 L 503.746094 461.175781 Z M 444.636719 461.175781 " fill-opacity="1" fill-rule="nonzero"/></g></svg>