<svg xmlns="http://www.w3.org/2000/svg" xmlns:xlink="http://www.w3.org/1999/xlink" width="500" zoomAndPan="magnify" viewBox="0 0 375 374.999991" height="500" preserveAspectRatio="xMidYMid meet" version="1.0"><defs><clipPath id="42389de240"><path d="M 43.621094 43.621094 L 331.621094 43.621094 L 331.621094 331.621094 L 43.621094 331.621094 Z M 43.621094 43.621094 " clip-rule="nonzero"/></clipPath></defs><path fill="#80cc28" d="M 111.863281 243.484375 L 111.863281 253.074219 L 263.136719 253.074219 L 263.136719 243.484375 L 251.539062 243.484375 L 251.539062 164.941406 L 263.136719 164.941406 L 263.136719 155.347656 L 111.863281 155.347656 L 111.863281 164.941406 L 123.460938 164.941406 L 123.460938 243.484375 Z M 153.503906 243.484375 L 153.503906 164.941406 L 172.476562 164.941406 L 172.476562 243.484375 Z M 202.519531 243.484375 L 202.519531 164.941406 L 221.496094 164.941406 L 221.496094 243.484375 Z M 241.945312 164.941406 L 241.945312 243.484375 L 231.085938 243.484375 L 231.085938 164.941406 Z M 192.929688 164.941406 L 192.929688 243.484375 L 182.070312 243.484375 L 182.070312 164.941406 Z M 133.050781 164.941406 L 143.914062 164.941406 L 143.914062 243.484375 L 133.050781 243.484375 Z M 133.050781 164.941406 " fill-opacity="1" fill-rule="nonzero"/><path fill="#80cc28" d="M 271.414062 262.632812 L 103.585938 262.632812 C 100.9375 262.632812 98.789062 264.785156 98.789062 267.429688 C 98.789062 270.078125 100.9375 272.226562 103.585938 272.226562 L 271.414062 272.226562 C 274.0625 272.226562 276.210938 270.078125 276.210938 267.429688 C 276.210938 264.785156 274.0625 262.632812 271.414062 262.632812 Z M 271.414062 262.632812 " fill-opacity="1" fill-rule="nonzero"/><path fill="#80cc28" d="M 276.144531 140.34375 C 276.128906 140.226562 276.125 140.101562 276.101562 139.988281 C 276.066406 139.824219 276.003906 139.671875 275.953125 139.515625 C 275.90625 139.375 275.875 139.234375 275.820312 139.101562 C 275.757812 138.957031 275.671875 138.824219 275.597656 138.691406 C 275.523438 138.558594 275.460938 138.417969 275.375 138.292969 C 275.292969 138.171875 275.1875 138.0625 275.089844 137.949219 C 274.988281 137.824219 274.894531 137.695312 274.777344 137.582031 C 274.691406 137.496094 274.585938 137.421875 274.492188 137.34375 C 274.34375 137.21875 274.199219 137.089844 274.035156 136.984375 C 274.019531 136.972656 274.007812 136.957031 273.988281 136.945312 L 190.074219 83.542969 C 188.503906 82.546875 186.496094 82.546875 184.925781 83.542969 L 101.011719 136.945312 C 100.992188 136.957031 100.980469 136.972656 100.964844 136.984375 C 100.800781 137.089844 100.65625 137.21875 100.507812 137.34375 C 100.414062 137.421875 100.308594 137.492188 100.222656 137.582031 C 100.105469 137.695312 100.011719 137.824219 99.910156 137.949219 C 99.8125 138.0625 99.707031 138.171875 99.625 138.292969 C 99.539062 138.417969 99.476562 138.558594 99.402344 138.691406 C 99.328125 138.824219 99.242188 138.957031 99.179688 139.101562 C 99.125 139.234375 99.09375 139.375 99.046875 139.515625 C 98.996094 139.671875 98.933594 139.824219 98.898438 139.988281 C 98.875 140.101562 98.871094 140.226562 98.855469 140.34375 C 98.828125 140.539062 98.800781 140.738281 98.796875 140.9375 C 98.796875 140.957031 98.789062 140.972656 98.789062 140.992188 C 98.789062 141.097656 98.816406 141.195312 98.820312 141.296875 C 98.832031 141.492188 98.84375 141.6875 98.878906 141.878906 C 98.90625 142.027344 98.957031 142.164062 98.996094 142.308594 C 99.039062 142.464844 99.078125 142.625 99.140625 142.777344 C 99.207031 142.945312 99.296875 143.097656 99.378906 143.253906 C 99.4375 143.355469 99.472656 143.46875 99.539062 143.570312 C 99.550781 143.589844 99.566406 143.601562 99.578125 143.621094 C 99.675781 143.765625 99.789062 143.890625 99.898438 144.023438 C 99.992188 144.140625 100.074219 144.261719 100.179688 144.363281 C 100.261719 144.449219 100.359375 144.515625 100.445312 144.589844 C 100.59375 144.71875 100.734375 144.851562 100.894531 144.960938 C 100.964844 145.007812 101.042969 145.042969 101.117188 145.085938 C 101.308594 145.199219 101.5 145.316406 101.703125 145.402344 C 101.789062 145.441406 101.886719 145.460938 101.976562 145.492188 C 102.179688 145.5625 102.378906 145.636719 102.589844 145.683594 C 102.679688 145.703125 102.777344 145.703125 102.867188 145.714844 C 103.089844 145.75 103.3125 145.78125 103.535156 145.785156 C 103.554688 145.785156 103.566406 145.789062 103.585938 145.789062 L 271.414062 145.789062 C 271.789062 145.789062 272.152344 145.734375 272.5 145.652344 C 272.597656 145.632812 272.6875 145.59375 272.78125 145.566406 C 273.039062 145.488281 273.285156 145.394531 273.523438 145.277344 C 273.632812 145.226562 273.734375 145.167969 273.839844 145.109375 C 274.066406 144.972656 274.277344 144.820312 274.476562 144.652344 C 274.558594 144.585938 274.644531 144.527344 274.722656 144.453125 C 274.988281 144.199219 275.222656 143.917969 275.425781 143.609375 C 275.4375 143.59375 275.453125 143.582031 275.460938 143.566406 C 275.527344 143.464844 275.5625 143.355469 275.621094 143.25 C 275.703125 143.09375 275.792969 142.941406 275.859375 142.777344 C 275.921875 142.621094 275.957031 142.464844 276.003906 142.304688 C 276.046875 142.164062 276.09375 142.027344 276.121094 141.878906 C 276.15625 141.683594 276.167969 141.492188 276.179688 141.296875 C 276.183594 141.191406 276.210938 141.09375 276.210938 140.992188 C 276.210938 140.972656 276.203125 140.953125 276.203125 140.933594 C 276.203125 140.738281 276.171875 140.542969 276.144531 140.34375 Z M 187.5 93.277344 L 254.945312 136.195312 L 120.054688 136.195312 Z M 187.5 93.277344 " fill-opacity="1" fill-rule="nonzero"/><g clip-path="url(#42389de240)"><path fill="#80cc28" d="M 187.5 43.621094 C 108.164062 43.621094 43.621094 108.164062 43.621094 187.5 C 43.621094 266.835938 108.164062 331.375 187.5 331.375 C 266.832031 331.375 331.375 266.835938 331.375 187.5 C 331.375 108.164062 266.832031 43.621094 187.5 43.621094 Z M 187.5 321.785156 C 113.453125 321.785156 53.214844 261.546875 53.214844 187.5 C 53.214844 113.453125 113.453125 53.214844 187.5 53.214844 C 261.542969 53.214844 321.785156 113.453125 321.785156 187.5 C 321.785156 261.546875 261.542969 321.785156 187.5 321.785156 Z M 187.5 321.785156 " fill-opacity="1" fill-rule="nonzero"/></g></svg>