<svg xmlns="http://www.w3.org/2000/svg" xmlns:xlink="http://www.w3.org/1999/xlink" width="500" zoomAndPan="magnify" viewBox="0 0 375 374.999991" height="500" preserveAspectRatio="xMidYMid meet" version="1.0"><defs><clipPath id="92abb42361"><path d="M 74.398438 77.398438 L 297.425781 77.398438 L 297.425781 285.015625 L 74.398438 285.015625 Z M 74.398438 77.398438 " clip-rule="nonzero"/></clipPath><clipPath id="302111908b"><path d="M 105.148438 77.398438 L 266.570312 77.398438 C 274.726562 77.398438 282.546875 80.636719 288.316406 86.40625 C 294.082031 92.171875 297.320312 99.992188 297.320312 108.148438 L 297.320312 254.265625 C 297.320312 262.421875 294.082031 270.242188 288.316406 276.007812 C 282.546875 281.777344 274.726562 285.015625 266.570312 285.015625 L 105.148438 285.015625 C 96.992188 285.015625 89.171875 281.777344 83.40625 276.007812 C 77.636719 270.242188 74.398438 262.421875 74.398438 254.265625 L 74.398438 108.148438 C 74.398438 99.992188 77.636719 92.171875 83.40625 86.40625 C 89.171875 80.636719 96.992188 77.398438 105.148438 77.398438 Z M 105.148438 77.398438 " clip-rule="nonzero"/></clipPath><clipPath id="7e407bb68f"><path d="M 38.703125 38.703125 L 336.453125 38.703125 L 336.453125 336.453125 L 38.703125 336.453125 Z M 38.703125 38.703125 " clip-rule="nonzero"/></clipPath></defs><g clip-path="url(#92abb42361)"><g clip-path="url(#302111908b)"><path fill="#000000" d="M 74.398438 77.398438 L 297.425781 77.398438 L 297.425781 285.015625 L 74.398438 285.015625 Z M 74.398438 77.398438 " fill-opacity="1" fill-rule="nonzero"/></g></g><path fill="#80cc28" d="M 205.796875 135.632812 L 194.753906 118.910156 L 189.878906 118.910156 L 189.878906 143.261719 L 194.753906 143.261719 L 194.753906 126.578125 L 205.796875 143.261719 L 210.671875 143.261719 L 210.671875 118.910156 L 205.796875 118.910156 Z M 205.796875 135.632812 " fill-opacity="1" fill-rule="nonzero"/><path fill="#80cc28" d="M 147.152344 168.660156 L 172.230469 168.660156 L 172.230469 249.09375 L 147.152344 249.09375 Z M 147.152344 168.660156 " fill-opacity="1" fill-rule="nonzero"/><path fill="#80cc28" d="M 156.285156 130.789062 C 157.535156 130.390625 158.542969 129.722656 159.296875 128.765625 C 160.050781 127.816406 160.429688 126.632812 160.429688 125.214844 C 160.429688 124.003906 160.121094 122.925781 159.503906 121.976562 C 158.886719 121.027344 157.984375 120.28125 156.789062 119.746094 C 155.589844 119.214844 154.167969 118.945312 152.519531 118.945312 L 142.484375 118.945312 L 142.484375 143.261719 L 152.96875 143.261719 C 154.617188 143.261719 156.046875 142.980469 157.25 142.425781 C 158.460938 141.867188 159.378906 141.097656 160.019531 140.105469 C 160.660156 139.121094 160.980469 137.976562 160.980469 136.671875 C 160.980469 135.230469 160.542969 133.957031 159.660156 132.839844 C 158.773438 131.726562 157.648438 131.042969 156.277344 130.785156 Z M 147.363281 122.882812 L 151.824219 122.882812 C 152.988281 122.882812 153.882812 123.152344 154.503906 123.683594 C 155.132812 124.21875 155.449219 124.972656 155.449219 125.949219 C 155.449219 126.929688 155.132812 127.675781 154.503906 128.199219 C 153.875 128.71875 152.988281 128.980469 151.824219 128.980469 L 147.363281 128.980469 Z M 155.042969 138.453125 C 154.378906 139.007812 153.460938 139.289062 152.273438 139.289062 L 147.363281 139.289062 L 147.363281 132.742188 L 152.175781 132.742188 C 153.359375 132.742188 154.296875 133.035156 154.996094 133.628906 C 155.691406 134.222656 156.039062 135.042969 156.039062 136.085938 C 156.039062 137.128906 155.707031 137.894531 155.050781 138.453125 Z M 155.042969 138.453125 " fill-opacity="1" fill-rule="nonzero"/><path fill="#80cc28" d="M 172.160156 118.910156 L 163.417969 143.253906 L 168.535156 143.253906 L 170.136719 138.625 L 179.820312 138.625 L 181.421875 143.253906 L 186.578125 143.253906 L 177.835938 118.910156 Z M 171.464844 134.726562 L 174.984375 124.554688 L 178.5 134.726562 Z M 171.464844 134.726562 " fill-opacity="1" fill-rule="nonzero"/><path fill="#80cc28" d="M 235.105469 118.945312 L 229.214844 118.945312 L 220.367188 129.851562 L 220.367188 118.945312 L 215.492188 118.945312 L 215.492188 143.261719 L 220.367188 143.261719 L 220.367188 132.425781 L 229.214844 143.261719 L 235.382812 143.261719 L 225.070312 130.996094 Z M 235.105469 118.945312 " fill-opacity="1" fill-rule="nonzero"/><path fill="#80cc28" d="M 202.777344 168.660156 L 227.859375 168.660156 L 227.859375 249.09375 L 202.777344 249.09375 Z M 202.777344 168.660156 " fill-opacity="1" fill-rule="nonzero"/><g clip-path="url(#7e407bb68f)"><path fill="#80cc28" d="M 187.507812 38.703125 C 105.324219 38.703125 38.703125 105.324219 38.703125 187.507812 C 38.703125 269.691406 105.324219 336.3125 187.507812 336.3125 C 269.691406 336.3125 336.3125 269.691406 336.3125 187.507812 C 336.3125 105.324219 269.691406 38.703125 187.507812 38.703125 Z M 93.613281 138.890625 L 187.257812 79.027344 L 281.402344 138.890625 L 281.402344 156.308594 L 93.613281 156.308594 Z M 273.214844 249.09375 C 273.644531 249.09375 273.996094 249.445312 273.996094 249.878906 L 273.996094 255.914062 C 273.996094 256.347656 273.644531 256.695312 273.214844 256.695312 L 101.800781 256.695312 C 101.367188 256.695312 101.019531 256.347656 101.019531 255.914062 L 101.019531 249.878906 C 101.019531 249.445312 101.367188 249.09375 101.800781 249.09375 L 116.605469 249.09375 L 116.605469 168.660156 L 101.726562 168.660156 C 101.332031 168.660156 101.019531 168.347656 101.019531 167.953125 L 101.019531 162.511719 C 101.019531 162.121094 101.332031 161.800781 101.726562 161.800781 L 273.289062 161.800781 C 273.683594 161.800781 273.996094 162.121094 273.996094 162.511719 L 273.996094 167.953125 C 273.996094 168.347656 273.683594 168.660156 273.289062 168.660156 L 258.410156 168.660156 L 258.410156 249.09375 Z M 281.46875 269.707031 C 281.46875 270.1875 281.078125 270.578125 280.597656 270.578125 L 94.425781 270.578125 C 93.945312 270.578125 93.550781 270.1875 93.550781 269.707031 L 93.550781 262.996094 C 93.550781 262.515625 93.945312 262.125 94.425781 262.125 L 280.597656 262.125 C 281.078125 262.125 281.46875 262.515625 281.46875 262.996094 Z M 281.46875 269.707031 " fill-opacity="1" fill-rule="nonzero"/></g></svg>